<?xml version="1.0" encoding="UTF-8"?><svg id="Layer_1" xmlns="http://www.w3.org/2000/svg" viewBox="0 0 297.64 264.59"><defs><style>.cls-1{fill:none;stroke:#fff;stroke-linecap:round;stroke-linejoin:round;stroke-width:1.72px;}</style></defs><path class="cls-1" d="m112.3,132.09c-10.2-.24-20.04-9.97-22.57-19.52-1.83-6.92.65-14.87,7.07-18.02,2.02-.99,4.45-1.12,6.71-1.24,3.39-.19,6.74.53,10.03,1.63,4.26,1.43,7.29,4.42,10.26,7.71,3.8,4.21,4.73,8.65,5.95,13.91"/><path class="cls-1" d="m93.42,97.97c5.88,5,11.88,9.81,17.51,15.13,2.48,2.34,5.11,3.96,7.05,6.81"/><path class="cls-1" d="m92.33,100.43c5.12,4.46,10.47,8.67,15.6,13.13,2.91,2.54,6.12,4.41,8.33,7.63"/><path class="cls-1" d="m114.39,125.51c-6.23,2.07-2.29,9.44,2.78,10.52,1.12.24,5.4,1.42,5.42-.3.02-1.36-1.03-3.49-1.52-4.77-.7-1.83-1.42-3.65-2.12-5.48-1.15-.19-3.48-.33-4.55.03Z"/><path class="cls-1" d="m164,107.7c-1.91.27-3.31,1.8-4.79,2.89-2.76,2.03-5.15,3.7-8.45,4.75-4.52,1.44-10,2.26-14.87,1.89-1.86-.14-3.38-1.03-5.17-1.33-3.25-.54-6.33.28-9.15,1.64-3.18,1.53-8.55,4.38-8.6,8.47"/><path class="cls-1" d="m147.15,87.31c.17,3.74,2.15,7.79,4.51,10.74,2.8,3.51,7.03,7.94,6.49,12.78"/><path class="cls-1" d="m133.98,79.65c2.21,5.13,5.08,8.73,9.45,12.19,2.16,1.71,4.41,1.57,6.08,3.87"/><path class="cls-1" d="m114.47,69.9c2.32,3.94,6.24,8.07,10.45,10.01,4.03,1.86,8.28,1.87,11.58,5.22"/><path class="cls-1" d="m95.45,69.58c5.36,6.92,15.23,4.53,22.42,5.71"/><path class="cls-1" d="m263.6,77.51c-11.8,1.07-22.79,6.75-34.8,6.28-10.14-.39-21.41-5.09-30.28-10.31-5.08-2.99-10.41-6.83-15.9-8.89-3.61-1.36-7.08.83-10.32,1.83-4.69,1.45-10.74,2.39-15.79,1.77-5.12-.62-10.29-3.77-15-5.9-3.73-1.69-7.61-2.44-11.38-3.86-5.03-1.89-8.96-3.94-14.31-4.6-2.76-.34-5.51.07-8.26.06-7.3-.01-14.2.97-19.28,6.42-1.69,1.82-2.92,3.99-4.51,5.89-1.21,1.44-2.8,2.65-3.35,4.55-.65,2.26,2.96,5.48,4.9,5.93,2.01.46,3.76-.92,5.31-1.89,2.3-1.45,6.1-4.08,8.94-4.02"/><path class="cls-1" d="m122.34,135.27c5.52,1.3,12.83,3.35,18.44,3.14,5.08-.2,10.2-1.4,15.29-1.23,4.28.14,10.51,2.05,13.82-1.43,1.72-1.81.71-7.42.43-9.68"/><path class="cls-1" d="m249.52,133.65c-4.64,1.75-8.69,3.72-13.81,3.94-5.45.23-10.74-1.48-16.15-1.32-6.51.18-12.83,1.65-19.4,1.83-3.19.09-6.27.86-9.47.83-2-.02-3.95-.79-5.95-1.06-2.09-.27-4.67-.43-6.57-1.6-1.26-.77-.03-3.34-1.11-4.09-.43-.31-.03,1.03-.11,1.53-.17,1.13-.46,2.87-1.63,2.97-2.48.2-5.46.24-6.01-2.27"/><path class="cls-1" d="m295.15,141.71c-7.83-5.2-16.63-6.21-25.52-7.42-15.46-2.09-31.03-3-46.3-6.35"/><path class="cls-1" d="m146.93,137.36c-1.62,4.79-2.93,13.07,4.34,13.39,1.05.05,2.14.02,3.09-.42,5.79-2.7,7.64-7.46,10.29-12.96"/><path class="cls-1" d="m85.24,78.45c-3.4,4.02-4.73,10.07-6.36,15.05-1.33,4.06-2.79,7.74-3.05,12.13-.29,5.12.93,10.34,1.01,15.49.05,3.29-.17,6.57-.25,9.85-.04,1.69-.1,3.64,1.13,5.05,1.48,1.68,3.9,2.08,5.9,2.65,4.52,1.28,9.15,1.98,13.72,2.88,6.25,1.23,12.55,2.33,18.74,3.9,6.16,1.56,12.26,4.01,18.59,3.46,3.71-.32,7.16-2.35,10.52-3.71"/><path class="cls-1" d="m101.48,80.39c6.5.17,12.97.98,19.06,3.96,12.58,6.14,19.44,19.59,22.11,32.61"/><path class="cls-1" d="m113.72,135.42c-5.77.6-13.36-3.32-17.35-7.39-4.61-4.7-9.05-10.56-10.08-17.14-1.68-10.75,5.68-20.07,16.17-20.62,3.9-.21,8.28.94,12.01,2.32,4.55,1.68,9.37,4.65,12.23,8.75,3.1,4.45,5.98,10.6,5.91,15.96"/><path class="cls-1" d="m86.51,129.65c1.22.62,3.19,1.12,4.47.77.27-.07,1.32-.37,1.26-.82-.07-.54-1-1.5-1.31-1.93-1.3-1.81-2.71-3.56-3.85-5.48-.54,1.2-2.27,6.6-.57,7.45Z"/><path class="cls-1" d="m76.54,101.4c-3.25-2.77-1.81-4.68-.62-8.1.4-1.16.81-3.16,2.09-3.65.49-.19,1.93.54,2.45.61"/><path class="cls-1" d="m11.43,97.97c11.04,3.26,21.1,6.96,32.19,9.97,5.79,1.57,11.67,2.35,17.46,3.85,4.88,1.26,9.54,3.36,14.5,4.29"/><path class="cls-1" d="m28.8,114.34c.13-.2.26-.41.37-.62"/><path class="cls-1" d="m20.8,112.61c.07-.2.1-.42.14-.63"/><path class="cls-1" d="m36.25,116.69c.13-.32.27-.65.39-.98"/><path class="cls-1" d="m44.31,118.78c.1-.36.18-.73.25-1.1"/><path class="cls-1" d="m51.88,120.81c.14-.47.28-.94.44-1.41"/><path class="cls-1" d="m60.37,122.65c.08-.27.1-.55.14-.83"/><path class="cls-1" d="m68.11,124.78c.11-.36.13-.76.17-1.14"/><path class="cls-1" d="m1.31,107.86c7.38,2.2,21.9,5.48,29.26,7.74,7.06,2.16,14.07,4.62,21.15,6.64,8.14,2.32,15.8,3.8,23.61,7.36"/><path class="cls-1" d="m11.82,111.86c-.45,1.96-2.14,2.66-3.8,3.52-.5.26-4.18,4.48-4.8,4.18-.71-.34-1.49-3.2-1.65-3.86-.48-1.98-1.07-4.25-.37-6.18.65-1.79,2.36-1.31,3.9-.97,2.81.64,5.81,1.57,8.66,1.73,1.19.07,3.74.28,4.06-1.22.48-2.23-3.65-3.79-4.81-5.01-1.23-1.29-1.47-3.3-1.98-4.9"/><path class="cls-1" d="m1.75,108.54c1.72-.89,3.58-1.53,4.98-2.92,1.78-1.77,2.79-4.54,4.28-6.59"/><path class="cls-1" d="m9.27,105.91c-.78.3-.32,1.26.2,1.68,1.07.84,4.21.98,4.53-.57.13-.62-.52-1.04-1.02-1.24-.97-.38-2.68-.93-3.46-.12"/><path class="cls-1" d="m23.17,107.04c.57-1.29,1.08-2.51,1.36-3.93"/><path class="cls-1" d="m19.84,105.06c.18-.93.39-1.85.62-2.76"/><path class="cls-1" d="m27.2,107.34c.31-1.05.93-1.89,1.38-2.88"/><path class="cls-1" d="m31.14,108.6c.3-1.05.65-2.15,1.36-2.97"/><path class="cls-1" d="m34.89,109.65c.23-1.21.83-2.25,1.34-3.34"/><path class="cls-1" d="m38.65,110.48c.31-1.03.83-2.04,1.05-3.08"/><path class="cls-1" d="m42.73,111.23c.26-1.14.86-2.19,1.19-3.31"/><path class="cls-1" d="m46.91,112.58c.28-1.16.56-2.27.96-3.39"/><path class="cls-1" d="m50.72,113.7c.26-1.3.82-2.57,1.33-3.76"/><path class="cls-1" d="m54.2,114.36c.32-1.35,1.06-2.52,1.53-3.81"/><path class="cls-1" d="m58.53,115.3c.51-1.23.75-2.76,1.52-3.84"/><path class="cls-1" d="m62.76,116.11c.43-1.29.72-2.93,1.63-3.9"/><path class="cls-1" d="m66.37,117.79c.44-1.53,1.08-3.04,1.38-4.62"/><path class="cls-1" d="m69.91,118.75c.53-1.41,1.01-2.83,1.63-4.2"/><path class="cls-1" d="m73.93,120.13c.41-1.42.82-3.02,1.6-4.26"/><path class="cls-1" d="m165.4,177.94c-2.43,1.43-5.98,1.91-8.51,3.19-6.58,3.34-13.12,6.82-19.59,10.35-4.56,2.49-9.36,4.16-11.63,9.23-1.55,3.46-.51,7.32-.61,11.06-.07,2.79-1.41,5.27-1.52,7.99-.16,3.86,3.45,8.61,6.37,10.92,1.65,1.31,4.78,4.64,6.99,4.24,2.17-.39,3.33-5.57,4.06-7.16,1.66-3.66,3.46-6.91,3.71-11.11.35-5.77-1.57-10.41.44-16.08,4.71-13.3,17.81-19.86,27.7-28.55,4.75-4.18,11.17-10.46,11.82-17.38.57-5.99-3.5-10.79-5.15-16.31"/><path class="cls-1" d="m179.29,166.88c7.1-9.17,3.34-21.07-4.15-29.31"/><path class="cls-1" d="m124.61,201.16c-.99,1.48-2.37,2.72-3.01,4.43-.99,2.66-.61,5.56-.99,8.35-.36,2.71-1.41,5.37-1.1,8.18.34,3.12,2.15,6.24,3.68,8.96,2.32,4.13,8.36,10.59,13.58,8.17,3.08-1.44,4.27-5.74,5.52-8.64,2.59-6.02,6.42-10.78,7.1-17.68.39-3.97-1.37-7.95.12-11.79,3.59-9.24,12.71-15.53,20.54-20.83,2.48-1.68,5.49-3,7.55-5.19,4.42-4.7,6.26-14.06,6.74-20.66"/><path class="cls-1" d="m124.31,206.5c1.45-2.93,5.52-4.82,8.12-6.49,1.7-1.09,3.13-2.53,4.83-3.61,3.8-2.41,8.66-4.46,13.02-5.65"/></svg>