<?xml version="1.0" encoding="UTF-8"?><svg id="Layer_1" xmlns="http://www.w3.org/2000/svg" viewBox="0 0 297.64 264.59"><defs><style>.cls-1{fill:none;stroke:#fff;stroke-linecap:round;stroke-linejoin:round;stroke-width:1.87px;}</style></defs><path class="cls-1" d="m267.07,79.37c-1.42.83-3.44,2.38-2.95,3.83.33.95,1.13,1.73,1.86,2.38,2.14,1.92,4.66,2.69,6.94.6,3.7-3.38-1.46-9.37-5.86-6.81Z"/><path class="cls-1" d="m224.58,99.54c-.91,1-1.77,2.04-2.41,3.24-.43.81-.91,1.65-1.42,2.41-.39.57-1.12,1.28-1.19,2.02-.03.3.25.53.49.65.74.39,1.42.07,2.08-.34.54-.34,1.06-.74,1.55-1.16,1.66-1.44,3.6-3.48,2.3-5.73-.23-.39-.57-.97-1.04-1.11"/><path class="cls-1" d="m116.59,101.76c-2.15-.08-4.94.95-6,2.93-.88,1.64-.59,3.83.42,5.34.38.57.78,1.16,1.46,1.37.99.32,2.13.04,3.13-.04,1.43-.12,3.71.04,4.48-1.53.2-.4.23-.85.27-1.28.04-.42.03-.85-.11-1.25-.31-.91-.91-1.68-1.35-2.53-.55-1.04-1.08-2.36-2.2-2.94"/><path class="cls-1" d="m153.86,226.86c1.95-1.54,2.93-3.98,4.38-5.93,5.33-7.13,8.34-13.8,12.4-21.36,5.11-9.53,11.57-18.27,15.32-28.53,1.58-4.33,2.11-8.96,3.67-13.26,1.29-3.54,3.45-6.77,4.52-10.39.86-2.91.25-6.55,1.5-9.31,1.83-4.04,5.85-7.06,8.49-10.54,2.52-3.33,3.82-7.45,6.25-10.74,2.47-3.35,6.28-6.54,9.17-9.46"/><path class="cls-1" d="m225.01,99.63c.81-1.19,2.39-.8,3.3,0,1.39,1.22,1.32,3.18,1.39,4.89.24,5.82-2.32,10.56-4.69,15.65"/><path class="cls-1" d="m197.99,145.73c.73-1.64,1.85-2.95,2.99-4.3,1.63-1.93,3.23-3.98,5.3-5.48,2.37-1.72,5-2.77,7.14-4.82,2.11-2.02,3.78-4.44,5.98-6.39,3.2-2.85,6.82-5.03,9.81-8.16,4.36-4.58,7.37-10.16,11.35-15.01,1.56-1.91,3.31-3.9,5.11-5.58.81-.75,2.07-1.27,2.69-2.19,3.6-5.27,8.87-9.14,14.17-12.75,2.08-1.41,5.37-2.95,8.11-2.04"/><path class="cls-1" d="m273.84,84.93c-1.05,4.4-5.29,7.98-8.35,10.98-1.75,1.72-3.35,3.67-5.03,5.47-2.51,2.72-3.99,6.24-5.93,9.34-1.64,2.62-3.83,4.96-5.84,7.3-2.31,2.7-5.33,6.18-5.63,9.82-.1,1.2.57,3.73,1.33,4.75"/><path class="cls-1" d="m239.36,134.71c2.18-1.2,4.33-1.71,6.57-2.68,3.1-1.35,5.98-3.01,8.93-4.64,3.5-1.93,6.99-3.68,10.23-6.07,2-1.47,3.81-3.2,5.2-5.26.9-1.35,1.42-3.01,2.58-4.19,1.71-1.75,3.45-2.63,5.59-3.74"/><path class="cls-1" d="m272.59,112.14c.02-1.38-.51-2.82.3-4.11.56-.9,1.46-1.36,2.34-1.87,4.01-2.31,9.21-.63,12,2.83,1.23,1.52,2.33,3.28,1.79,5.32-.58,2.24-1.88,4.28-2.62,6.48-1.31,3.89-2.18,7.93-5.13,11.01-2.14,2.25-4.85,3.38-7.55,4.78-2.77,1.44-5.47,2.98-8.27,4.37-2.49,1.23-4.58,3.03-6.87,4.57-2.9,1.96-6.15,3.84-8.77,6.15"/><path class="cls-1" d="m216.1,135.45c1.57,3.92,6.51,8.62,11.09,5.95"/><path class="cls-1" d="m284.83,125.8c.83,1.8,1.91,3.48,2.32,5.45.49,2.36,0,4.77.46,7.11.48,2.43,1.72,4.57.42,7.02-1.47,2.77-4.55,4.26-7.18,5.68-4.02,2.16-8.11,4.23-12.1,6.43-4.13,2.29-7.34,5.45-9.96,9.36-1.07,1.61-1.98,3.31-3.05,4.91"/><path class="cls-1" d="m280.84,151.08c.91,1.87-.15,4.61-1.27,6.13-1.31,1.78-3.06,3.22-4.6,4.8-2.08,2.14-3.99,4.42-5.79,6.8-2.86,3.78-5.43,8.05-8.78,11.42-2.25,2.28-5.43,3.61-8,5.46-4.05,2.92-7.65,6.41-11.77,9.26-3.92,2.71-8.54,4.17-12.55,6.68-4.78,2.98-8.32,6.93-11.07,11.86-1.52,2.71-3.2,5.88-5.06,8.38-1.67,2.25-3.77,4.2-5.36,6.5-2.5,3.61-4.66,7.65-6.94,11.41-1.95,3.21-3.82,6.45-5.88,9.6-1.06,1.61-1.91,3.63-3.22,5.04"/><path class="cls-1" d="m64.11,122.56c5.61,2.39,12.37,3.43,18.16.96,3.58-1.53,6.54-4.41,10.2-5.79,4.05-1.53,8.3-.96,12.44-1.88,3.47-.78,6.73-1.99,10.13-2.97,1.48-.42,3.61-.63,4.37-2.2"/><path class="cls-1" d="m118.88,111.5c1.01-.78,2.79-1.64,3.28-2.9.43-1.1.22-2.35-.12-3.44-.82-2.62-2.08-3.43-4.53-4.49-1.09-.47-2.21-.97-3.42-1-2.02-.06-4.03.54-6.01.83-2.21.32-4.45.37-6.64.79-1.89.37-3.72,1.02-5.61,1.4-2.33.46-4.92.74-7.28.85-6.53.32-13.64-2.29-19.8,1.04"/><path class="cls-1" d="m83.48,122.96c-.97,2.1-3.17,3.34-4.64,4.96-.9,1-1.65,2.11-2.58,3.09-1.11,1.16-2.52,2.2-3.84,3.1-1.79,1.22-3.77,1.92-5.79,2.64-1.4.5-2.76,1.16-4.19,1.57-1.17.34-2.34.39-3.53.62-1.3.24-2.59.76-3.9.91"/><path class="cls-1" d="m50.75,142.71c2.67,1.08,4.83,2.72,7.93,2.63,5.05-.15,10.04-3.08,14.22-5.59,5.04-3.03,10.75-5.34,13.95-10.62.85-1.4,1.85-2.82,1.88-4.52.02-1.39-.66-2.63-1.14-3.89"/><path class="cls-1" d="m88.76,124.93c.25-.06.77-.16,1.01-.25"/><path class="cls-1" d="m16.11,165.66c4.56-3.71,10.12-6.13,15.23-8.99,6.57-3.67,13.01-7.57,20.29-9.6,2.38-.67,4.95-1.58,7.43-1.7"/><path class="cls-1" d="m83.48,103.34c-.91-4.23-2.71-8.49-5.33-11.95-1.35-1.79-3.18-3.05-4.4-4.96"/><path class="cls-1" d="m85.42,103.52c.74-1.82,2.69-4.04,4.3-5.08"/><path class="cls-1" d="m86.13,80.89c1.29,5.33,5.37,8.58,10.78,9"/><path class="cls-1" d="m92.69,88.94c1.03,2.04,2.96,4.91,2.88,7.26"/><path class="cls-1" d="m78.7,102.93c-1.05-1.25-2.41-2.22-3.49-3.44-1.02-1.16-1.75-2.61-2.9-3.65"/><path class="cls-1" d="m2.39,128.86c4.72-2.19,9.77-4.17,14.7-5.83,2.2-.74,4.48-1.23,6.61-2.19,4.91-2.22,10.05-5.48,14.11-9.05,3.69-3.25,7.67-6.53,11.02-10.14,1.86-2,3.27-4.44,5-6.57,2.47-3.05,5.19-5.67,7.8-8.57,1.23-1.36,2.34-2.72,3.27-4.3.74-1.26,1.59-3.35,2.83-4.23,2.32-1.65,6.74-.78,9.44-1.13,4.26-.55,8.73-1.35,12.92-2.27,2.99-.66,5.96-1.73,9.08-1.39"/><path class="cls-1" d="m99.01,103.49c-.53.77-.69,1.73-.91,2.62-.65,2.72-.73,6.07,1.12,8.38"/><path class="cls-1" d="m100.18,108.88c.6,1.51.72,3.16,1.05,4.74"/><path class="cls-1" d="m101.61,103.88c.93.81,1.31,2.06,1.55,3.23.41,1.94.54,3.65.56,5.63"/><path class="cls-1" d="m244.7,100.28c3.37.5,6.64,2.54,8.45,5.54"/><path class="cls-1" d="m273.6,119.9c3.31.99,4.37,3.69,4.98,6.77.13.63.45,1.35.46,2"/><path class="cls-1" d="m269.24,78.53c.63-1.11,1.44-2.07,2.12-3.14-3.61-2.14-6.8-5.09-10.63-6.85-5.34-2.45-10.97-4.01-16.42-6.15-7.61-2.99-14.91-6.55-22.3-10.04-7.08-3.35-14.14-6.34-20.7-10.66"/><path class="cls-1" d="m267.08,95.09c2.86,1.64,5.08,4.04,7.26,6.48"/><path class="cls-1" d="m271.42,75.66c.29,1,1.75,4.47,2.1,5.45"/><path class="cls-1" d="m273.45,85.54c.23,5.3.16,10.69,1.11,15.95"/><path class="cls-1" d="m265.17,121.19c3.24-6.21,5.75-13.71,9.39-19.71"/><path class="cls-1" d="m267.12,72.58c1.97,1.13,5.22,2.21,7.24,3.21,3.48,1.74,2.33,1.18,5.8,2.93,1.52.76,2.99,1.61,4.57,2.24.38.15,1.59.41,1.77.75,1.21,2.22-2.45,6.86-3.4,8.59-4.15,7.59-8.92,14.33-13.62,21.52"/><path class="cls-1" d="m286.64,82c.48.37,1.13.46,1.68.72,1.69.8,3.45,1.4,5.14,2.21.52.25,1.09.45,1.64.63.14.05.51.09.58.23.22.46-.2,1.15-.39,1.55-.66,1.42-1.53,2.72-2.36,4.05-1.28,2.05-2.26,4.28-3.59,6.31-1.11,1.69-2.48,3.2-3.6,4.87-.76,1.14-1.31,2.47-2.14,3.56"/><path class="cls-1" d="m201.09,41.68c.71.96-.15,1.58-1.02,1.92-1.36.53-3.49-.17-4.83-.45-6.81-1.44-13.8-4.17-20.17-6.92-9.81-4.23-19.48-8.78-29.16-13.24-6.77-3.11-13.81-5.45-20.29-9.23-.94-.54-2.1-.55-3.1-.94-1.01-.4-6.07-1.31-7.74-1.31"/><path class="cls-1" d="m129.13,15.62c3.27,1.22,6.95,2.92,10.26,4.11,1.73.62,7.51,3.12,9.26,3.64,2.83.85,11.63,4.79,14.35,5.94,10.75,4.54,11.04,5.19,22.14,8.87,2.67.89,5.41,1.96,8.22,2.23,1.11.11,2.95.03,2.64-1.57.92.19,1.91.42,2.79.75,1.12.42,2.09,1.13,3.23,1.52,1.62.54,3.33.65,4.96,1.15,4.79,1.49,9.03,4.94,13.46,7.18,6.03,3.06,12.16,6.12,18.28,9.02,5.13,2.43,10.5,4.38,15.38,7.33"/><path class="cls-1" d="m103.16,100.76c1.11-3.92,1.19-8.34,1.97-12.34,2.08-10.74,3.94-21.54,6.14-32.26,2.31-11.29,5.63-22.37,8.34-33.57.7-2.88,2.4-6.67,2.95-9.59"/><path class="cls-1" d="m94.35,102.83c.55-5,2.12-9.25,2.95-14.23.88-5.32,1.4-10.7,2.26-16.03,1.52-9.47,3.73-18.89,6.23-28.14,1.86-6.88,3.99-13.67,5.95-20.51,1.03-3.59,2.54-8.7,3.05-12.41"/><path class="cls-1" d="m100.96,116.62c-2.14,4.39-3.32,9.45-4.68,14.14-1.17,4-2.56,8.01-3.06,12.16-.19,1.56-.46,3.08-.87,4.6-.18.65-.76,1.68-.51,2.37.4,1.09,2.01,1.89,2.86,2.56,3.03,2.37,6.54,3.87,9.81,5.84,8.74,5.28,18.34,9.55,28.4,11.4,4.94.91,10.31,1.49,15.23,0,1.88-.57,3.95-1.77,5.71-2.68,1.1-.57,1.34-2.46,1.81-3.43,1.56-3.22,2.63-6.27,3.79-9.67,1.64-4.81,4.48-9.25,6.3-14,1.71-4.46,2.4-9.17,3.98-13.65.95-2.71,2.5-5.18,3.71-7.77,1.16-2.48,1.83-5.18,2.64-7.75,2.75-8.73,6.97-16.77,10.5-25.2,3.93-9.39,7.13-19.08,10.58-28.63.94-2.6,2.21-5.07,3.14-7.66.75-2.07.93-4.33,1.73-6.37"/><path class="cls-1" d="m91.24,118.52c-.09,1.72-.78,3.37-1.15,5.05-1.01,4.5-2.46,8.97-3.18,13.52-.24,1.48-.28,2.96-.42,4.45-.05.55-.36,1.36-.23,1.92.21.95,1.02,1.73,1.58,2.48,1.25,1.68,2.62,3.32,4.22,4.67"/><path class="cls-1" d="m155.99,163.19c1.68,1.72,2.9,3.84,4.64,5.5,5.67,5.44,12.49,10.37,19.3,14.3"/></svg>