<?xml version="1.0" encoding="UTF-8"?><svg id="Layer_1" xmlns="http://www.w3.org/2000/svg" viewBox="0 0 297.64 264.59"><defs><style>.cls-1{fill:#fff;}</style></defs><path class="cls-1" d="m294.11,125.77c-.32-.26-.65-.53-.97-.79-.12-.37-.22-.76-.73-.72-.2-.14-.4-.27-.6-.41-.07-.29-.06-.65-.54-.53-4.36-3.38-9.05-6.26-13.76-9.12-.13-.08-.29-.12-.43-.19-.05-.19-.06-.43-.37-.33-.19-.08-.39-.16-.58-.23-.11-.37-.36-.54-.74-.51-.75-.39-1.48-.8-2.24-1.17-3.11-1.53-6.22-3.04-9.33-4.56-.19-.09-.35-.24-.53-.36-.09-.22-.25-.15-.4-.08,0-.06-.03-.1-.09-.11,0,0,.02,0,.02,0-.25.03-.47-.06-.66-.21-.02-.11-.06-.18-.19-.15-.45-.17-.95-.24-1.33-.57-.21-.21-.43-.38-.75-.24-.76-.36-1.51-.72-2.27-1.09-.11-.2-.23-.28-.37-.03-2.93-1.27-5.8-2.68-8.71-4-1.66-.76-3.2-1.76-4.91-2.41-.09-.41-.39-.51-.75-.51-1.19-.63-2.32-1.36-3.42-2.13-.09-.27-.26-.39-.55-.33-.26-.14-.51-.29-.77-.43,0-.11-.04-.19-.17-.13-2.37-.94-4.56-2.12-5.93-4.41.1-.3-.13-.32-.32-.37-.08-.19-.16-.38-.24-.57.08-.3-.11-.44-.33-.55-.71-.95-1.42-1.9-2.13-2.85.02-.37-.24-.46-.52-.55-1.32-1.49-2.74-2.88-4.54-3.8-.03-.21-.08-.42-.38-.32-1.89-.96-3.78-1.93-5.67-2.89-.21-.2-.44-.37-.76-.23-2.19-1.07-4.61-1.44-6.88-2.27-1.85-.69-3.86-.91-5.63-1.84-.29-.17-.53-.44-.91-.35-1.44-.42-2.94-.73-4.31-1.31-1.1-.47-2.23-.73-3.36-.99-1.24-.29-2.34-.87-3.5-1.3-1.45-.54-2.93-.94-4.41-1.35-1.07-.29-2.09-.74-3.14-1.12,0-.11-.05-.18-.18-.16-1.41-.29-2.76-.74-3.98-1.53-.07-.19-.21-.22-.38-.13-.19-.08-.38-.17-.57-.25-.08-.21-.23-.16-.38-.09-3.58-1.47-7.32-2.41-11.02-3.5-.01-.05-.02-.1-.04-.14-.02.05-.04.09-.06.14-.53-.12-1.06-.25-1.59-.37-.02-.05-.03-.1-.05-.15-.02.05-.04.09-.06.14-.56.04-1.05-.21-1.56-.35-.17-.24-.35-.31-.56-.04-.24.06-.42-.08-.61-.17-.01-.05-.03-.1-.04-.14l-.06.14c-.36.06-.69-.1-1.02-.19-.02-.05-.03-.1-.05-.15-.02.05-.04.1-.06.14-.77-.11-1.55-.21-2.32-.32-.01-.12-.05-.23-.19-.21-.06,0-.1.1-.16.16-2.26-.32-4.51-.64-6.77-.94-1.59-.21-3.19-.4-4.78-.58-2.64-.31-5.28-.51-7.91-.93-1.16-.18-2.42-.18-3.54-.47-1.58-.41-3.2-.51-4.76-.96-.46-.13-.93-.15-1.4-.09-.13-.03-.11-.32-.34-.18-1.8-.63-3.7-.85-5.55-1.3-1.82-.43-3.66-.78-5.5-1.11-2.55-.45-5.09-.84-7.68-1.01-.06,0-.12.02-.19.03-.11-.1-.23-.11-.36-.04-1.52-.29-3.06-.19-4.59-.18-.13-.05-.25-.46-.4-.02-.4-.42-.93-.29-1.41-.31-1.15-.04-2.3-.02-3.45-.02-.19-.09-.37-.15-.44.14-.16-.25-.42-.27-.67-.28-2.59-.15-5.18-.29-7.78-.43-.12-.01-.25-.03-.37-.04-2.98-.47-5.99-.58-8.98-.35-1.25.09-2.46-.2-3.68-.03-.15-.22-.39-.24-.51-.06-.14.21.12.26.27.33,1.93,2.7,3.83,5.43,5.8,8.1,1.45,1.97,2.7,4.06,3.93,6.17-.05.28.09.45.34.54.07.14.15.27.22.41.02.4.19.71.54.93.03.15-.03.35.2.4.06.38.19.71.56.9.23.76.61,1.45.98,2.14-.04.13.03.16.14.15.95,1.73,1.95,3.54,2.3,5.42.31,1.69,1.33,1.95,2.5,2.39,1.59.59,3.21,1.09,4.89,1.36,1.73.75,3.57,1.04,5.43,1.18.79.1,1.59.19,2.38.29.31.52.78.32,1.21.27.14-.01.28-.02.42-.03.19.49.58.23.9.23.78-.03.71-.84,1.06-1.25.16-.2.35-.61.38-.97.25-.15.35-.32.08-.54.88-3.15,1.76-6.3,2.64-9.44.31-.17.41-.43.32-.77.49-1.39,1.01-2.76,2.13-3.8.38,0,.76.02,1.14.02.36.39.15.76-.07,1.1-1.55,2.3-2.27,4.93-2.92,7.56-.42,1.73-1.07,3.39-1.45,5.12-.08.16-.18.44-.03.46.21.03.36-.24.46-.45.32-.33.64-.66.96-1,.24-.08.37-.24.35-.51,1.9-2.38,3.2-5.11,4.21-7.94.46-1.28,1.07-2.62.92-4.09-.04-.43,0-.84.58-.86.38-.04.67.17.96.36.02.14.04.28.05.43,0,1.03-.18,2.03-.37,3.03,0,.13-.02.26-.03.39-.21.28-.41.56-.3.93-.04.07-.08.14-.13.22-.11,0-.19.01-.12.15-.07.84-.48,1.56-.82,2.3-1.57,3.44-3.7,6.49-6.47,9.08-.97.91-.91.88.27,1.43,3,1.39,6.22,2.12,9.29,3.26,3.04,1.13,6.14,2.1,9.16,3.29,3.43,1.36,6.98,1.68,10.61,1.6.38.06.72.04.93-.35.55-.07,1.04-.3,1.52-.58.28.02.45-.13.56-.36.19-.14.37-.28.56-.42.4-.12.91-.1.95-.71.76-.52,1.52-1.03,2.28-1.55.13.03.17-.04.18-.15.19-.14.38-.29.58-.43.13.04.16-.03.16-.14.89-.7,1.78-1.41,2.67-2.11.13.03.17-.04.18-.15.51-.39,1.01-.78,1.52-1.17.13.03.17-.04.18-.15l.58-.42c.13.03.17-.04.16-.15.32-.26.65-.53.97-.79.13.03.17-.04.18-.15.76-.61,1.43-1.36,2.47-1.51.2.18.41.37.61.55,0,.14,0,.27,0,.41-.24.02-.21.21-.24.36h0c-.23.06-.44.14-.53.39-.4.25-.75.54-.97.96-.24.04-.48.07-.56.36-.07.06-.14.12-.2.18-.41.13-.7.41-.95.75-.06.06-.13.12-.19.18-.25.03-.45.14-.55.39-.07.06-.14.12-.21.18-.12.01-.18.07-.18.19,0,0,0,.01,0,.01-.24.05-.48.09-.56.37-.69.57-1.55.95-2.09,1.71-.25.03-.48.1-.57.37-.06.07-.12.15-.18.22-.23.04-.48.06-.54.36-.28.11-.48.29-.6.57-.25.02-.48.09-.58.36l-1.88,1.32c-.26.02-.45.14-.56.38h0c-.12,0-.18.07-.18.19-.12.09-.33-.02-.39.2-.12,0-.18.06-.18.18-.12.09-.34-.02-.39.2-.27,0-.45.14-.57.37-1.17.59-2.3,1.28-3.68,1.37.3.95,1.21,1.47,1.77,2.26.32.44,1.15.22,1.7.12,1.5-.27,2.99-.17,4.49-.13.28.54.78.28,1.2.32,1.18.08,2.35.17,3.53.25.28.54.78.28,1.2.32,6.63.69,12.92,2.41,18.57,6.08.07.28.28.35.52.39.12.23.3.36.56.38.03.09.05.19.19.11.07.02.14.05.21.07.14.31.42.47.7.62,0,0-.01-.01,0-.01.03.25.19.34.43.34.06.19.22.18.37.2.23.33.57.49.95.56.06.22.29.08.4.18.19.37.55.49.92.57.06.22.28.09.39.19,0,.12.06.18.18.19h0c.18.29.42.49.75.57.98.58,1.63,1.54,2.49,2.26.15.31.4.49.72.58,1.08,1.25,2.44,2.23,3.41,3.58.08.33.29.55.58.71.06.08.12.16.18.24.03.25.13.43.4.48l1.56,1.98c.02.23.04.46.32.54.51.76,1.02,1.53,1.54,2.29.04.35.29.55.54.75h0c-.02.29.14.45.37.57h0c0,.28.12.46.38.54,0,0,.03.02.03.02.03.2.09.38.33.41.34.56.68,1.13,1.02,1.69-.04.12,0,.15.11.12.8.46,1.2,1.25,1.63,2,.79,1.36,1.54,2.74,2.31,4.11-.09.46.18.78.42,1.11.14.45.27.9.41,1.35-.06.29.16.42.34.57.45.25.95.14,1.42.16,2.18.08,4.36.12,6.54.14.74,0,1.56-.29,2.36-.35,1.73-.12,3.41-.69,5.17-.55.44-.03.94.23,1.26-.29.74-.08,1.48-.03,2.21-.21.55-.14,1.04.05,1.38.53-.01.19-.02.39-.03.58-.33.51-.86.58-1.39.64-2.09.23-4.14.76-6.27.7-.27-.26-.52-.32-.71.08-.27.04-.54.07-.81.11-.34-.34-.62-.22-.87.12-3.04.4-6.09.17-9.14.11-.17-.04-.4-.12-.49.06-.11.21.14.28.28.38-.16.1-.17.24-.1.4,1.07,2.33,1.37,4.88,1.9,7.33.26,1.17.65,2.4.56,3.66-.05.5-.38,1.05.26,1.43.1,2.63.14,5.26,0,7.88-.04.87-.57,1.72-.15,2.61-.47.36-.49.81-.3,1.32.01.14.02.28.03.42-.45.1-.24.45-.27.71-.01.51-.02,1.01-.03,1.52-.7.63-.38,1.5-.54,2.26-.14,1.02-.27,2.02.57,2.86.17.17.22.52.25.79.14,1.32,1.27,1.52,2.17,1.98.24-.1.41-.23.33-.53.14-.19.28-.39.42-.58.26-.14.41-.37.55-.62.52.09.98-.68,1.54-.11.13.21.29.39.57.33.62-.03.82-.68,1.32-.9.41-.13.68-.44.94-.75h0c.37-.09.71-.21.9-.58.78-.52,1.69-.79,2.49-1.33.67-.45,1.7-.52,2.57-.51.89.02,1.77-.07,2.65-.07,1.01,0,1.97.2,2.94.41.25.31.54.48.94.27.07.04.14.07.21.11.37.33.84.43,1.3.54,1.06.23,1.95.83,2.87,1.36-.01.11.01.18.14.11,1.86.79,3.38,2.01,4.55,3.67-.02.41.31.54.58.7.76.86,1.29,1.85,1.73,2.89-.07.33.05.58.33.75h0c0,.36.13.67.38.92.04.07.08.14.12.21,0,.5.11.98.25,1.47.11.35-.15.82.35,1.05.02.67.04,1.35.06,2.02-.05.89.02,1.76.5,2.54.11,1.79-.08,3.57-.23,5.35-.14,1.61-.57,3.19-.87,4.79-.52.54-.66,1.28-.98,1.91-.11.22.17.34.41.31.97-.06,1.87.42,2.83.41.03.09.05.19.18.11.76.04,1.44.33,2.12.64-.01.12.03.18.15.15.06.01.13.02.19.04.07.2.21.2.38.14,1.47.55,2.64,1.66,4.15,2.13.03.09.05.19.18.1.08.03.15.05.23.08,0,.11,0,.19.15.12,1.09.49,2.14,1.06,3.09,1.78-.02.11,0,.17.12.09.83.36,1.53.94,2.29,1.42,0,.12.06.18.18.18,1.3.61,2.37,1.57,3.61,2.27.04.2.09.39.36.38h0c.11.25.31.36.56.39h0c.18.29.42.49.76.56.07.06.14.12.21.18.27.3.45.71.92.77.47.49,1.14.76,1.55,1.32-.02.12.05.17.16.18.14.24.33.44.58.57.08.28.3.35.56.35.51.51,1.01,1.02,1.52,1.54.22.36.53.62.92.77.09.18.21.31.4.37.19.26.32.59.73.58.07.06.14.12.2.18.23.35.53.62.93.77.07.06.14.12.21.18.17.29.4.51.74.58.13.12.26.24.39.37.16.3.41.49.74.58.15.24.34.44.6.54.15.31.41.47.72.59.15.24.34.44.62.54.07.27.28.35.51.4h0c.03.1.07.18.19.13.57.4,1.13.79,1.7,1.19,0,.26.17.34.39.36h0c0,.13.06.19.18.2.77.5,1.49,1.05,2.15,1.7.21.35.41.71.88.77.16.25.35.47.65.54.04.27.25.35.48.41.23.42.59.59,1.06.54.36-.04.7.02.83.41.14.42.07.79-.38,1-.13-.05-.16.03-.17.13-.56.34-1.05.07-1.54-.19-.07-.3-.1-.64-.56-.52-.53-.45-1.06-.91-1.59-1.36-.16-.26-.23-.64-.67-.53-.44-.07-.36-.65-.75-.77-.07,0-.13,0-.2,0-.14-.08-.27-.15-.41-.23-.04-.19-.04-.43-.35-.34-1.14-.83-2.28-1.66-3.42-2.49-.12-.37-.23-.75-.74-.71-.13-.08-.27-.15-.4-.23-.06-.3-.18-.54-.54-.53-.2-.14-.39-.28-.59-.41-.08-.28-.08-.65-.55-.53-.51-.39-1.02-.78-1.53-1.17-.12-.37-.21-.76-.74-.71-.51-.39-1.02-.79-1.52-1.18-.11-.38-.24-.75-.74-.72-1.63-1.35-3.05-2.92-4.75-4.19-.07-.29-.07-.65-.55-.52-.13-.08-.26-.15-.4-.23-.05-.19-.06-.42-.36-.34-.13-.08-.25-.16-.38-.23-.01-.11-.06-.18-.18-.15-4.64-3.24-9.43-6.23-14.61-8.55-.25-.11-.39-.42-.72-.37,0-.1-.03-.18-.17-.12-1.75-.43-3.5-.84-5.31-.92-.12-.07-.14-.02-.11.09-1.24,1.56-2.85,2.69-4.43,3.86-.13-.08-.15.02-.18.11h0c-.06.06-.13.13-.19.19-.32.14-.63.28-.95.41-.13-.03-.17.04-.19.15-.38.15-.75.3-1.13.46-.35-.14-.58.01-.77.3-.45.32-.96.43-1.51.41-.38-.06-.72-.02-.94.35-.07,0-.13,0-.2,0-.32-.38-.48-.09-.65.15-2.32.19-4.62.03-6.8-.75-1.48-.53-2.93-1.3-4.13-2.31-1-.84-2.13-.82-3.21-.85-1.14-.03-2.32.26-3.45.53-2.06.49-4.09,1.07-6.14,1.61-.32-.14-.42.13-.57.3-.25.09-.5.19-.75.28-.32-.08-.56.07-.76.3-.32.15-.63.29-.95.44-.3-.11-.45.07-.57.3-1.78.83-3.7,1.32-5.43,2.24-.5.26-1.04.19-1.56.25-.2,0-.43-.09-.57.16h0c-.27,0-.44.16-.56.38-.13.02-.25.04-.38.06-.26-.08-.47-.06-.5.28-.74-.04-1.21.57-1.86.77-.43.13-.83.39-1.24.59-.34.06-.67.16-.74.57-.51.28-1.02.57-1.54.85-.12-.07-.14-.02-.11.09-.84.58-1.68,1.16-2.51,1.73-.3-.06-.46.11-.58.34h0c-.33.09-.57.28-.73.58-.07.06-.14.13-.21.19-.57-.07-.7.41-.94.75-.07.06-.13.13-.2.19-.48.05-.66.45-.92.76-.64.64-1.27,1.28-1.91,1.92-.25.01-.47.06-.54.36-2.07,1.86-4,3.85-5.89,5.88-.45.37-.97.67-1.12,1.3-1.2,1.25-2.53,2.37-3.69,3.67-.51.57-1.21.97-1.82,1.45-.3-.09-.37.11-.41.33-.68.39-1.36.77-2.04,1.16-.12,0-.18.06-.18.18-.07.03-.14.05-.21.08-.12-.06-.15,0-.13.1-1.08.71-2.07,1.72-3.25,2.05-1.95.54-3.79,1.6-5.91,1.5-.05,0-.11.06-.16.09-.22,0-.49-.1-.52.27-.27.03-.54.06-.81.09-.21-.29-.39-.31-.53.05-2.19.17-4.36.15-6.56,0-1.07-.08-2.02-.29-2.93-.79-.09-.2-.23-.16-.38-.08-2.7-1.33-5.25-2.92-7.66-4.73-.22-.17-.45-.34-.67-.51-.11-.23-.3-.36-.52-.47-.3-.17-.53-.41-.71-.7-.11-.22-.24-.4-.46-.52-1.57-2.25-3.23-4.43-4.68-6.76-1.1-1.77-1.91-3.72-2.86-5.58-.47-.91-.85-1.84-1.19-2.8.08-.27-.1-.39-.3-.5-.51-.57-.96.04-1.26.2-2.8,1.55-5.82,2.59-8.78,3.75-2.09.82-4.31,1.28-6.47,1.89-1.58.44-3.16.68-4.76.88-.33.04-.44.34-.7.42-.12-.07-.19-.24-.37-.17-2.29.1-4.59.15-6.88.13-1.11,0-2.11-.34-3.16-.5-1.5-.24-2.93-.82-4.32-1.4-2.03-.85-4.11-1.62-5.87-3-.12-.23-.28-.39-.56-.34-.13-.07-.27-.15-.4-.22-.08-.28-.06-.66-.54-.52-.13-.08-.26-.16-.4-.24-.07-.29-.09-.64-.55-.53-.13-.08-.26-.15-.4-.23-.12-.37-.22-.76-.74-.72-3.19-2.9-6.62-5.57-8.95-9.31.1-.3-.13-.32-.32-.37-.88-1.68-1.79-3.35-2.63-5.06-.7-1.41-1.39-2.83-2.03-4.26-.73-1.63-1.63-3.2-2.19-4.9-.37-1.13-1.17-1.48-2.23-1.48-.21-.2-.38-.59-.74-.18-.13,0-.27,0-.4-.01-.21-.2-.38-.59-.74-.19-1.97.17-3.56-1.23-5.46-1.34-.05-.21-.16-.36-.39-.38-1.27-.39-2.42-1.03-3.48-1.81-2.37-1.75-4.8-3.41-7.29-4.98-.25-.3-.47-.66-.96-.5-.44-.21-.89-.42-1.33-.63-.04-.21-.07-.42-.37-.32-.64-.4-1.27-.8-1.91-1.2-.03-.52-.35-.53-.74-.42-.07-.05-.14-.1-.2-.15,0-.12-.05-.18-.17-.18-.19-.13-.38-.26-.57-.39-.01-.51-.48-.37-.75-.53-3.12-2.6-5.1-5.94-5.93-9.87-.81-3.81.36-6.96,3.74-9.13,1.45-.93,2.86-1.93,4.65-2.07.21,0,.47.13.55-.21.2,0,.39.01.59.02.21,0,.47.13.54-.22,1.57-.22,3.15-.39,4.75-.39.24.01.47.02.73.04-.2-.24-.43-.36-.72-.34-2.57-.88-5.11-1.86-7.57-3.02-.12-.55-.53-.51-.95-.48-.25-.09-.5-.19-.75-.28-.22-.18-.3-.67-.75-.36-.26-.13-.51-.26-.77-.4-.08-.41-.42-.48-.75-.57h0c-.24-.3-.54-.52-.95-.5-.57-.15-1.01-.53-1.51-.83-.01-.11-.06-.18-.19-.14-2.12-1.17-3.96-2.75-5.88-4.2-.11-.38-.24-.75-.74-.72-.66-.42-.99-1.21-1.71-1.55-.88-1.47-2.16-2.62-3.21-3.95,0,0-.01-.01-.01-.01-.03-.25-.15-.43-.36-.57-1.65-2.85-3.08-5.82-4.29-8.89.17-.3-.05-.43-.25-.56-2.61-6.14-4.3-12.55-5.83-19.02-.08-.33-.04-.69-.06-1.03.08-.27-.11-.38-.29-.5-.14-.84-.29-1.69-.43-2.53.4-.36.04-.54-.18-.75.35-1.15-.68-2.14-.38-3.29.01-.05-.23-.16-.35-.25.29-.02.42-.14.31-.44,0-1.7.05-3.4,0-5.1-.11-3.19.25-6.35.65-9.5.07-.56.17-1.1.16-1.67.22-.21.58-.38.18-.75,0-.13,0-.26,0-.39.22-.21.59-.38.19-.74,0-.13,0-.26,0-.39.22-.21.59-.38.19-.75-.06-.24.09-.41.18-.6.05-.02.1-.04.15-.06-.05-.03-.1-.05-.14-.08.2-1.46.69-2.85,1.11-4.26.82-2.75,1.53-5.53,2.67-8.19,1.36-3.18,2.98-6.17,5.01-8.96,1.11-1.52,2.1-3.14,3.31-4.57,1.74-2.07,3.78-3.84,5.99-5.42,2.45-1.75,4.89-3.55,7.58-4.89,3.66-1.82,7.46-3.33,11.62-3.63.74-.05,1.48-.22,2.22-.33,3.16-.26,6.31-.56,9.49-.5.88.02,1.74.28,2.62.13,4.62,1.28,8.83,3.44,12.88,5.96,2.69,1.67,5.28,3.49,7.88,5.29,1.12.77,1.98,1.91,2.93,2.92.35.37.7.51,1.21.55,3.42.25,6.85.01,10.27.18,2.9.14,5.8.45,8.7.66.75.06,1.51.04,2.26.05.18.1.37.11.56.05,1.12.31,2.27.06,3.39.2.07.2.23.16.39.14,2.99-.11,5.96.22,8.93.47,4.22.35,8.4,1.05,12.53,2.07,4.38,1.07,8.79,2.05,13.27,2.62,2.44.31,4.9.55,7.32.97,1.7.3,3.42.46,5.13.71,1.07.16,2.18.2,3.23.41,1.76.34,3.55.35,5.31.7,1.09.22,2.25.26,3.34.46,2.69.49,5.38,1.01,8.04,1.73,3.71,1,7.35,2.19,10.87,3.72,2.42,1.05,4.89,1.92,7.39,2.71.2.06.42.08.64.12.27.42.71.45,1.14.49.13.01.26.02.39.04.03.24.19.23.37.2.45.13.9.27,1.35.4,0,.11,0,.2.15.12.14.02.28.05.42.07.18.24.44.32.73.35.06.01.13.02.19.03.07.19.21.2.38.17.95.06,1.8.43,2.66.78.21.19.39.46.75.31.13.02.27.04.4.06,0,.1.01.2.16.11.14,0,.27.02.41.02.01.25.18.24.36.21,2.53.78,5.05,1.6,7.6,2.32,1.02.29,2.03.63,3.1.81.76.13,1.47.53,2.25.73,1.28.33,2.56.76,3.74,1.41.15.12.28.28.51.21.27.01.53.06.75.23.15.17.26.44.57.3l.21.07c0,.12.03.18.16.16,1.93.71,3.76,1.63,5.53,2.69-.01.11,0,.18.13.1.07.03.15.05.22.08.18.41.57.46.94.54v.02c.06.32.34.31.57.36v.02c0,.12.06.18.18.18h0c.1.25.3.36.55.4,1.09.72,1.88,1.77,2.84,2.64.1.32.31.54.58.71.06.08.12.15.18.23.02.24.13.41.38.47,1.12,1.31,2.07,2.73,2.86,4.25.03.58.45.78.92.94.64.65,1.35,1.2,2.2,1.56.07.22.17.39.45.32.92.4,1.85.78,2.68,1.35.08.27.28.35.53.37h0c.12.23.3.36.56.37.95.57,1.91,1.15,2.86,1.72,0,.11.01.19.15.11,1.46.72,2.92,1.43,4.37,2.15,0,.1.03.19.16.12.07.02.15.05.22.07,0,.1,0,.2.15.11l.23.08c-.02.12.02.18.15.15,1.27.58,2.53,1.16,3.8,1.74,0,.1.03.19.17.12.07.02.14.04.22.07,0,.1.03.19.16.11.08.02.15.05.23.07-.01.12.03.18.16.16.79.14,1.46.54,2.14.93.26.21.52.42.89.36.07.02.14.05.21.07-.01.12.03.18.16.15l.2.03c.07.19.21.21.38.14.07.02.14.04.21.06,0,.1.03.19.16.11.08.03.16.05.24.08-.02.12.02.18.15.15.07,0,.13.02.2.03.2.23.43.38.76.31.07.02.14.05.21.07-.01.12.03.18.16.16.19.07.33.27.57.21.2.23.43.38.75.31.07.03.15.05.22.08-.01.12.03.18.15.15.06.01.13.02.19.03.07.19.22.19.38.16.38.14.76.27,1.13.41.16.15.25.44.57.29.07.03.15.05.22.08-.02.12.02.18.15.15.96.23,1.77.79,2.67,1.17,0,.1.03.19.16.11.08.02.15.05.23.07-.01.12.03.18.15.16,1.06.36,2.08.8,3.05,1.36,0,.11.03.19.16.12l.22.07c0,.1.03.19.16.12.07.02.15.05.22.07,0,.11.02.19.16.12.07.02.15.05.22.07,0,.11.02.19.16.12.83.3,1.58.75,2.32,1.21-.01.11,0,.18.14.11l.22.07c.31.47.83.58,1.3.76.06.22.28.09.4.18.19.38.56.48.93.57.06.22.28.09.4.19.08.27.29.36.55.38.88.45,1.73.94,2.52,1.52-.02.11-.01.17.11.08.08.03.15.06.23.1.08.28.29.36.55.37h0c.23.33.55.5.93.57.06.22.27.1.39.19.08.3.29.35.56.3.58.4,1.17.81,1.75,1.21-.02.11,0,.17.13.1.07.03.14.05.21.08,0,.12.06.18.18.18.06.2.26.11.38.19,0,.12.07.18.18.19,1,.63,2.01,1.27,3.01,1.9.02.25.15.36.4.31.9.71,1.8,1.43,2.7,2.14.23.34.42.7.89.76.07.06.14.12.21.18.34.35.58.83,1.11.96.08.18.2.32.4.37.26.31.44.72.92.76h0c.17.3.42.49.75.58.21.3.46.55.77.74.02.38.24.76-.02,1.13-.06,0-.12.02-.18.04-.16-.02-.32-.05-.38.17-.71,0-1.01-.66-1.55-.95-.08-.28-.07-.65-.54-.52-.14-.08-.27-.15-.41-.23-.04-.19-.04-.42-.35-.35Zm-224.36,21.34c-.07.04-.24-.1-.23.11.07-.04.14-.08.21-.12.09-.04.25-.03.17-.21.54.05.93-.28,1.34-.55,1.36-.66,2.76-1.24,4.07-2,1.28-.73,2.51-1.58,3.67-2.48,2.31-1.8,3.77-4.27,5.15-6.8.56-1.03.89-1.11,1.78-.44.17.13.34.16.52.16,1.35,0,2.59.41,3.79.97.6.28,1.04.24.93-.61-.01-.11.05-.23.09-.34.43-1.18.91-2.35,1.37-3.51.96-2.4,1.93-4.79,3.25-7.02.31-.53.23-.8-.3-1-.96-.36-1.88-.91-2.99-.36-.38.19-.89.36-1.29-.12-.38-.46-.09-.89.01-1.33.25-1.02.67-1.98.98-2.98.63-2.06,1.16-4.16,1.85-6.2.3-.9.41-1.82.5-2.7.2-2.08.59-4.14.67-6.24.05-1.33.28-2.66.32-4.01.09-2.87-.13-5.72-.39-8.58-.36-3.98-.78-7.94-1.92-11.8-1.23-4.12-3.07-7.94-5.24-11.63.05-.03.09-.06.14-.09l-.15-.07h-.01c0-.28-.09-.47-.37-.55-.08-.14-.16-.28-.24-.42.1-.3-.11-.34-.32-.37-1.33-2.7-3.16-5.07-4.92-7.48-2.23-3.04-4.15-6.35-6.81-9.04-4.22-4.28-9.44-7.2-14.63-10.1-2.17-1.21-4.65-1.73-7-2.52-2.16-.73-4.33-.59-6.52-.35-.24-.07-.39.06-.5.25.14.09.28.18.41.27,1.17.15,2.34.31,3.44.79,2.48,1.1,5.07,1.97,7.42,3.36,8.13,4.79,14.64,11.22,19.69,19.18,1.71,2.7,2.89,5.66,4.37,8.48-.04.13.03.16.14.15,1.56,2.99,2.78,6.12,4.06,9.23.98,2.37,1.6,4.84,2.35,7.27.72,2.33.57,4.8,1.11,7.18.44,1.98.42,4.06.41,6.11-.01,3.82-.19,7.62-.82,11.42-.27,1.61-.5,3.28-.74,4.91-.39,2.66-1.06,5.3-1.83,7.88-.94,3.15-2.08,6.24-3.5,9.21-1.71,3.58-4.22,6.58-6.83,9.52-1.58,1.79-3.6,3.06-5.38,4.61-.36.28-.99.15-1.13.76-.1.03-.2.07-.17.21Zm67.43,52.77h0c.06.21.21.31.42.34,1.65,1.27,3.04,2.77,4.17,4.53-.01.41.27.53.59.62.13.56.76.72.95,1.24.33.88,1.03.98,1.81.77,1.18-.31,2.38-.27,3.56-.14,4.52.52,8.97-.02,13.4-.88,1.78-.35,3.46-1.02,5.16-1.6,1.91-.66,3.72-1.54,5.54-2.37,1.51-.69,2.87-1.73,4.32-2.57,1.9-1.1,3.66-2.45,5.51-3.66,2.82-1.85,5.44-3.96,7.99-6.16,2.29-1.97,4.25-4.24,6.03-6.67.47-.65.78-1.38,1.23-2.03.32-.46,1.14-1.23.55-1.87-1.08-1.16-.44-2.4-.39-3.6.07-1.71.87-3.26,1.21-4.92.16-.07.17-.22.2-.36.06-.07.11-.14.17-.2.31-1.31,1.09-2.39,1.72-3.54.27-.5.59-.98,1.16-1.19.94-.36,1.59-1.25,1.42-2.15-.14-.72.07-1.44.21-2.06.26-1.08.53-2.27.48-3.25-.12-2.21.37-4.36.23-6.54-.11-1.76-.17-3.53-.26-5.37-.39.34-.26.71-.26,1.03-.01,2.04-.33,4.04-.62,6.06-.24,1.72-.58,3.4-1.02,5.06-.33,1.25-.4,2.59-1.02,3.75-1.22,2.29-1.72,4.86-2.99,7.14-1.05,1.89-1.9,3.89-3.23,5.63-.57.75-1.26,1.45-1.45,2.44-.27.1-.14.33-.18.51-.27.02-.36.2-.41.43-.19.08-.32.21-.37.42-.34.23-.84.32-.77.9-.87,1.25-2.17,2.11-3.06,3.36-.45.63-1.03,1.21-1.65,1.67-3.1,2.34-6.38,4.42-9.59,6.6-2.97,2.01-6.22,3.35-9.55,4.57-1.29.47-2.69.66-3.96,1.19-2.6,1.09-5.38,1.43-8.08,2.08-1.79.43-3.66.58-5.51.67-4.04.2-8.1.69-12.14-.03-.13-.38-.32-.34-.54-.07-.31-.04-.63-.08-.94-.12-.12-.04-.28-.06-.31.07-.05.18.1.26.27.29Zm5.89,9.62v-.02c.01-.28-.11-.46-.38-.55-1.84-2.79-3.74-5.53-6.45-7.58-.08-.28-.05-.66-.53-.53-1-.71-1.99-1.42-3-2.12-1.55-1.07-3.26-1.45-5.12-1.05-.38.16-.76.32-1.14.48-1.6.15-2.95.93-4.06,1.96-.8.74-1.11,1.93-1.55,2.96-.37.5-.55,1.06-.55,1.68-.04,1.07-.19,2.14.08,3.2-.02.35.14.4.41.23,3.04.9,6.1.45,9.13-.01.75-.11,1.23-.02,1.48.71.13.38.26.77.4,1.15-.05.22.03.33.26.32-.16.25.03.43.12.63-.04.13.03.16.14.16.04.07.08.14.12.2-.02.67.12,1.31.49,1.88.04.13.08.26.12.39-.12.38-.53.81.15,1.08-.03.15-.06.29-.08.44,0,.44,0,.89,0,1.33-.07,1.82-1.32,2.77-2.68,3.65-.28.05-.35.26-.39.5-.12.08-.25.16-.37.24-.5.15-1.11,0-1.48.53-.39.08-.78.16-1.16.25-.04.01-.08.03-.13.04.04.03.08.06.12.08.69,1.35,1.65,2.51,2.47,3.77.26.49.54.96,1.13,1.12.38.38.76.77,1.14,1.15.1.25.3.35.55.39.07.06.14.12.21.17.11.23.3.36.56.38h0c.12.23.31.35.56.38h0c.11.24.3.36.56.38.96.57,1.92,1.14,2.87,1.71,0,.11,0,.18.14.1l.22.07c.08.27.28.37.54.36,1.09.54,2.22.94,3.42,1.14,2.19.36,4.4.11,6.59.17.66.05,1.31.02,1.86-.42,1.55-.12,2.99-.67,4.46-1.09,1.46-.41,2.62-1.35,3.86-2.14,2.48-1.6,5-3.11,6.97-5.42,1.9-2.22,4.01-4.27,6.11-6.3,2.04-1.97,4.01-4.02,6.34-5.71,1.09-.79,2.05-1.79,3.25-2.48.43-.24.9-.52,1.27-.85,1.7-1.53,3.73-2.48,5.8-3.34,2.09-.86,4.3-1.43,6.4-2.29,1.57-.65,3.2-1.16,4.75-1.86,1.32-.6,2.6-1.28,4.03-1.61,2.36-.54,4.7-1.21,7.13-1.42.48-.04,1.23.24,1.38-.17.2-.54-.49-.94-.84-1.36-2.15-2.63-3.95-5.41-4.45-8.88-.23-1.62-.34-3.23-.31-4.86,0-.31.08-.64-.15-.91-.53-.64-.9-1.34-1.06-2.18-.1-.53-.67-.8-1.1-.95-.45-.16-.49.45-.66.73-.54.9-1.27,1.27-2.3,1.02-.37-.09-.63-.14-.91.33-1.01,1.71-1.84,3.49-3.29,4.98-1.59,1.64-2.9,3.58-4.61,5.13-.47.42-.36.64.03,1.03.71.7,1.54,1.3,2.11,2.14.32.46.64.97.08,1.41-.51.4-.94.04-1.29-.36-.52-.59-1.04-1.18-1.57-1.77-.97-1.09-1.14-1.03-2.2-.08-1.67,1.5-3.37,3.06-5.36,4.06-2.15,1.08-3.79,2.86-5.99,3.83-1.57.69-2.84,1.94-4.4,2.67-.27.13-.61.17-.76.48.71.57,1.41,1.14,2.11,1.69.36.28.44.62.18.99-.29.41-.69.41-1.08.15-.5-.33-1-.66-1.46-1.04-1.32-1.11-2.79-.88-4.06-.14-1.81,1.05-3.82,1.36-5.77,1.88-1.87.5-3.86.4-5.73.96-.12.03-.25.01-.38.02-1.78.17-3.57.23-5.35.25-.19-.03-.38-.11-.57.03.16.18.33.29.55.3,1.31.99,2.78,1.74,4.03,2.81.06.27.27.35.52.38.94.63,1.87,1.3,2.69,2.08-.03.12.01.17.14.13.77.52,1.38,1.2,1.91,1.95-.03.42.29.53.57.69.27.53,1.09,1.08.3,1.67-.74.56-1.28-.11-1.69-.68-1.21-1.69-2.87-2.89-4.48-4.14-2.63-2.04-5.36-3.93-8.53-5.06-.47-.17-.97-.38-1.58-.06.49.79.96,1.55,1.43,2.31-.03.27.15.39.37.48.21.6.64,1.06.96,1.59.18.59.35,1.19.72,1.69l.06.39c.08.6.16,1.19.54,1.69.04.13.08.26.12.38-.02.52-.42.79-.7,1.15-.76-.06-1.02-.63-1.15-1.25-.39-1.8-1.03-3.48-2.12-4.98.05-.28-.17-.3-.35-.36-.46-.77-.92-1.53-1.37-2.3.08-.3-.11-.43-.33-.55ZM30.22,142.17h0c.11.24.3.37.56.39,1.22.82,2.43,1.63,3.65,2.45.18.37.53.48.89.57h0c.24.31.56.5.95.56.06.19.22.18.37.2.03.08.05.19.18.1.08.03.15.05.23.08,0,.11.01.19.16.13,2.49,1.28,5.08,2.32,7.81,2.96.28.35.69.36,1.08.42.19.02.38.05.57.07.05.23.21.2.37.17.78.02,1.51.23,2.25.46.57.18,1.15.35,1.8.3,1.54-.11,3.1-.14,4.64-.2.21,0,.47.13.55-.21.32-.06.64-.11.96-.17.21.01.44.09.56-.18.35.07.59-.34.95-.21.16.03.31.01.37-.18.26-.03.56.16.77-.14.19-.06.45.03.55-.24.07,0,.13,0,.2,0,.17.03.31,0,.37-.18.07,0,.13,0,.2-.01.13.03.17-.04.16-.15l1.72-.6c.29.06.41-.17.57-.34.06-.01.13-.02.19-.03.13.03.17-.05.19-.15,1.07-.52,2.13-1.04,3.2-1.55.29.05.45-.11.56-.35.13-.08.26-.17.39-.25.29.09.32-.12.37-.31,1.16-.57,2.16-1.38,3.22-2.09.34-.03.49-.26.57-.55,1.9-1.45,3.46-3.24,4.92-5.12.32-.05.54-.19.53-.55,1.86-2.32,3.45-4.8,4.58-7.56.24-.12.41-.27.31-.57.04-.27.08-.53.27-.75.1-.02.19-.06.13-.19.19-1.42,1.19-2.57,1.33-4,.08-.77.4-1.42.74-2.09.28-.55.45-1.2.47-1.81.04-1.04.37-2.01.57-3.01.31-1.6.78-3.17,1.09-4.77.32-1.68.42-3.39.64-5.08.51-3.92.54-7.83.39-11.76-.06-1.47-.65-2.88-.43-4.36.1-.69-.06-1.38-.23-1.97-.53-1.88-.88-3.8-1.38-5.68-.68-2.52-1.64-4.91-2.49-7.35-.54-1.56-1.34-3.01-2.1-4.48-1.2-2.31-2.18-4.74-3.39-7.05-4.14-7.92-9.82-14.53-17.15-19.67-6.14-4.31-12.74-7.37-20.47-7.17-.44.01-.89-.08-1.31.1-2.05.87-4.17,1.6-6.12,2.71-.36.06-.67.22-.9.51l-.04.02c-1.5.62-2.85,1.51-4.16,2.44-.39-.01-.71.12-1.03.35-1.59,1.14-3.13,2.34-4.57,3.66-2.56,2.35-4.99,4.77-6.8,7.79-2.56,4.26-3.51,9.12-5.3,13.66-.47,1.18-.64,2.54-.98,3.82-.63,2.38-1.3,4.75-1.71,7.18-.43,1.03-.61,2.1-.52,3.21-.15,1.67-.39,3.35-.43,5.02-.11,3.91-.17,7.83.55,11.71.13.7.13,1.51.34,2.1.43,1.21.56,2.44.85,3.66-.06.17-.08.33.16.37.01.13.02.26.04.39-.09.33-.1.64.3.78.06.31.1.62.18.92.39,1.52.79,3.03,1.18,4.54-.03.17-.04.34.2.36.01.13.02.27.03.4-.08.14.01.15.12.15.02.14.04.28.07.41-.07.14.01.16.12.16.07.26.14.52.22.78-.08.54.29.89.54,1.29.05.07.09.15.14.22-.2.3.04.43.22.57,0,.75,1,1.21.6,2.07.18.24.36.48.55.72.1.2.21.4.31.6-.13.28-.14.51.25.57l.03.19c0,.3.1.55.36.72.76,1.52,1.52,3.05,2.28,4.57,0,.27.11.45.37.53,1.61,2.55,3.3,5.03,5.14,7.42-.08.55.4.67.71.91.44.45.89.9,1.33,1.35.03.36.24.58.56.71.02.13.09.2.21.23.06.29.29.35.53.37.45.45.89.89,1.34,1.34.16.3.41.49.73.58h0c.03.09.06.18.19.14.53.4,1.05.79,1.58,1.19-.03.11,0,.16.12.1.13.09.26.18.4.27.11.24.3.36.56.38Zm47.76,32.35c.07-.27-.04-.4-.32-.39-.6-.79-1.23-1.56-2.1-2.09-.06-.31-.11-.62-.55-.55-.05-.2-.23-.18-.38-.21-.24-.61-.81-.59-1.32-.67-1.16-.19-2.21-.75-3.46-.7-1.12.05-2.21-.39-3.39-.4-1.25-.01-2.49-.08-3.73.14-.44.14-1,0-1.3.5-.88.12-1.66.39-2.31,1.06-1.06,1.09-1.84,2.33-2.28,3.78-.48.36-.5.87-.45,1.4.02.12.04.24.06.36-.2.53.2.34.42.35.61.02.73.53.92.94.84,1.76,1.89,3.37,3.26,4.76,0,.25.12.37.36.36.95.96,2.18,1.59,3.03,2.67-.05.43.31.53.57.71.01.13.08.21.21.23.07.21.06.48.35.54.43.65.79,1.32.82,2.12-.07.13.02.16.12.18.31,2.03.22,4.09.34,6.13-.46.25-.3.67-.3,1.05.03.15.06.29.1.44-.5.27-.29.69-.24,1.08.01.14.02.28.03.42-.45.12-.27.44-.22.71.15.58-.51,1.09-.09,1.7,1.12,1.66,2.4,3.21,3.93,4.45,1.42,1.16,2.49,2.69,4.05,3.67-.02.12.05.17.16.17h0c.23.36.53.62.93.77.07.06.13.12.2.18.17.29.42.49.75.57,2.24,1.76,4.79,2.92,7.47,3.81.24.41.66.39,1.04.47.07.02.13.04.2.06,0,.1.03.18.17.13.75.15,1.5.3,2.25.46.39.55,1.01.39,1.54.48.19.02.38.03.57.05.16.37.36.14.56.05.38.17.8.12,1.2.14,2.19.1,4.36-.15,6.54-.2.38,0,.81.17,1.04-.31,1.26-.01,2.43-.57,3.69-.64.22.02.44.07.55-.2h.2c.19.03.35.02.34-.24.96-.25,1.91-.49,2.87-.74.22.09.43.12.56-.14.07,0,.13,0,.2-.01.27.08.39-.1.5-.29,2.71-.72,5.2-2.02,7.82-2.97.41.02.73-.12.95-.48.13-.03.25-.06.38-.09.41.03.72-.13.94-.48.58-.16,1.13-.34.94-1.14.4-.31.1-.48-.13-.67-.01-1.16-.04-2.32-.03-3.48,0-.35-.06-.64-.4-.75-1.43-.46-2.62-1.38-4-1.94-1.14-.46-2.17-1.13-3.15-1.87-1.07-.82-2.16-1.62-3.24-2.43-.13-.37-.24-.75-.75-.72-.19-.16-.39-.31-.57-.49-3.37-3.21-6.43-6.68-9.03-10.55-.31-.47-.6-.79-1.19-.47-.13-.06-.16.02-.16.12-.46.13-.85.38-1.16.76-.46-.09-.55.3-.74.57-.21.22-.41.45-.65.65-.36.31-.29.66.02.85.87.53,1.46,1.35,2.2,1.99,2.26,1.96,3.69,4.47,5.02,7.07.24.47.27.96-.23,1.24-.54.3-.98,0-1.26-.47-.37-.62-.68-1.26-1.02-1.89.08-.29-.09-.44-.33-.54-1.28-2.21-3.03-4.02-4.92-5.7-.1-.39-.23-.75-.74-.72-.13-.08-.26-.15-.39-.23-.05-.32-.19-.54-.55-.53l-2.1-1.55c-.08-.29-.07-.66-.55-.52-.32-.21-.64-.41-.96-.62,0-.11-.04-.18-.17-.14-1.15-.51-2.16-1.31-3.46-1.76.07.49.11.86.18,1.22.44,2.08.39,4.21.64,6.31.07.57-.08,1.13-.8,1.16-.64.03-.9-.49-.9-1.01-.01-1.57-.61-3.08-.4-4.66.4-.36.06-.54-.18-.75-.04-.37-.05-.75-.13-1.12-.64-3.24-1.84-6.26-3.53-9.09.08-.29-.08-.44-.32-.53-.08-.14-.16-.28-.24-.42.08-.3-.04-.46-.34-.51l-.04-.04Zm-43.78-1.17c.25.4.7.49,1.07.71.34.14.68.29,1.02.43.19.38.56.48.92.56.88.52,1.77,1.04,2.64,1.57,2.8,1.72,5.15,4.16,8.36,5.24,0,.11,0,.19.15.12,1.27.26,2.42.98,3.75,1.04.1.31.32.38.61.32.38.01.76.02,1.14.04.23.34.56.41.94.34h.94c.12.02.17-.02.13-.15-.3-1.14-.6-2.27-.9-3.41.4-.36.04-.53-.18-.74v-.58c.27-.22.31-.4-.09-.52-.07-.56-.23-1.14-.06-1.68.33-.98.48-2,.93-2.97.84-1.8,1.91-3.35,3.55-4.47.96-.65,2.11-.7,3.19-1,1.43-.4,2.85-.47,4.31-.19.74.14,1.52.23,2.25.3,1.11.11,2.33-.04,3.39.24,2.56.69,4.73,2.13,6.39,4.25.22.28.43.54.84.76-.13-.74-.14-1.39-.4-2-.52-1.23-1.01-2.48-1.58-3.69-1.23-2.61-2.42-5.26-4.06-7.66-.42-.62-.65-1.38-1.38-1.82-.48-.29-.7-.88-.24-1.38.52-.55,1.09-.27,1.46.21.8,1.06,1.51,2.2,2.3,3.28,1.18,1.63,1.9,3.49,2.72,5.3-.05.13.02.16.14.15.05.07.1.15.16.22.04.41-.07.87.41,1.12.04.07.07.14.11.2.17,1,.38,1.98,1.03,2.8.05.07.1.15.14.22.23,1.29.49,2.56,1.11,3.73.08.57.36,1.18-.32,1.6-.05.02-.1.05-.15.07.02.03.03.05.05.08.03.29.04.58.33.75.03.36.15.65.53.76.57,1.45,1.13,2.9,1.7,4.36.13.22.28.4.57.31.07.02.13.04.2.07,0,.1.03.19.17.12l.23.07c0,.1,0,.2.14.11l.24.08c0,.11,0,.2.14.11l.22.08c0,.11.03.19.16.12.82.3,1.57.74,2.31,1.2.1.26.27.4.55.25,1.76-.47,3.51-.94,5.27-1.41.3.06.43-.13.56-.35.78-.14.65-.53.32-1.05-2.2-3.53-4.19-7.17-5.05-11.29-.33-1.55-.45-3.17-.87-4.66-.66-2.37-.95-4.76-1.23-7.17-.28-2.38-.43-4.77-.3-7.16.02-.36-.07-.53-.46-.5-.62.04-1.26,0-1.87.09-2.1.31-4.18.74-6.22,1.29-.65.18-1.34.04-1.96.34-1.44.7-2.98,1.16-4.51,1.6-1.39.4-2.73.88-3.94,1.66-.61.39-1.24.53-1.87.37-.94-.24-1.89-.23-2.82-.38-1.87-.31-3.74-.29-5.61-.42-1.33-.1-2.68-.02-4.01-.02-.02.26.1.36.21.48,1.38,1.39,2.61,2.89,3.65,4.58,1.22,1.99,1.88,4.18,2.62,6.35.16.48.05.91-.43,1.11-.47.2-.88-.03-1.11-.46-.19-.36-.33-.75-.45-1.14-.74-2.47-1.62-4.86-3.36-6.83-.26-.3-.4-.66-.67-.97-1.34-1.57-3.09-2.57-4.75-3.7-1.05-.71-2.14-1.51-3.34-1.84-1.48-.4-2.95-.9-4.54-.97-2.53-.12-5.05.04-7.55.28-2.2.21-4.22,1.03-6.1,2.27-1.97,1.3-3.2,2.93-3.13,5.37.02.79.04,1.57.06,2.36-.07.45.07.81.43,1.09-.15.24.03.42.13.62-.02.62.41,1.02.71,1.49.21.45.42.9.62,1.35-.02.1-.03.19.12.13.16.23.33.45.48.68.99,1.43,2.11,2.74,3.5,3.79.63.48,1.45.7,2.05,1.26.28.41.66.66,1.16.74h0Zm55.38-25.32c.33-.44.12-.93.19-1.47-.66.95-1.03,2.93-.75,3.73-.35,4.07-.13,8.11.67,12.11.51,2.58,1.05,5.15,1.61,7.72.32,1.49.82,2.92,1.41,4.35,1.43,3.47,3.62,6.48,5.61,9.6,3.03,4.75,6.75,8.94,10.99,12.66.68.6,1.57.91,2.21,1.56,2.03,2.05,4.7,2.9,7.28,3.94.34.14.53,0,.65-.31.78-1.93,1.82-3.65,3.95-4.54-.72-.5-1.38-.69-2.02-.93-2.19-.85-4.34-1.78-6.33-3.06-2.14-1.39-4.38-2.58-6.28-4.38-1.12-1.06-2.52-1.9-3.63-3.03-1.02-1.03-2.04-2.05-3.07-3.07-2.29-2.25-4.51-4.58-5.99-7.49-1.47-2.89-2.87-5.81-3.92-8.89-.54-1.6-1.17-3.18-1.59-4.81-.44-1.72-.82-3.47-.94-5.23-.16-2.41-.06-4.84-.07-7.26,0-.14.03-.28-.14-.34.33-.23.09-.57.18-.85Zm-32.64,32.27c-.05-.14-.11-.29-.3-.24-.03,0-.07.13-.07.14.09.07.19.12.28.18.65,2.81,1.53,5.55,2.85,8.13.71,1.38,1.27,2.83,1.93,4.22.96,2.01,2,3.99,3.03,6.02.7-1.01.34-2.07.5-3.05.23-1.4-.27-2.8-.16-4.22.03-.39.19-.81.1-1.17-.42-1.71-1.39-3.15-2.79-4.13-2.25-1.57-3.86-3.67-5.38-5.87Zm-26.14-35.15c.4.34.91.37,1.4.48-.46-.29-.8-.79-1.4-.83-1.06-1.02-2.35-1.76-3.51-2.65-.82-.63-1.62-1.29-2.4-1.96-1.67-1.46-3.05-3.16-4.46-4.86-2.43-2.92-4.48-6.09-6.27-9.41-1.64-3.04-3-6.21-4.2-9.46-.91-2.45-1.67-4.92-2.35-7.43-1.05-3.82-1.93-7.7-2.3-11.64-.4-4.26-.62-8.54.23-12.81.11-.54.32-1.23.21-1.73-.18-.81,0-1.58.14-2.28.58-2.81,1.27-5.6,2.03-8.38.84-3.08,1.77-6.13,2.71-9.18,1.04-3.4,2.36-6.65,4.38-9.63,1.77-2.61,3.97-4.8,6.25-6.9,2.56-2.36,5.42-4.37,8.41-6.18,1.36-.7,2.72-1.41,4.09-2.11-1.46.5-2.95.94-4.28,1.76-.09.02-.19.02-.27.06-6.61,3.56-12.76,7.62-16.81,14.24-1.01,1.64-2.03,3.29-3.08,4.91-.97,1.5-1.47,3.22-2.27,4.81-.47.93-.77,1.94-1.16,2.92-.58,1.46-.84,3.02-1.32,4.49-.61,1.86-.95,3.77-1.45,5.64-.75,2.77-.88,5.7-.99,8.55-.16,4.34-.3,8.7.31,13.05.19,1.36.35,2.75.67,4.07,1.01,4.17,2.14,8.31,3.41,12.41,1.06,3.41,2.3,6.75,3.71,10.01.96,2.22,2.06,4.44,3.6,6.38.5.63.8,1.37,1.42,1.95,1.35,1.26,2.61,2.6,4.03,3.78,1.23,1.03,2.28,2.26,3.54,3.26,2.44,1.94,5.13,3.43,7.98,4.67Zm184.69,54.26c.13.08.25.15.38.23.13.22.25.44.57.29.06.03.13.06.19.09,0,.11.05.18.18.16.06.01.13.02.19.04.03.08.05.2.18.1.08.02.15.05.23.07.19.38.52.5.92.5.44.15.87.32,1.32.46,3.42,1.07,6.73.55,9.87-.95,3.15-1.51,5.67-3.74,7.14-7,.11-.01.18-.06.15-.19.09-.33.07-.67.13-1,.21-1.21.81-2.33.73-3.6.23-.2.52-.39.11-.69.05-.62.15-1.25.14-1.87-.02-.95.27-1.92-.18-2.85-.03-.05-.05-.11-.06-.17.24-1.82-.59-3.52-.57-5.32,0-.62-.13-1.31-.41-1.86-.97-1.93-2.12-3.76-3.72-5.26-.29-.27-.44-.81-.76-.91-1.62-.51-2.86-1.7-4.42-2.34-2.46-1-4.94-1.55-7.59-1.33-1.08.09-2.17.28-3.07.78-1.53.84-3.29,1.4-4.32,2.98-.05.08-.14.13-.21.18-.52.32-1,.61-1.49-.11-.31-.46-1.01-.33-1.24.16-.19.4-.36.8-.54,1.2-.41.89-1.05,1.13-1.78.56-.7-.55-1.42-1.06-2.21-1.48-.39-.21-.83-.55-.74-1.08.1-.56-.22-.96-.42-1.36-.34-.67-1.14-.64-1.55,0-.96,1.49-1.53,3.15-2.09,4.82-.55,1.63-1.08,3.25-.98,5.02.04.77.59.92,1.08,1.1.52.19.85-.14,1.09-.62.28-.56.64-1.07,1.27-1.29.25.01.51.02.76.04,1.37.63,2.76,1.23,2.87,3.06,0,.14.11.32.22.41.8.64.75,1.51.72,2.4-.03.75-.08,1.52,0,2.26.32,2.99.92,5.9,2.84,8.35-.08.44.28.54.55.69.69,1.13,1.78,1.94,2.44,3.09,0,.26.15.43.38.52.06.08.12.16.17.24.41.59,1.14.85,1.52,1.47Zm-122.83-37.03c.12.45.24.89.36,1.34.16.6.25,1.23.72,1.71.01.12.02.25.03.37-.09.38.15.64.36.91l.14.22c-.1.47.02.85.41,1.14.01.13.02.25.04.38-.03.18-.02.33.21.36-.08.24.11.4.19.59-.05.13.03.16.14.16.04.07.09.14.13.21-.11.33.03.56.29.74-.08.24.11.4.2.59-.04.13.03.17.14.16.4,1.05,1.11,1.95,1.37,3.06-.04.13.03.16.14.15.53,1.22,1.34,2.27,2.16,3.29,1.27,1.59,2.46,3.25,4.13,4.47.04.3.26.36.51.38.32.32.64.64.96.96.02.37.25.57.56.72.37.53.8,1,1.36,1.35.18.39.49.64.89.78.09.18.21.31.4.36.26.31.45.71.92.77.9.69,1.8,1.39,2.7,2.08-.02.11,0,.17.13.1.07.03.14.05.22.08,0,.11.04.18.17.14,1.56.91,3.11,1.82,4.67,2.72.13.4.45.49.82.49,2.03.86,4.06,1.72,6.08,2.6.98.42,1.93.59,3.01.28,1.71-.5,3.49-.42,5.04.47,1.93,1.1,4.03,1.41,6.13,1.56,3.44.24,6.9.38,10.36.22.37,0,.75.08,1.09,0,.25-.06.68.41.78-.21.26,0,.52.01.78.02.35.08.71-.04,1.07.17.27.16.44-.06.42-.38.69-.25,1.42.17,2.1-.16.21,0,.45.13.56-.18.19,0,.38,0,.57-.01.26-.03.61.2.71-.26.14.02.28.05.42.07.21,0,.49.13.53-.24.71-.11,1.41-.21,2.12-.32.17.03.33.06.37-.18.38-.07.74-.28,1.14-.2.32-.07.63-.14.95-.2.12.05.16-.03.19-.12.13-.02.25-.04.38-.07.12.05.16-.03.19-.12.26-.03.44-.17.56-.39.13-.02.25-.04.38-.06.22.06.43.11.56-.16.07,0,.13,0,.2-.01.34.09.54-.13.74-.34.13,0,.26-.02.39-.03.13.03.17-.05.19-.15.57-.14,1.13-.28,1.7-.42.12.02.17-.04.18-.15.56.08.94-.53,1.51-.42.33-.15.85.03.95-.53,1.07-.47,2.14-.94,3.21-1.4.52-.06.96-.27,1.28-.69.14-.07.28-.13.42-.2.28.03.46-.1.54-.36.13-.07.27-.15.4-.22.56-.19,1.19-.26,1.45-.91.69-.65,1.57-1,2.33-1.54.38-.23,1.08.04,1.1-.73,1.21-.82,2.42-1.63,3.63-2.45.19-.08.56.06.45-.38.48-.45.95-.91,1.43-1.36.24-.12.42-.29.54-.53.86-.73,1.54-1.63,2.3-2.46.53-.1.83-.41.91-.94,1.37-1.54,2.43-3.31,3.63-4.98.25-.08.36-.25.33-.51,1.24-1.9,2.31-3.89,3.14-6.01.68-1.74,1.45-3.43,2.19-5.15.19-.08.22-.2.12-.38.15-.5.31-1.01.46-1.51.25-.19.42-.41.34-.75.26-1.33.53-2.65.79-3.98.05-.19.62-.2.19-.55.12-.79.43-1.55.42-2.36.25-.18.53-.35.14-.66-.12-.83.59-1.64.07-2.49,0-.05,0-.09.01-.14.45-1.31.19-2.66.25-4,.02-.45.12-.95-.25-1.34,0-.05-.01-.09-.01-.14.23-.35.25-.81.18-1.13-.41-2.04-.5-4.14-1.2-6.12.05-.02.09-.04.14-.06-.05-.01-.09-.03-.14-.04-.22-.5-.43-1-.43-1.56.13-.35-.08-.55-.32-.73-.12-.45-.24-.9-.35-1.35.41-.36-.13-.38-.21-.56-.71-2.73-1.81-5.3-3.35-7.66-2.21-3.37-4.45-6.72-6.9-9.93.01-.37-.25-.47-.53-.55-.2-.26-.4-.52-.6-.78.02-.38-.23-.48-.53-.54-.75-.9-1.56-1.75-2.48-2.48-.07-.29-.07-.65-.54-.53-.95-.7-1.62-1.71-2.66-2.31-.08-.29-.08-.66-.55-.51-1.07-.59-2.15-1.17-3.22-1.76-.04-.2-.08-.41-.37-.31-.32-.15-.63-.3-.95-.45-.04-.21-.08-.42-.38-.32-.52-.29-.98-.66-1.47-1.01-1.58-1.13-3.21-2.2-5.15-2.65-.18-.27-.39-.47-.75-.32-.24-.06-.48-.11-.72-.19-2.18-.73-4.36-1.48-6.66-1.75-.21-.22-.38-.58-.74-.19-.22-.06-.44-.12-.65-.18,0-.04,0-.09-.01-.13,0,.04-.01.09-.02.13-.28,0-.55-.01-.83-.02-.18-.06-.21-.62-.56-.18l-4.36-.56c-.12-.26-.24-.27-.36,0-2.14-.32-4.27-.62-6.43-.2-1.04.21-2.09.03-3.12.06-2.08.05-4.14.39-6.22.48-1.19.05-2.35.2-3.51.46-.26-.07-.35.1-.42.3-.42-.11-.72.25-1.12.28-.96.08-1.93.17-2.83.51-1.49.56-2.96,1.17-4.52,1.53-.16-.03-.31-.02-.37.17-.46.23-.89.84-1.19.85-1.69.02-2.84,1.27-4.32,1.7-1.4.41-2.62,1.22-3.95,1.79-.24.06-.6-.07-.59.38-.86.66-1.8,1.18-2.81,1.56-.45-.11-.59.21-.73.52-1.17.78-2.4,1.48-3.43,2.45-.49.03-.67.45-.93.77-.2.05-.31.19-.4.37-.46.05-.71.3-.76.76-.23.15-.45.32-.55.6-.34.24-.85.33-.75.92-.06.08-.12.16-.19.24-.29.15-.67.23-.58.7-.61.54-1.23,1.07-1.69,1.76-.55-.07-.5.37-.59.69-.26.11-.3.35-.33.58-.39.1-.35.45-.42.74-.62.9-1.25,1.81-1.87,2.71-.22.1-.37.25-.37.51-.75.92-1.06,2.1-1.73,3.06-.12-.02-.17.02-.13.14-.08.13-.16.26-.22.4-1.48,3.26-2.68,6.63-3.8,10.02-.1,0-.2.02-.12.16-.01.13-.02.27-.03.4-.24.02-.23.19-.2.36-.09.46-.16.93-.26,1.39-.43,1.97-.93,3.92-1.12,5.93-.58.75-.4,1.66-.51,2.51.01.31.02.63.03.94,0,.32-.01.64-.02.95-.4,4.52-.49,9.01.86,13.41-.29.47.18.75.28,1.12Zm51.85-66.75c-1.09-1.64-2.43-2.8-4.21-2.88-1.22-.05-2.35-.37-3.51-.58-2.93-.53-5.61-1.88-8.42-2.79-3.79-1.23-7.58-2.5-11.28-3.98-2.69-1.07-5.45-1.76-8.28-2.07-2.46-.27-4.81-.98-7.23-1.4-2.07-.36-4.05-1.09-6.09-1.83,0,.45-.07.81.01,1.13.75,2.97,1.08,6.01,1.41,9.04.43,3.85.64,7.71.31,11.59-.09,1.1-.54,2.11-.49,3.25.04.85.22,1.17,1.11,1.13,2.94-.15,5.87-.3,8.8-.57,1.82-.17,3.61-.53,5.44-.6.86-.03,1.82-.15,2.55-.55,5.47-3.06,11.2-5.43,17.2-7.23,2.71-.81,5.49-1.05,8.25-1.46,1.41-.21,2.82-.17,4.43-.19Zm-60.7,43.56c-.89,1.45-2.2,2.47-3.41,3.55-1.58,1.41-3.35,2.58-5.23,3.56-3.05,1.59-6.04,3.25-9.44,4.1-2.33.59-4.46,1.95-6.88,2.32-2.33.35-4.68.5-7.01.02-.66-.13-1.29.12-1.96-.01.69.31,1.09,1.04,1.96,1.02,2.3-.06,4.6-.11,6.89-.04,2.12.07,4.25.16,6.34.71.69.18,1.64.23,2.36-.15,2.57-1.36,5.33-2.22,8.09-3.05,2.26-.68,4.53-1.36,6.93-1.56,1.5-.13,2.97-.69,4.51-.52.35.04.56-.25.55-.38-.06-.92.36-1.76.36-2.66,0-.29-.15-.57-.43-.49-1.19.33-1.93-.55-2.79-1.03-.89-.49-1.47-2.34-1.04-3.26.33-.71.12-1.39.19-2.13Zm26.71-32.37c-.63.09-1.04.29-1.29.16-.83-.4-1.57.19-2.39.16-.85-.03-1.82.32-2.73.39-2.1.17-4.21.19-6.32.25-1.02.03-1.51.54-1.6,1.56-.19,2.02-.64,3.99-1.2,5.93-.12.42-.16.41-.14.83.61-.69,1.32-1.03,2.25-1.02,1.18.01,2.29.22,3.31.81.49.28.78.2,1.07-.27.29-.48.7-.85,1.21-1.14.52-.3,1.03-.75,1.37-1.24.85-1.26,1.75-2.45,2.92-3.43,1.11-.94,2.22-1.88,3.53-2.99Zm10.41,103.24c0,.9.4,1.66.72,2.35,1.11,2.37,2.39,4.66,3.62,6.97.12.22.21.51.6.51,2.06,0,3.74-.66,5.09-2.35,1.07-1.35.49-2.77.47-4.12-.02-.96-.68-1.92-1.04-2.88-.27-.73-.63-1.13-1.46-.62-.27.16-.67.11-1.02.14-2.32.2-4.63.34-6.98,0Zm-33.38-73.75c-.7-.18-.99.15-1.12.78-.28,1.26-1.14,2.34-1.16,3.7,0,.44.05.65.53.61.92-.07,1.76.3,2.6.59.49.16.64.1.81-.36.36-1,.6-2.04,1.07-3,.16-.34.14-.76-.15-1.14-.66-.9-1.68-.89-2.58-1.17Zm6.62-15.28c.87.39,1.75.71,2.57,1.16.36.2.4.17.6-.15.87-1.43,1.78-2.84,2.7-4.23.17-.25.16-.45-.09-.5-.78-.15-1.43-.68-2.23-.71-.65-.02-1.34-.08-1.72.65-.65,1.25-1.32,2.49-1.81,3.79Zm.24,63.64c-.02-.07-.03-.14-.05-.21-1.39.38-2.78.76-4.29,1.18.49.4.87.71,1.26,1.02.22.17.48.18.69,0,.8-.66,1.59-1.32,2.39-1.99Zm-8.98-41.7c1.1,1.21,1.71,1.33,2.82.66-.87-.41-1.73-.7-2.82-.66Zm-31.84,12.31l-.04.05h.07s-.03-.05-.03-.05Z"/><path class="cls-1" d="m145.89,72.61c-.04.4-.23.76-.44,1.11-2.76,4.48-4.83,9.31-7.06,14.06-.09.2-.16.41-.28.6-.28.45-.7.69-1.2.42-.48-.26-.44-.71-.23-1.15,1.72-3.64,3.22-7.38,5.09-10.94.82-1.56,1.72-3.07,2.58-4.61.23-.42.58-.59,1.02-.43.42.14.51.52.51.94Z"/><path class="cls-1" d="m145.14,139.15c.06-.7.12-1.4.19-2.09.27-.12.27-.24,0-.36.06-.51.11-1.02.17-1.53.32-.17.31-.35.02-.55.19-2.8.36-5.61.58-8.41.06-.74-.16-1.04-.89-1.17-1.51-.28-1.67-.69-1.03-2.11.89-2,2.33-3.62,3.75-5.24.63-.72,1.38-.56,1.76.36.71,1.7,1.68,3.23,2.71,4.74.32.47.73.92.41,1.54-.3.58-.88.5-1.42.52-.19,0-.37.04-.56.07-.7.13-.26.67-.35,1.01.11,3.11-.54,6.18-.64,9.29-.06,1.99-.29,3.99-.33,5.99-.01.62.19.94.74,1.24,2.77,1.54,4.46,4.89,3.8,7.78-.56,2.48-2.39,3.94-4.61,4.87-.73.31-.88.66-.89,1.37-.01,2.26-.02,4.53-.19,6.79-.24,3.35-.61,6.7-.95,10.04-.05.44.05.65.41.91.9.66,1.94,1.22,2.35,2.37-.05.21-.21.43.11.57v.76c.02.25.02.51.02.76-.13.27-.33.47-.6.6-.16-.02-.33-.05-.37.18-.79.04-1.3-.54-1.9-.88-1.02-.58-2.07-.79-3.22-.57-.14-.09-.15,0-.15.11-.07.02-.15.04-.22.06-.13-.06-.16.02-.18.12-.07.02-.13.04-.2.06-.13-.05-.17.03-.18.13-.07.02-.13.04-.2.05-.13-.05-.17.03-.18.13-.81.22-1.58.65-2.46.38-.1-.26-.31-.35-.56-.38h0c0-.26-.19-.31-.39-.35-.13-.45-.39-.91,0-1.36.27-.08.34-.31.39-.54h0c.26,0,.3-.2.33-.4.81-.66,1.65-1.29,2.63-1.67.38-.15.39-.41.42-.73.04-.4.11-.79.16-1.19.33-.17.31-.35.03-.55-.07-.53.09-1.04.2-1.55.05-.02.1-.04.15-.07-.05-.03-.1-.05-.15-.08-.11-.72.11-1.41.16-2.11.32-.17.31-.36.02-.55.22-3.08.22-6.16.18-9.24-.01-1-.14-2-.16-3.01,0-.42-.26-.51-.55-.65-.84-.41-1.62-.92-2.34-1.54-2.16-1.87-2.31-6.91-.37-8.55.09-.08.14-.2.21-.3.23-.01.35-.12.35-.36,1.11-.97,2.17-2,3.53-2.66.55-.27.25-1.01.45-1.5.31-.18.3-.36.01-.55Zm3.38-19.28c-.04-.13-.07-.13-.1,0-1.01,1-1.85,2.11-2.34,3.47,1.49.23,1.78.56,1.75,2.06-.02,1.06-.11,2.12-.17,3.18-.44.59-.12,1.25-.19,1.88-.03.49-.25,1.03-.18,1.46.24,1.48-.24,2.88-.34,4.31-.12,1.75-.37,3.5-.43,5.26-.02.72-.29.94-.89,1.12-2.11.66-3.71,2.13-4.51,4.04-1.13,2.71.19,5.48,3.04,6.49.73.26,1.3.59,1.2,1.52-.06.56.02,1.13.03,1.7.04.38-.23.8.17,1.13.04,1.13.11,2.26.12,3.4.04,4.2-.38,8.37-.71,12.56-.1,1.34-.49,2.34-1.99,2.69-.6.14-1.17.59-1.58,1.22,2.05-.99,4.11-1.78,6.37-.59-.34-.65-.86-1.03-1.43-1.28-.72-.33-.97-.84-.84-1.58.19-1.05.31-2.1.4-3.16.28-3.45.67-6.89.77-10.36.05-1.63.08-3.26.17-4.88.05-.87.4-1.62,1.49-1.86,1.21-.27,2.25-.98,3.04-1.96.5-.61.95-1.29.95-2.15,0-2.65-.94-4.75-3.5-5.89-.75-.34-1.1-.93-1.06-1.8.1-2.6.25-5.21.33-7.81.1-3.28.82-6.48.81-9.76,0-.56.22-.99.88-.98.72.01.5-.35.27-.68-.6-.86-1.1-1.78-1.54-2.73Z"/><path class="cls-1" d="m139.1,107.56c5.32-.97,10.61-.93,15.89.35,3.39.82,6.83,1.47,10.04,2.89,4.63,2.04,9.03,4.45,12.67,8.05,1.96,1.95,3.42,4.26,4.64,6.73,1.58,3.18,3.34,6.27,4.12,9.79.14.62.14,1.25.16,1.88.01.48-.16.9-.71.94-.59.04-.83-.36-.91-.88-.08-.53-.1-1.07-.24-1.59-.61-2.29-1.43-4.49-2.66-6.54-.42-.71-.67-1.54-1.02-2.3-2.36-5.19-6.22-8.93-11.13-11.69-3.11-1.75-6.28-3.35-9.75-4.23-3.39-.87-6.77-1.78-10.24-2.26-.78-.11-1.57-.1-2.35.05-.06,0-.13,0-.19.01-1.34,0-2.66,0-4,.08-1.75.1-3.47.32-5.17.67-2.27.46-4.56.85-6.68,1.9-.81.4-1.68.68-2.47,1.14-.29-.06-.46.08-.56.33-.07.02-.14.04-.2.06-.13-.06-.16.02-.17.13-.35-.03-.52.28-.78.43-.13-.04-.17.03-.17.14-.34-.01-.52.28-.77.43-.13-.04-.17.03-.17.14-.21.08-.42.17-.63.25-.13.08-.29.13-.31.32-.07.02-.14.05-.22.07-.13-.08-.15.02-.19.11-.25.15-.5.29-.76.44-.13-.05-.16.03-.17.14-.07.02-.14.05-.21.07-.13-.06-.16.02-.16.12-.07.03-.15.05-.22.08-.13-.09-.15.02-.18.1-.13.08-.25.16-.38.24-.13-.04-.17.03-.18.14-.07.02-.13.05-.2.07-.13-.07-.16.03-.18.12h0c-.48.1-.88.32-1.13.76-.07.06-.13.12-.2.18l-.18.2h0c-.24.05-.48.1-.57.38-.06.06-.13.12-.19.18-.42.12-.69.43-.94.76-.5.39-.96.81-1.32,1.35-.25.19-.53.37-.54.74-.21.21-.32.54-.68.56-.31.01-.64.07-.84-.26-.16-.27-.19-.54,0-.84.78-1.28,1.82-2.33,3-3.24.26,0,.33-.18.34-.39.2-.14.4-.28.6-.41.13.03.17-.04.17-.15.26-.19.52-.37.78-.56.27.02.35-.15.37-.38.07-.02.13-.03.2-.05.13.04.16-.03.18-.14l7.76-4.54c.14-.03.32.01.38-.19.29-.05.55-.15.76-.37.16-.02.3-.09.35-.26.06.02.13.07.17.05,2.05-1.04,4.22-1.69,6.47-2.1.19.02.35.47.57.03.25,0,.51-.02.76-.02.2,0,.45.13.56-.17Z"/><path class="cls-1" d="m123.97,121.94c2.55-2.07,5.54-3.36,8.49-4.72,1.28-.59,2.66-.93,4-1.24,1.31-.3,2.74-.33,4.12-.48,1.21-.14,2.43-.54,3.6-.64,1.96-.17,3.94-.48,5.93-.31,2.76.23,5.52.34,8.23.98,3.08.73,5.88,2.05,8.47,3.81,5.27,3.6,10.17,7.63,14.13,12.71.21.27.43.55.58.85.24.47.22.95-.27,1.24-.46.27-.83.02-1.14-.35-.99-1.18-1.96-2.39-3-3.52-4.17-4.53-8.91-8.37-14.35-11.25-2.92-1.55-6.13-2.44-9.53-2.39-1.36.02-2.76-.37-4.08-.27-1.61.12-3.28-.16-4.88.5-.87.36-1.93.51-2.87.41-.76-.08-1.35.3-2.08.3-1.72.02-3.44.36-5.13.82-.29-.05-.46.1-.58.34-.31.09-.63.18-.94.26-.13-.06-.16.02-.17.12-.26.09-.52.18-.77.26-.13-.07-.16.01-.17.12-.07.02-.14.04-.21.06-.13-.06-.16.02-.17.13-.07.03-.14.06-.21.09-.11-.06-.13,0-.12.09-.84.4-1.68.8-2.52,1.2-.13-.05-.16.02-.17.13-.34-.01-.51.29-.77.43-.13-.04-.17.03-.17.14v.02c-.25.04-.51.04-.57.36-.94.42-1.67,1.15-2.48,1.76-.13-.07-.16.03-.18.12-.3.27-.8.32-.94.79-.24.03-.48.07-.56.35-.2.07-.34.19-.38.4-.23.04-.48.07-.55.36-.19.06-.32.19-.4.36-.33.09-.57.28-.74.58-.19.06-.31.2-.39.37-.4.14-.69.42-.93.76-.26.12-.44.32-.59.55-.33.09-.57.29-.74.58-.58.44-1.1.94-1.52,1.54-.34.23-.64.5-.77.91-.06.07-.12.14-.18.21-.26.09-.31.33-.36.55-.43.18-.51.64-.77.95-.25.1-.28.35-.34.57-.93.98-1.54,2.13-1.92,3.42-.28.16-.29.47-.38.73-.06.03-.13.05-.19.08-.19,0-.38,0-.58-.01-.59-.73-.46-1.68.38-2.92.11,0,.18-.04.14-.17.61-1.31,1.48-2.44,2.32-3.61.11,0,.18-.05.15-.18.07-.13.15-.26.22-.39.24-.01.36-.11.31-.37,1.15-1.27,2.26-2.57,3.67-3.58.32-.06.49-.27.54-.58.7-.58,1.4-1.15,2.11-1.73.13.03.17-.04.18-.15,1.01-.77,2.02-1.54,3.04-2.31.13.03.17-.04.17-.15Z"/><path class="cls-1" d="m108.3,154.01c.37.03.42.35.48.6,2.13,7.65,6.69,13.75,12.36,19.11,1.81,1.72,4.07,2.86,6.05,4.37.03.1.06.18.19.12.71.46,1.45.9,2.13,1.4.34.25.99.51.65,1.06-.31.5-.89.57-1.48.28-.77-.36-1.48-.81-2.17-1.29-2.85-1.98-5.84-3.76-8.29-6.29-3.57-3.69-6.47-7.84-8.84-12.39-.81-1.55-1.24-3.23-1.95-4.81-.26-.59-.47-1.55.29-2.19.19,0,.39.01.58.02Z"/><path class="cls-1" d="m167.1,179.23c-.11.1-.34-.03-.4.19-.12,0-.18.07-.19.18-.06.02-.13.04-.19.06-.13-.05-.17.03-.17.14-.07.02-.14.04-.21.06-.13-.06-.16.02-.16.13-.35-.03-.52.28-.78.42-.13-.05-.17.03-.18.14-.07.03-.13.05-.2.08-.11-.05-.14,0-.13.11-.72.59-1.65.76-2.47,1.14-.55.26-.91-.24-1.1-.63-.17-.35.13-.58.53-.78,4.78-2.35,9.22-5.2,12.81-9.22.28-.17.5-.4.64-.69.61-.68,1.22-1.35,1.81-2.04.27-.31.56-.59.95-.75.19.02.39.04.58.05.48.37.6.83.21,1.3-2.46,3.03-5.11,5.87-8.35,8.1-.13-.07-.16.03-.18.12-.38.27-.76.55-1.14.82-.13-.07-.16.03-.19.12h0c-.06.06-.13.13-.19.19-.35-.02-.5.3-.76.43-.13-.04-.17.03-.18.14-.07.02-.13.04-.2.06-.13-.05-.16.02-.17.13Z"/><path class="cls-1" d="m102.81,134.41c.9.37,1.8.75,2.7,1.12.45.19.78.48.6,1-.17.5-.59.6-1.08.5-1.55-.34-2.97-1.01-4.36-1.74-.95-.5-.97-1.28-.11-1.92,1.15-.86,2.52-1.26,3.77-1.92.13-.05.36-.02.27-.24-.07-.19-.29-.17-.47-.19-1.3-.63-2.67-1.08-4.06-1.46-.58-.16-1.24-.46-1.11-1.01.14-.59.82-.89,1.55-.69,2.09.57,4.1,1.4,6.11,2.19.83.32.92,1.14.28,1.75-.59.56-1.28,1-2.03,1.33-.69.3-1.43.48-2.06.91-.14.02-.32.02-.32.21,0,.2.19.17.33.17Z"/><path class="cls-1" d="m177.66,164.25c-.72.49-1.48.8-2.38.63-.93-.18-1.8-.95-1.94-1.83-.15-.93.45-1.46,1.13-1.89.42-.26.89-.48,1.37-.61.46-.12.9.07,1.04.58.13.47-.13.77-.59.91-.24.08-.48.16-.68.31-.22.16-.72.2-.48.64.18.32.58.42.92.26.36-.17.67-.45,1.02-.67.73-.44,1.49-.57,2.19,0,.69.55.65,1.33.39,2.07-.18.53-.46,1.03-.77,1.5-.31.48-.8.65-1.3.33-.46-.29-.36-.74-.13-1.17.15-.27.27-.56.41-.84.11-.09.25-.23.13-.35-.13-.14-.23.02-.32.13Z"/><path class="cls-1" d="m159.7,128.4c.18.34.34.69.05,1.05-.31.39-.73.31-1.13.23-.83-.16-1.51-.62-2.14-1.14-.46-.38-.45-.89-.15-1.36.58-.9,1.12-1.82,1.52-2.82.28-.68.85-.9,1.55-.74.65.15,1.24.45,1.81.78.41.24.57.61.37,1.04-.2.44-.61.54-1.04.42-.33-.09-.64-.26-.96-.39-.19-.08-.35-.13-.45.13-.09.24.02.35.21.43.2.08.42.14.62.23.4.18.69.47.64.94-.05.53-.45.62-.89.64-.53-.13-1-.54-1.7-.39.51.54,1.18.58,1.68.93Z"/><path class="cls-1" d="m137.87,177.53c-.02.19-.03.38-.05.57-.24.04-.23.2-.16.37-.02.13-.04.26-.06.39-.1,0-.19.03-.12.16-.02.14-.04.28-.07.42-.11,0-.18.02-.14.16-.01.07-.03.15-.04.22-.17.13-.35.27-.52.4-1,.35-1.01-.34-1.05-1-.03-.1-.03-.25-.1-.3-.11-.08-.21,0-.23.14-.67.16-1.01-.2-1.19-.79-.01-.14-.03-.29-.04-.43-.23.06-.39.16-.33.44-.17.16-.3.34-.33.59-.17.13-.35.27-.52.4-.75.16-1.25-.26-.97-.89.56-1.24,1.13-2.5,2.23-3.4.19,0,.39-.01.58-.02.44.21.56.65.77,1.04.11.58.27.14.42.02.3-.12.59-.23.89-.35.13.02.26.03.39.05.3.13.53.34.66.65-.11.38-.12.76-.01,1.14Z"/><path class="cls-1" d="m91.88,147.83c0-.31,0-.62,0-.92,1.66-.49,3.36-.65,5.08-.56.35.02.52.32.53.67.02.36-.18.66-.5.7-1.45.2-2.92.35-4.38.5-.3.03-.5-.24-.73-.39Z"/><path class="cls-1" d="m141.67,189.55c-.2,1.17-.35,2.29-.58,3.38-.11.5-.48.84-1.05.69-.54-.14-.59-.56-.5-1.04.2-1.07.38-2.15.59-3.22.08-.43.32-.76.83-.69.55.07.68.48.71.88Z"/><path class="cls-1" d="m132.7,188.03c-.15,1.02-.25,2.08-.58,3.1-.16.49-.46.86-1.03.71-.57-.16-.66-.65-.51-1.14.3-.93.39-1.9.52-2.86.07-.53.12-1.08.8-1.03.69.05.77.62.8,1.21Z"/><path class="cls-1" d="m114.75,183.65c-.3-.02-.55-.14-.7-.4-.16-.29-.22-.64.04-.88.66-.62.95-1.47,1.45-2.18.31-.44.69-.82,1.24-.46.49.32.38.82.13,1.26-.4.71-.81,1.41-1.24,2.11-.2.33-.48.58-.91.56Z"/><path class="cls-1" d="m124.29,184.8c-.22.99-.59,2.01-1.28,2.89-.29.36-.72.4-1.09.13-.36-.26-.37-.66-.16-1.01.45-.76.75-1.58,1.02-2.41.14-.44.41-.71.9-.62.5.1.58.51.61,1.03Z"/><path class="cls-1" d="m198.49,151.21c-.68-.39-1.71-.27-2.66-.5-.42-.1-.63-.43-.56-.85.08-.48.5-.73.9-.64.92.22,1.87.08,2.78.29.52.12,1.06.24.99.89-.07.65-.54.94-1.44.81Z"/><path class="cls-1" d="m196.68,159c-.76-.21-1.68-.44-2.58-.73-.45-.14-.83-.5-.6-.98.18-.39.53-.72,1.14-.51.79.27,1.62.4,2.43.61.55.14,1.19.28,1.06,1.05-.13.76-.76.57-1.45.56Z"/><path class="cls-1" d="m187.69,170.63c.71.52,1.41,1.04,2.12,1.55.36.26.68.55.94.91.29.41.16.82-.12,1.1-.26.25-.64.16-.95-.07-.83-.61-1.68-1.21-2.49-1.84-.64-.5-.72-1.07-.07-1.65.19,0,.39,0,.58,0Z"/><path class="cls-1" d="m181.64,176.96c.79.66,1.35,1.55,2.26,2.08.52.3.4.79.14,1.23-.26.44-.68.33-.97.15-1.05-.66-1.9-1.55-2.58-2.57-.39-.58-.05-1,.8-1.15.01.24.2.22.36.24Z"/><path class="cls-1" d="m175.42,109.56c.04-.09.06-.19.12-.24.84-.66,1.24-1.65,1.9-2.45.32-.39.75-.63,1.23-.25.43.35.34.77.06,1.17-.51.72-1.01,1.44-1.55,2.14-.27.35-.7.45-1.11.28-.28-.11-.52-.32-.65-.65Z"/><path class="cls-1" d="m120.79,108.25c.1.53-.22.8-.62.94-.42.14-.58-.22-.73-.53-.36-.78-1.09-1.27-1.56-1.97-.27-.4-.45-.78-.05-1.18.41-.42.9-.21,1.16.11.68.82,1.7,1.44,1.8,2.64Z"/><path class="cls-1" d="m102.14,171.37c-.46.02-.75-.27-.95-.57-.25-.38.2-.57.41-.72.78-.58,1.6-1.11,2.41-1.65.38-.25.79-.31,1.11.08.31.38.21.78-.13,1.09-.84.76-1.76,1.4-2.85,1.77Z"/><path class="cls-1" d="m166.46,185.77c.46.02.65.31.84.61.43.69.86,1.38,1.29,2.07.24.38.35.77-.03,1.1-.4.35-.86.26-1.17-.1-.66-.79-1.25-1.65-1.59-2.64-.19-.58.05-.98.65-1.03Z"/><path class="cls-1" d="m177.08,184.72c-.01.31-.17.54-.44.67-.29.13-.58.08-.79-.14-.67-.7-1.34-1.41-1.82-2.27-.24-.44-.18-.87.29-1.14.45-.25.77-.01,1.05.34.43.54.87,1.07,1.29,1.62.21.27.42.56.42.93Z"/><path class="cls-1" d="m96.75,140.03c-.63-.03-1.26-.12-1.88-.07-.65.06-.85-.25-.87-.78-.02-.57.33-.94.86-.91.97.05,1.93.2,2.89.32.34.04.47.35.48.61,0,.29-.06.63-.46.7-.34.06-.68.13-1.01.19,0-.02,0-.05,0-.07Z"/><path class="cls-1" d="m154.1,98.93c-.07.8-.45,1.67-.72,2.56-.12.4-.53.57-.92.39-.39-.17-.82-.41-.65-.97.25-.81.53-1.61.8-2.42.15-.44.38-.84.92-.74.56.1.58.57.57,1.17Z"/><path class="cls-1" d="m107.55,178.11c-.89-.31-1.04-.76-.44-1.37.57-.58,1.13-1.18,1.73-1.74.41-.39.95-.66,1.41-.15.43.47.11.93-.3,1.29-.68.6-1.35,1.2-2.03,1.8-.16-.02-.32-.05-.37.17Z"/><path class="cls-1" d="m197.25,132.9c.44-.03.93,0,1.05.61.12.62-.33.8-.82.91-.78.18-1.54.4-2.33.53-.47.08-.9-.15-.98-.66-.08-.47.2-.76.67-.85.79-.15,1.52-.58,2.41-.54Z"/><path class="cls-1" d="m193.66,166.58c-.86-.3-1.84-.71-2.55-1.55-.31-.37-.23-.86.16-1.18.37-.3.77-.23,1.08.14.48.58,1.19.78,1.83,1.11.37.19.61.46.5.9-.1.44-.43.58-1.02.58Z"/><path class="cls-1" d="m126.86,101.73c.23.04.58-.04.64.26.16.78.68,1.4.94,2.12.16.43.1.83-.33,1.05-.43.23-.86.18-1.13-.29-.35-.61-.72-1.22-1.01-1.86-.27-.6.23-1.29.89-1.3Z"/><path class="cls-1" d="m189.85,118.53c.35.02.6.09.74.52.14.42.04.68-.27.88-.65.44-1.3.87-1.98,1.25-.61.34-1.02.03-1.25-.53-.22-.52-.07-.88.53-1.02.49-.12.9-.42,1.29-.74.27-.22.56-.39.93-.36Z"/><path class="cls-1" d="m144.02,102.21c-.59-.39-.99-.8-.57-1.61.22-.43-.64-.83-.21-1.44.15-.21-.03-.78.32-.78.38,0,.87,0,1.19.39.49.58.27,2.98-.34,3.46-.13,0-.26-.01-.39-.02Z"/><path class="cls-1" d="m149.21,192.21c-.06-.47-.13-.93-.17-1.4-.04-.41.05-.78.49-.91.43-.12.79.1.91.48.29.95.46,1.94.38,2.94-.03.4-.36.61-.74.58-.56-.04-.74-.54-.93-.94-.1-.21-.02-.49-.02-.74.03,0,.06,0,.09,0Z"/><path class="cls-1" d="m198.9,142.76c-.69-.08-1.35-.12-1.99-.24-.55-.1-.96-.45-.85-1.04.12-.64.58-.69,1.16-.54.57.15,1.17.2,1.77.24.54.04,1.06.12,1.03.8-.02.73-.58.79-1.12.78Z"/><path class="cls-1" d="m159.74,190.8c.02.57-.14.98-.66,1.07-.54.09-.76-.24-.91-.73-.18-.61-.46-1.2-.66-1.81-.15-.46-.27-.98.31-1.22.6-.25.91.18,1.16.66.35.67.67,1.35.76,2.03Z"/><path class="cls-1" d="m135.33,99.99c-.02-.61.13-.92.5-1.04.37-.12.63.09.84.4.54.77.56,1.68.7,2.55.05.3-.07.71-.53.73-.41.02-.81.07-.94-.51-.18-.79-.42-1.57-.58-2.14Z"/><path class="cls-1" d="m170.33,103.6c-.06.65-.46,1.42-.97,2.13-.22.31-.56.41-.92.23-.4-.2-.53-.57-.37-.95.3-.72.66-1.4.8-2.18.06-.35.41-.57.8-.47.51.12.67.51.66,1.24Z"/><path class="cls-1" d="m162.2,100.31c-.07,1.12-.49,1.88-.73,2.68-.09.28-.53.51-.96.31-.46-.22-.66-.58-.52-1.05.21-.69.47-1.35.73-2.02.15-.38.4-.69.85-.57.43.12.67.44.64.66Z"/><path class="cls-1" d="m185.2,112.34c.02.65-1.48,2.3-2.12,2.34-.61.04-1.06-.58-.7-1.07.49-.68,1.07-1.32,1.7-1.87.45-.4,1.11,0,1.13.6Z"/><path class="cls-1" d="m111.57,110.46c.3.04.53.2.73.4.47.46.95.92,1.4,1.4.28.3.4.66.11,1.02-.26.31-.64.35-.94.16-.8-.5-1.52-1.13-2-1.95-.28-.48.16-1.05.7-1.02Z"/><path class="cls-1" d="m98.11,132.37c-.47-.03-1.06-.11-1.61-.34-.47-.2-.8-.55-.6-1.1.19-.51.61-.54,1.09-.4.45.13.91.22,1.37.28.53.07,1.06.15,1.04.82-.03.72-.6.77-1.29.76Z"/><path class="cls-1" d="m102.11,125.71c-.45.01-1.78-.9-1.94-1.42-.1-.31-.09-.62.17-.87.23-.22.52-.24.79-.12.54.25,1.06.52,1.57.82.37.22.6.56.48,1.02-.13.52-.59.48-1.07.56Z"/><path class="cls-1" d="m193.93,125.46c.57,0,.95.12,1.06.6.1.44-.14.71-.55.85-.65.22-1.26.51-1.94.65-.63.13-.77-.32-.96-.64-.21-.37.2-.59.43-.7.67-.32,1.35-.65,1.97-.75Z"/><path class="cls-1" d="m99.55,161.43c.44-.02.7.07.84.36.14.28.1.58-.1.79-.55.56-1.17,1.04-1.92,1.32-.51.19-.88-.16-1.11-.5-.27-.4.2-.63.44-.79.63-.44,1.18-1.05,1.86-1.18Z"/><path class="cls-1" d="m105.35,116.09c.58.02,1.84,1,1.98,1.56.07.28.06.57-.18.77-.27.23-.59.25-.87.07-.5-.31-.98-.66-1.44-1.03-.28-.23-.41-.56-.24-.92.15-.31.4-.46.75-.46Z"/><path class="cls-1" d="m96.36,154.79c.57-.01.99.06,1.01.67.02.48-.99,1.24-1.7,1.18-.5-.04-.87-.36-.82-.93.1-1.03,1.01-.7,1.5-.92Z"/><path class="cls-1" d="m13.16,94.64c.11,1.13.35,2.29.49,3.42.33,2.62,1.24,5.01,2.21,7.38,2.08,5.07,5.05,9.61,8.56,13.78,3.57,4.24,7.3,8.34,11.63,11.84,1.33,1.07,2.8,1.91,4.31,2.7.28.15.55.31.84.44.68.3.86.85.5,1.43-.36.57-.95.34-1.44.1-3.57-1.8-6.68-4.21-9.49-7.04-4.98-5.01-9.74-10.21-13.35-16.34-1.27-2.15-2.41-4.36-3.38-6.68-.89-2.12-1.5-4.29-2.05-6.5-.49-1.95-.37-3.96-.37-5.95,0-.58.5-.66.93-.57.37.08.9.12.68.81-.11.35-.05.75-.07,1.16Z"/><path class="cls-1" d="m42.89,142.37c-.45-.1-1.01-.17-1.53-.35-5.51-1.97-10.08-5.41-14.28-9.37-4.91-4.63-9.43-9.6-12.9-15.44-2.41-4.04-3.91-8.44-5.13-12.95-.03-.12-.04-.25-.06-.37-.11-.62-.17-1.28.64-1.42.77-.13.78.55.9,1.06,1.63,6.76,4.59,12.88,8.92,18.3,4.52,5.65,9.52,10.83,15.51,14.96,2.36,1.63,4.92,2.89,7.63,3.83.29.1.59.22.86.38.29.18.43.47.32.81-.12.37-.39.56-.88.55Z"/><path class="cls-1" d="m17.52,93.07c0-.73-.05-1.46.25-2.14.2-.46.5-.86,1.07-.68.54.17.53.65.43,1.1-.47,2.22.07,4.36.5,6.51.32,1.58.76,3.11,1.33,4.62,2.28,5.94,5.51,11.32,9.36,16.36,2.52,3.31,5.06,6.6,8.19,9.38.71.63,1.48,1.18,2.32,1.62.47.25.81.62.54,1.13-.25.47-.61.78-1.28.42-1.08-.57-2.06-1.25-2.95-2.07-3.68-3.39-6.69-7.35-9.62-11.38-1.78-2.45-3.36-5.02-4.86-7.64-1.45-2.53-2.71-5.19-3.7-7.89-1.08-2.94-1.5-6.14-1.57-9.33Z"/><path class="cls-1" d="m41.85,122.89c-.54.69-1.08.45-1.61-.02-1.7-1.52-3.07-3.33-4.42-5.15-3.28-4.39-6.3-8.94-8.86-13.8-.94-1.78-1.69-3.61-2.36-5.5-.5-1.38-.93-2.77-1.21-4.22-.3-1.54-.29-3.07-.32-4.62,0-.47.37-.7.7-.9.24-.14.57-.13.79.1.3.31.2.64.1,1.03-.34,1.29.14,2.54.37,3.77,1.04,5.48,3.67,10.29,6.59,14.94,2.92,4.64,6,9.16,9.78,13.16.17.18.29.41.43.62,0,.19.02.39.02.58Z"/><path class="cls-1" d="m80.14,84.77c-.04.23-.08.54-.13.85-.08.49-.32.85-.86.8-.55-.05-.75-.46-.72-.94.07-1.28-.17-2.53-.64-3.69-1.1-2.71-1.85-5.53-2.95-8.24-1.99-4.91-4.1-9.73-7.03-14.16-.52-.78-1.1-1.52-1.61-2.3-.22-.33-.5-.81,0-1.06.39-.2.91-.22,1.27.25,1.55,2.02,2.92,4.15,4.18,6.36,1.27,2.23,2.41,4.51,3.43,6.86,1.3,2.97,2.42,6,3.51,9.05.35.97.77,1.94,1.02,2.9.27,1.03.52,2.14.54,3.33Z"/><path class="cls-1" d="m28.57,92.63c0-.24-.03-.55,0-.86.05-.51.36-.78.88-.74.49.04.9.34.86.83-.29,2.89.9,5.4,2.03,7.89,1.63,3.59,3.72,6.92,6.11,10.05,1.19,1.56,2.54,2.96,4.14,4.11.47.34.87.74.44,1.33-.39.53-.9.29-1.35.03-1.91-1.12-3.33-2.76-4.67-4.48-2.19-2.81-3.99-5.87-5.61-9.04-1.09-2.13-1.95-4.35-2.55-6.67-.2-.76-.44-1.54-.28-2.44Z"/><path class="cls-1" d="m63.68,60.28c1.3,1.41,2.42,2.95,3.51,4.53,2.32,3.36,3.66,7.17,5.2,10.89.62,1.5.99,3.08,1.53,4.6.3.87.65,1.85.67,2.86,0,.45-.03.84-.51.98-.46.13-.76-.09-1-.5-.81-1.39-1.06-2.95-1.44-4.48-.17-.7-.34-1.36-.71-2-.37-.65-.57-1.41-.75-2.14-.2-.83-.53-1.57-.94-2.32-.41-.75-.61-1.61-.94-2.41-1.23-2.98-2.99-5.63-4.99-8.15-.41-.52-1.15-1.16-.22-1.9.19.01.38.03.57.04Z"/><path class="cls-1" d="m60.47,65.92c1.64,1.61,2.81,3.55,3.87,5.55,1.91,3.58,3.52,7.29,4.78,11.14.39,1.2.81,2.38.99,3.63.06.44.13.93-.42,1.12-.55.19-.85-.12-1.11-.59-.75-1.34-.98-2.86-1.44-4.29-.69-2.15-1.51-4.23-2.43-6.29-.81-1.8-1.61-3.6-2.57-5.32-.66-1.18-1.44-2.29-2.28-3.35-.43-.54-.68-1.09.04-1.61.19,0,.38,0,.58.01Z"/><path class="cls-1" d="m64.85,88.45c-.03.58.07,1.07-.22,1.48-.21.3-.5.63-.89.48-.34-.13-.63-.32-.66-.86-.13-2.07-.68-4.03-1.39-5.99-.65-1.81-1.38-3.58-2.15-5.33-.92-2.09-2.17-3.97-3.71-5.66-.25-.28-.51-.57-.71-.88-.27-.43-.36-.93.12-1.26.44-.3.79-.03,1.13.32,3.55,3.64,5.51,8.17,7.24,12.84.59,1.61,1.19,3.21,1.24,4.85Z"/><path class="cls-1" d="m59.87,91.36c.05.75-.16,1.14-.68,1.19-.59.06-.81-.39-.94-.87-.47-1.78-.74-3.64-1.42-5.34-1.18-2.95-2.1-6.08-4.39-8.47-.35-.37-.51-.85-.06-1.25.46-.4.89-.16,1.24.22,1.29,1.4,2.29,2.99,3.07,4.72.69,1.54,1.29,3.12,1.93,4.67.72,1.74.93,3.56,1.24,5.13Z"/><path class="cls-1" d="m55.35,92.73c-.02.54-.09,1.02-.72,1.09-.77.08-1.07-.63-1.09-1.06-.19-2.72-1.7-4.92-2.67-7.33-.56-1.38-1.33-2.62-2.24-3.78-.35-.45-.34-.74.1-1.08.47-.36.87-.33,1.21.14.88,1.23,1.8,2.44,2.44,3.81,1.04,2.2,2.17,4.38,2.67,6.79.1.49.2.97.29,1.42Z"/><path class="cls-1" d="m35.26,94.35c-.21,1.3.34,2.43.78,3.58.68,1.75,1.28,3.54,2.79,4.81.38.32.45.76.1,1.17-.32.38-.63.38-1.08.09-1.15-.75-1.77-1.88-2.35-3.05-.48-.95-.8-1.96-1.24-2.93-.49-1.07-.75-2.23-.83-3.42-.04-.59.26-1.11.72-1.3.47-.2.84.26,1.11.66,0,.13,0,.26,0,.39Z"/><path class="cls-1" d="m50.1,92c-.03.4-.06.65-.06.9,0,.6-.52.81-.9.8-.4-.02-.75-.4-.78-.91-.08-2.02-.91-3.74-2.08-5.33-.28-.38-.57-.67-.03-1.07.47-.35.89-.34,1.24.1.41.51.8,1.05,1.12,1.63.71,1.26,1.37,2.55,1.49,3.89Z"/><path class="cls-1" d="m47.49,93.78c-.17.52.23,1.16-.54,1.24-.8.09-1.02-.61-1.17-1.12-.45-1.56-.94-3.08-2.25-4.17-.27-.23-.33-.53-.17-.85.16-.31.43-.44.78-.43.26,0,.52.08.69.26,1.36,1.48,2.34,3.16,2.67,5.06Z"/><path class="cls-1" d="m38.17,93.48c.18.17.39.33.4.61.08,1.94.98,3.51,2.16,4.97,0,.19-.01.39-.02.58-.42.55-.91.49-1.39.12-.64-.5-1.08-1.17-1.34-1.94-.32-.95-.97-1.79-.98-2.86,0-.6.06-1.12.59-1.49.19,0,.39,0,.58.01Z"/><path class="cls-1" d="m83.44,166.95c-.03.41-.14.69-.47.82-.33.13-.63.04-.87-.2-.47-.47-.78-1.06-1.1-1.64-.94-1.67-1.89-3.33-2.83-5-1.08-1.92-2.61-3.36-4.52-4.43-.47-.26-.9-.6-.6-1.19.3-.59.85-.48,1.31-.22,1.79.98,3.37,2.22,4.52,3.92,1.6,2.37,2.97,4.88,4.34,7.4.1.19.16.4.22.55Z"/><path class="cls-1" d="m230.03,171.1c.57.57,1.13,1.13,1.7,1.7.04.24.14.43.41.47,1.44,1.93,2.44,4.1,3.32,6.33.28.71.54,1.46.47,2.31-.11,1.31.21,2.61.22,3.93,0,1.4-.38,2.74-.33,4.14.02.45-.5.91-.7,1.39-1.5,3.64-4.19,6.22-7.63,7.87-1.71.82-3.75,1.06-5.75.68-3.23-.61-5.31-2.9-7.43-5.09-2.06-2.11-3.58-4.57-4.36-7.46-.37-1.38-.38-2.77-.31-4.16.05-1.01,1.03-1.7,2.01-1.43,2.34.66,4.1-.12,5.49-2.03.48-.65.71-1.43.75-2.13.14-2.21.36-4.52-1.97-5.94-.54-.33-.43-.76-.08-1.05,2.05-1.67,4.07-3.43,7.04-2.99.98.14,1.86.54,2.8.78.07.2.21.2.38.13.07.02.13.04.2.06.01.1.04.19.17.12.07.02.14.04.21.06,0,.11.03.19.16.12.07.02.14.04.21.07,0,.11.03.19.17.13.7.46,1.39.93,2.09,1.39.17.29.43.48.75.58Zm-11.35-.5c-.13-.08-.15.02-.17.12-.13.09-.25.18-.38.27-.48.27-.48.29.01.62.8.95,1.32,2.01,1.34,3.27.05.44-.21.92.19,1.31.26,2.54-.79,4.54-2.63,6.17-1.36,1.21-3,1.73-4.79,1.3-.82-.19-.95.06-.93.74.04,1.53.53,2.95,1.05,4.36,1.32,3.54,4.02,5.95,6.84,8.24,1.16.94,2.63,1.24,4.08,1.25,3.61.04,6.29-1.9,8.43-4.51,1.11-1.35,2.14-2.96,2.39-4.76.57-4.13.51-8.22-1.7-11.98-.22-.37-.36-.78-.53-1.17.02-.13-.04-.17-.16-.18-2.06-3.02-4.69-5.3-8.35-6.09-1.17-.26-2.42-.38-3.56.28-.13-.05-.17.04-.2.13-.12.08-.25.17-.37.25-.13-.05-.17.03-.19.13-.13.09-.25.18-.38.27Z"/><path class="cls-1" d="m147.09,149.9c-1.94,0-3.07-.97-3.07-2.61,0-1.8,1.1-3.08,2.67-3.04,2.11.05,3.04,1.12,3.18,2.97.11,1.52-1.19,2.69-2.77,2.69Zm-.34-4.01c-.69-.02-1.21.56-1.21,1.35,0,.5.76,1.14,1.38,1.15.49,0,1.31-.72,1.32-1.16.01-.59-.79-1.31-1.48-1.34Z"/></svg>