<?xml version="1.0" encoding="UTF-8"?><svg id="Layer_1" xmlns="http://www.w3.org/2000/svg" viewBox="0 0 297.64 264.59"><defs><style>.cls-1{fill:#fff;}</style></defs><path class="cls-1" d="m56.56,152.53c-2.41,1.24-4.5,2.93-6.31,4.88-1.53,1.66-3.24,2.82-5.39,3.41-5.02,1.36-9.46,3.85-13.49,7.11-4.63,3.75-9.1,7.67-13.52,11.65-.42.38-.78.83-1.17,1.24-.29.31-.7.37-1.01.15-.33-.25-.27-.68-.04-1,.35-.49.69-1,1.13-1.4,5.78-5.15,11.48-10.4,17.86-14.83,2.62-1.82,5.56-2.9,8.52-3.95.9-.32,1.84-.57,2.73-.9,1.01-.38,1.91-.93,2.64-1.76,1.72-1.94,3.76-3.51,5.9-4.95.44-.3.89-.61,1.37-.83,1.32-.61,1.86-1.71,2.11-3.07.32-1.67.73-3.33,1.06-4.99.58-2.84,1.13-5.69,1.68-8.54.04-.2.32-.38.02-.71-.79,1-1.86,1.66-2.83,2.44-.25.2-.57.59-.99.14-.44-.46-.15-.8.15-1.12.32-.34.68-.65,1.03-.95,1.81-1.54,3.06-3.56,4.55-5.38,1.26-1.53,2.27-3.24,3.24-4.94.76-1.36,1.14-2.93,1.57-4.45.65-2.3,1.37-4.59,2.14-7.16-1.65,1.19-3.33,1.55-5.04,1.86-.54.1-1.11.05-1.64.28-.52.22-.86-.15-.97-.58-.12-.47.24-.74.68-.81,1.5-.25,2.98-.55,4.45-.95,1-.27,1.74-.84,2.43-1.5,1-.97,1.84-2.1,2.86-3.04,1.91-1.77,4.06-3.19,6.5-4.17,2.94-1.19,6-2.12,8.8-3.64,1.32-.72,2.5-1.72,3.65-2.7,1.3-1.11,2.59-2.27,3.73-3.54,1.73-1.92,3.35-3.94,3.43-6.77-.56.16-.49.72-.78,1.02-2.07,2.14-4.57,3.32-7.53,1.03-.69-.53-1.49-.92-2.09-1.6-.41-.46-.9-.83-.34-1.5.14-.17.02-.3-.13-.4.9.37,1.51,1.09,2.22,1.7.76.65,1.62,1.24,2.63,1.44.5.1.94.48,1.48.33,2.52-.71,4.48-4.38,3.71-6.95-.04-.15-.15-.29-.25-.41-.84-1.05-2.55-1.13-3.83-.09-1.87,1.51-4.05,2.54-5.95,4.01-1.53,1.04-2.99,2.2-4.61,3.08-2.75,1.5-5.6,2.82-8.41,4.21-1.22.6-2.43,1.22-3.67,1.78-3.35,1.52-6.8,2.77-10.36,3.69-2.08.53-3.93,1.54-5.74,2.64-.19.12-.41.28-.49.48-.22.51-.56.72-.99.35-.44-.37-.36-.93.03-1.24,1.72-1.39,3.67-2.36,5.74-3.15,1.42-.54,2.88-.92,4.31-1.39.35-.11.4-.3.33-.59-.46-1.99-1.35-3.82-2.4-5.55-.27-.44-1.06-.62-1.64-.81-.52-.16-.95-.4-.73-.94.25-.6.77-.49,1.25-.15.64.44,1.55.25,2.1.92.74.92,1.18,2.01,1.63,3.08.41.97.74,1.98,1.03,2.99.13.44.3.4.64.31.72-.2,1.4-.47,2.08-.81,1.05-.53,2.18-.9,3.26-1.36.19-.08.67-.1.47-.45-.6-1.05.28-1.89.33-2.84.03-.62.03-1.34.53-1.87.04-.04.06-.14.03-.18-.95-1.77-1.43-3.89-3.54-4.79-.72-.31-1.3-.87-2.13-1.01-.43-.07-.73-.5-.54-1.02.23-.62.64-.25.97-.11,1,.42,2.07.65,3,1.27,1.13.76,1.85,1.81,2.49,3.25.47-1.67.77-3.1,1.09-4.53.51-2.24,1.1-4.47,1.56-6.7.67-3.21,1.4-6.41,2.06-9.63.1-.51,0-.53-.45-.55-1.01-.05-1.75.5-2.43,1.09-2.44,2.12-5.19,3.85-7.52,6.09-2.41,2.32-5.1,4.29-7.65,6.45-1.56,1.32-3.48,2.09-5.14,3.26-1.37.97-2.83,1.84-3.79,3.28-.76,1.15-1.29,2.41-1.86,3.66-.68,1.49-1.27,3.03-2.02,4.49-.65,1.24-1.15,2.55-1.73,3.81-1.06,2.31-2.53,4.37-3.93,6.48-2.15,3.24-4,6.64-5.74,10.12-1.06,2.13-2.51,4.07-3.72,6.14-1.74,2.96-4.13,5.35-6.53,7.76-.2.11-.63-.03-.49.45-.57.18-.84.74-1.3,1.04-.26-.02-.4.07-.35.35-.32.08-.5.32-.66.58-.24.06-.46.14-.47.44-1.36.85-2.46,2.02-3.74,2.97-.25.06-.46.17-.58.42-.48.18-.83.56-1.23.86-.14-.06-.17.03-.2.13-.13.09-.27.19-.4.28-.14-.09-.16.03-.2.12-.13.09-.27.17-.4.26-.14-.06-.18.03-.21.14-.33.22-.66.44-.99.66-.14-.05-.18.03-.18.15-.07.03-.15.05-.22.08-.14-.09-.16.02-.2.11-.13.09-.27.17-.4.26-.14-.05-.18.03-.19.15-.07.03-.15.05-.22.08-.14-.08-.17.02-.2.12-.14.1-.27.2-.41.29-.14-.09-.16.02-.18.11h0c-.13,0-.19.07-.19.2-.07.03-.15.06-.22.09-.14-.09-.16.02-.18.11-.95.57-1.77,1.31-2.62,2-.12.01-.19.08-.19.21-.12.09-.35,0-.4.22-.13,0-.19.06-.19.19-.08.03-.15.05-.23.08-.14-.09-.16.02-.2.12-.13.09-.27.17-.4.26-.14-.05-.18.03-.18.15-1.11.44-1.62,1.62-2.66,2.16-.26.13-.48.35-.7.54-.35.31-.73.54-1.13.13-.39-.4.01-.75.2-1.05.16-.27.44-.46.74-.64.71-.4,1.34-.89,1.85-1.59.73-1.01,2.01-1.34,2.96-2.12,2.56-2.09,5.47-3.67,8.2-5.52,1.32-.9,2.53-1.96,3.79-2.95.28,0,.35-.19.37-.42,2.57-1.79,4.64-4.15,7.01-6.18.36-.3.41-.89.87-1.16.03,0,.06-.01.09-.02-.02,0-.05-.01-.07-.02.25-.36.51-.73.76-1.09.21.01.26-.17.34-.3.02-.08.05-.16.07-.23.1-.03.19-.08.14-.21.9-1.34,1.8-2.69,2.66-4.04.66-1.03,1.21-2.18,1.82-3.27,1.24-2.2,2.42-4.43,3.67-6.63,1.14-2.02,2.41-3.94,3.69-5.86,1.29-1.94,2.22-4.02,3.18-6.14.96-2.13,1.87-4.32,3.11-6.34.35-.57.27-1.34.78-1.87.21-.06.22-.22.2-.4.44-.29.17-.94.62-1.22.13,0,.19-.05.19-.18.43-.85,1.08-1.49,1.82-2.05.32.08.29-.19.36-.37l.65-.44c.14.04.18-.03.18-.15.94-.75,1.9-1.44,3.04-1.87.12.03.17,0,.12-.13,1.03-.63,2.06-1.26,3.08-1.89.24.01.4-.04.27-.33.25-.21.49-.42.74-.63.14.03.19-.04.19-.16.2-.15.4-.29.61-.44.32.08.3-.19.37-.37.82-.38,1.37-1.08,2.04-1.65.32.08.3-.19.36-.36.22-.15.43-.29.65-.44.13.03.18-.04.18-.16,1.77-1.24,3.15-2.93,4.84-4.25.14.03.18-.04.18-.17,1.38-.91,2.77-1.83,3.98-2.95,1.27-1.17,2.54-2.24,4.42-2.07.39.04.59-.14.66-.56.25-1.61.53-3.22.79-4.82.28-1.7.44-3.44.86-5.1.46-1.8.63-3.66,1.15-5.44.05-.19.13-.37.2-.55.06-.02.11-.05.17-.08-.05-.03-.1-.07-.16-.1.27-1.68.49-3.37.82-5.03.49-2.46,1.02-4.9,1.59-7.34,1.06-4.56,2.24-9.09,3.56-13.58.87-2.97,1.48-6.01,2.08-9.05.46-2.33,1.09-4.62,1.67-6.92.21-.85.45-1.69.72-2.52.49-1.52,1.42-2.01,2.95-1.43,1.52.58,3.16.41,4.7.89.65.2,1.36.21,2.04.31-.02.27.15.29.36.27,1.18.21,2.36.44,3.55.64,2.38.41,4.77.81,7.15,1.21,2.9.48,5.81.9,8.71,1.42,2.08.37,4.14.87,6.2,1.37,2.4.59,4.87.88,7.24,1.57,4.31,1.26,8.77,1.77,13.12,2.81,1.86.45,3.82.57,5.71.91,1.85.33,3.7.82,5.57,1.01,2.39.24,4.71,1.02,7.13.95,1.35-.04,2.67-.36,4.02-.48,3.22-.3,6.44-.72,9.65-1.14,2.19-.28,4.38-.64,6.57-.94,1.39-.19,2.79-.29,4.18-.47,2.58-.34,5.17-.68,7.74-1.08,2.55-.4,5.09-.85,7.62-1.33,1.15-.22,2.3-.41,3.44-.74,1.47-.42,3.02-.52,4.53-.81,1.75-.33,3.5-.53,5.27-.64,1.77-.11,3.41.61,5.05,1.06,4.53,1.22,9.15,2,13.68,3.15,3.47.88,6.92,1.84,10.4,2.66,4.65,1.1,9.36,2,13.99,3.21,2.71.71,5.49,1.02,8.18,1.86,1.92.59,4.02.83,6.03,1.24,2.93.6,5.86,1.23,8.77,1.9,2.98.69,6.03,1.08,9.05,1.6.03.11.08.19.22.16.13,0,.27,0,.4,0,.34.07.67.15,1.01.22.12.27.09.55,0,.82-.12.01-.19.06-.17.2-.6,2.57-1.26,5.14-1.78,7.73-.34,1.73-.47,3.5-.72,5.24-.3,2.05-.6,4.11-.95,6.17-.3,1.78-.6,3.57-.77,5.37-.1,1.04-.54,2.01-.53,3.06-.26,0-.29.16-.26.36-.58,3.08-1.15,6.17-1.76,9.24-.46,2.29-.99,4.56-1.49,6.84-.06.03-.11.05-.17.08.02.03.03.06.05.09-.03.21-.06.42-.09.63-.12,0-.19.04-.16.18-.39,1.62-.77,3.23-1.16,4.85-.16.67-.32,1.34-.49,2.01-.11,0-.21.02-.12.17-.03.21-.06.42-.08.63-.11,0-.21.02-.12.17.02.5-.39.92-.28,1.44-.12,0-.19.04-.16.18-.28,1.69-.75,3.34-1.1,5.02-.4,1.94-.81,3.88-1.12,5.83-.25.06-.25.21-.15.39.01.15.02.3.03.44-.39.06-.31.31-.23.56.01.15.02.3.03.44-.27-.02-.29.15-.27.36,0,.96-.38,1.86-.54,2.79-.05.3,0,.57-.03.85-.37.07-.22.36-.23.58,0,.28.01.55.02.83-.43.16-.17.51-.22.78.02.28.03.56.05.84-.46.14-.2.5-.25.77,0,.34.01.68.02,1.03-.42.16-.17.51-.22.78,0,.27.01.55.02.82-.36.09-.2.37-.22.58,0,.27.01.55.02.82-.25.03-.24.2-.22.38.02.21.04.43.06.64-.46.13-.21.5-.26.76.1,1.04-.48,2.01-.34,3.05-.4.04-.25.34-.26.56-.04,1.02-.46,2-.38,3.03-.25.02-.25.19-.22.38.02,2.27-.83,4.39-1.16,6.61-.69,4.66-1.37,9.33-2.46,13.93-.58,2.46-.87,4.99-1.29,7.49-.05.3-.16.65.33.64,1.65-.03,2.59,1.09,3.3,2.28,1.33,2.26,2.9,4.42,3.66,6.99.35,1.17,1.21,2.06,1.78,3.11,1.02,1.86,1.61,3.88,2.16,5.91.78,2.87,1.6,5.72,2.36,8.6,1.11,4.19.96,8.31-.52,12.43-2.31,6.45-4.01,13.08-5.9,19.66-.41,1.41-.33,2.97-.47,4.46-.19,2.02-.29,4.04-.71,6.04-.67,3.21-2.71,5.52-4.95,7.72-.28,0-.46.13-.53.4-.32.08-.51.31-.68.57-.34.1-.6.31-.77.62-.29.11-.48.33-.64.58-.33.11-.59.3-.74.63-.31.09-.5.32-.67.57-.25.06-.46.16-.54.43-.76.51-1.5,1.05-2.07,1.78-.26.05-.47.15-.55.43-.55.42-1.11.85-1.66,1.27-.14-.09-.16.02-.19.12-.27.23-.55.45-.82.68-.14-.09-.17.02-.2.12-.44.43-1.06.65-1.4,1.2-.24.06-.46.14-.45.45-.27-.03-.46.15-.58.33-.94,1.52-2.51,2.39-3.75,3.6-1.59,1.55-2.57,3.35-3.45,5.29-.11,0-.2.03-.13.17-.3,1.15-.54,2.32-.9,3.45-.72,2.29-.37,4.54.22,6.78.2.75.44,1.49.67,2.23-.05.14.03.17.15.18.88,2.41,2.37,4.55,3.04,7.05-.03.13.05.18.17.19.15.89.82,1.56,1.04,2.42-.03.13.05.18.17.19.04.29.07.58.26.81-.04.14.03.17.15.18.2.76.42,1.5.58,2.27.11.53-.03,1.07-.65,1.14-.53.06-.72-.31-.8-.86-.32-2.12-1.52-3.91-2.23-5.89-1.06-2.96-2.72-5.65-3.72-8.64-.47-1.41-.58-2.85-.86-4.27.29-.2.3-.39,0-.58-.2-.6-.29-1.21-.18-1.85.05-.02.11-.05.16-.07-.05-.03-.1-.06-.16-.09-.08-1.94.79-3.66,1.51-5.34,1.07-2.46,2.58-4.69,4.61-6.53,2.56-2.32,4.98-4.81,7.95-6.64.36-.22.66-.54.99-.82.14.03.19-.04.18-.17.73-.61,1.4-1.31,2.23-1.8.35-.05.51-.29.58-.61l1.03-.83c.32.07.31-.19.37-.37,1.94-1.39,3.61-3.07,5.04-4.97,1.06-1.41,1.67-2.98,1.86-4.78.15-1.45.07-2.97.3-4.33.51-2.98.96-5.99,1.81-8.94.82-2.84,1.71-5.68,2.44-8.55.98-3.87,2.51-7.58,3.36-11.47.34-1.57.24-3.21-.03-4.86-.27-1.67-.64-3.31-1.08-4.93-.71-2.62-1.53-5.21-2.13-7.87-.51-2.28-1.77-4.27-3.08-6.19-.9-1.32-1.2-2.93-2.06-4.24-.93-1.41-1.16-3.17-2.28-4.47-1.21-1.41-1.88-1.17-3.05.24-1.93,2.32-1.74,5.12-2.28,7.78-.5,2.44.27,4.67.96,6.96.59,1.95.91,3.99,1.21,6.01.26,1.79.73,3.51,1.32,5.2.72,2.05.6,3.95-.31,5.92-1.18,2.57-2.73,4.98-3.4,7.77-.17.72-.42,1.42-.5,2.15-.12,1.13-.69,1.84-1.72,2.25-.37.15-.7.38-1.04.59-.39.24-.77.31-1.06-.11-.27-.39-.11-.77.22-1.07.15-.13.31-.28.5-.33,1.23-.39,1.71-1.28,1.83-2.5.26-2.62,1.53-4.88,2.74-7.13.59-1.09,1.01-2.25,1.55-3.36.27-.56,0-.98-.37-1.34-1.24-1.21-2.5-2.41-3.75-3.61-.05-.16-.15-.27-.32-.26-.02,0-.03.17-.05.26-.55,3.03-1.09,6.07-1.64,9.1-.25,1.33-.5,2.66-.81,3.98-.17.71-.66,1.17-1.41.82-1.07-.5-2.23-.06-3.32-.45-.47-.17-1.04-.28-1.57-.39-.52-.11-.78-.05-.75.53.1,2.42,0,4.87,1.42,7.02.41.62.22,1.16-.27,1.61-.66.61-1.36,1.18-1.81,1.99-.21.38-.59.41-.97.25-.5-.21-.3-.62-.2-.94.27-.91,1.05-1.44,1.67-2.08.32-.18.25-.38.01-.58-.38-.91-1.1-1.84-1.04-2.72.07-1.13-.24-2.2-.2-3.31.07-2.32-.02-2.31-2.24-2.78-.54-.12-.67.13-.81.58-.89,2.93-1.95,5.81-2.33,8.87-.16,1.32.19,2.56.79,3.72.2.4.72.43,1.16.49,2.97.37,5.94.71,8.85,1.4.7.17,1.31.48,1.91.84.53.32.5.81.26,1.21-.26.43-.62.37-1.04.02-1.03-.86-2.37-.89-3.59-1.12-1.96-.36-3.94-.64-5.93-.73-.1-.23-.29-.25-.49-.18-.1.04-.07.14.02.2.76,1.22,1.82,2.23,2.48,3.51.3.58.89,1.31.16,1.78-.85.55-1.08-.43-1.39-.97-.59-1.02-1.31-1.94-2.05-2.85-1.87-2.3-2.85-4.92-2.55-7.89.21-2.1.58-4.18,1.51-6.14.84-1.77.88-3.8,1.52-5.65.84-2.43.95-4.97,1.21-7.5.17-1.67.44-3.34.34-5.01-.09-1.66-.17-3.31-.23-4.97-.01-.42-.19-.75-.65-.99-.25.78-.45,1.5-.7,2.21-.79,2.22-1.96,2.7-4.17,2.11-.69-.18-1.43-.26-2.15-.26-2.47.02-3.02-.47-3.12-2.93,0-.1-.02-.2-.04-.3-.15-.09-.24,0-.32.11-2.13,3.02-3.48,6.36-4.07,10-.36,2.19-.55,4.42-1.1,6.55-1.12,4.32-2.97,8.31-5.63,11.96-1.76,2.41-3.87,4.38-6.16,6.23-3.05,2.47-5.39,5.55-7.49,8.84-2.18,3.4-4.55,6.71-5.96,10.53-1.11,3-2.48,5.98-1.95,9.3.35,2.17.56,4.38,1.27,6.5.12.37.22.89.2,1.35-.09.15.01.16.12.17.03.21.06.42.09.64-.1.15,0,.16.12.16.02.14.04.28.06.43-.07.19-.07.35.18.39.24,1.07.52,2.09,1.13,3.06.5.79.41,1.87.82,2.76.42.92.46,2,1.44,2.67.3.2.26.9.39,1.36.15.53.31,1.06.47,1.59.01.37.13.7.35,1,.21.98.38,1.96.98,2.8-.05.05-.09.1-.14.15.05.02.1.04.15.06l.26.82c-.05.14.03.17.14.17.52,1.4,1.16,2.76,1.45,4.24-.05.3.19.43.36.6.15,1.17.4,2.31.86,3.41.16.37.16.82.23,1.23-.1.15.01.16.12.17.26,1.2.31,2.42.39,3.64-.27.18-.53.36-.8.54-.75-.68-1.04-1.64-1.17-2.55-.26-1.77-.98-3.39-1.39-5.1-.95-3.96-2.93-7.6-3.51-11.67-.18-1.27-1.04-2.33-1.52-3.52-1.52-3.78-2.79-7.64-3.64-11.63-.05-.26-.01-.53-.01-.8.05-.04.11-.07.16-.11l-.16-.09c-.32-.71-.24-1.5-.41-2.25.05-.02.1-.05.15-.07-.05-.02-.1-.03-.15-.05-.65-2.46-.65-4.9.03-7.36,1.44-5.2,4.07-9.78,6.96-14.28,2.88-4.5,6.28-8.46,10.41-11.83,2.62-2.13,4.43-4.91,6.22-7.73.77-1.21.84-2.32.08-3.49-.85-1.31-.97-2.94-1.97-4.2-.34-.42-.61-.74-1.18-.74-1.86,0-3.69-.34-5.5-.68-1.05-.2-2.11-.54-3.17-.79-3.54-.81-7.11-1.49-10.62-2.42-3.02-.8-6.08-1.51-9.13-2.13-2.75-.56-5.37-1.58-8.19-1.86-2.99-.29-5.96-.75-8.94-1.08-3.36-.37-6.66-.2-9.97,0-1.97.12-3.95.3-5.92.47-2.45.22-4.91.2-7.37.27-3.21.08-6.43.04-9.63.23-6.25.38-12.51.41-18.76.32-1.17-.02-2.36-.16-3.49-.43-1.37-.33-2.78-.44-4.15-.55-1.86-.15-3.63-.67-5.46-.94-1.65-.24-3.28-.6-4.91-.9-1.56-.29-3.13-.56-4.69-.87-1.83-.36-3.65-.76-5.48-1.11-2.18-.42-4.36-.89-6.55-1.19-2.21-.3-4.36-.93-6.62-1.09-1.02-.07-2.11-.28-3.16-.47-1-.18-2.02-.15-3.04-.29-1.25-.18-2.51-.26-3.75-.52-1-.21-2.02-.45-3.04-.47-1.11-.03-2.19-.29-3.27-.45-1.18-.18-2.38-.34-3.55-.51-2.39-.34-4.68-1.1-7.04-1.51-2.5-.43-4.94-1.27-7.51-1.32-.68-.01-1.05-.67-.82-1.47.13-.44.36-.86.34-1.34.05-.12.06-.31-.07-.31-.13,0-.25.18-.37.27Zm30.4-50.57h0c-.2.07-.49-.09-.6.23-1.67.65-3.22,1.61-5.08,2.01.76.62.81,1.25.41,2.02-.34.67-.45,1.48.06,2.09.48.58,1.12.1,1.67-.07,1.68-.53,3.06-1.62,4.6-2.44,1.64-.87,2.21-.69,2.96.97.32.7.66,1.39,1.14,2,1.08,1.37,2.52,2.02,4.22,1.78,1.05-.15,2.11-.42,3.08-.95,1.77-.96,3.66-.9,5.56-.59.48.08.87.35,1.2.69.64.65.41,1.44-.47,1.67-.22.06-.48-.07-.69.2,1.74.63,3.44,1.29,5.18,1.85,1.02.33,2.06.14,2.79-.67.45-.5.95-.9,1.45-1.32,1.13-.96,1.59-.89,2.24.47.61,1.27,1.52,1.92,3.14,1.09.45-.23.9-.43,1.35-.65.38-.19.81-.28,1.15-.05.4.26.58.08.83-.18.44-.46.87-.93,1.37-1.32.78-.62,1.45-.39,1.78.55.11.31.2.65.22.97.08,1.03.41,2,.63,3,.07.33.18.65.66.55,1.06-.23,2.11.07,3.16.15.66.05,1.44.28,2,.79.4.36.48.81.14,1.25-.36.47-.75.34-1.09-.03-.22-.23-.48-.38-.79-.39-1.05-.02-2.09-.36-3.2-.12.19.49.12.99-.44,1.16-.62.18-.88-.3-1.08-.79-.57-1.46-1.12-2.93-1.38-4.49-.04-.25.13-.6-.17-.72-.34-.13-.51.23-.7.43-1.11,1.2-2.06,2.46-1.99,4.23.02.48-.15.98-.78.94-.59-.03-.77-.47-.77-.98,0-.5.07-1,.1-1.5.03-.51.19-1.02.03-1.55-.19.04-.29.05-.37.09-2.26.95-3.28.7-4.8-1.24-.29-.37-.46-.38-.76-.07-.33.33-.69.64-1.03.96-1.55,1.49-3.36,1.46-5.15.65-1.98-.91-4.04-1.54-6.06-2.32-.5-.19-1.11-.07-1.53-.52-.84-.9-1.7-.61-2.66-.16-1.42.66-2.98.79-4.44.28-1.97-.69-3.45-2.07-4.16-4.06-.39-1.09-.85-.95-1.64-.49-1.65.96-3.23,2.07-5.11,2.59-1.55.43-2.82-.44-3-2.03-.12-1.06.17-2.05.44-3.06.15-.06.22-.18.14-.31-.08-.14-.14-.03-.16.07-1.21.34-2.28.99-3.42,1.47-.14-.08-.17.02-.21.12-.45.02-.62.47-.98.62-.13,0-.19.06-.19.19-.11.12-.36-.03-.42.21-.26.03-.46.14-.55.41-.24.02-.36.18-.47.37-.28.15-.84.03-.69.64-.57.6-1.15,1.21-1.72,1.81-.13-.02-.18.05-.19.17-.13.22-.32.42-.39.66-.69,2.33-1.35,4.67-2.02,7-.11,0-.21,0-.12.16-.28,1.08-.56,2.16-.84,3.24-.26.03-.26.19-.2.38-.17.25-.29.51-.25.82-.1.02-.21.03-.12.17-.03.14-.05.29-.08.43-.12,0-.19.04-.15.17-.2.24-.21.53-.26.82-.12,0-.19.06-.17.19-.05.16-.07.33-.15.47-.95,1.49-1.91,2.97-2.87,4.45-.25.08-.4.25-.42.51-.14.04-.19.14-.19.27-.25.09-.4.26-.43.53-.06.07-.13.15-.19.22-.21.3-.42.6-.36.99.01.21.03.42.04.63-.26,0-.27.18-.24.37-.09,1.66-.58,3.24-.92,4.85-.4,1.93-.66,3.89-1.08,5.82-.65,2.98-1.2,5.98-1.83,8.97-.16.75-.04,1.11.83,1.25,1.82.31,3.61.76,5.42,1.16,2.8.63,5.58,1.31,8.44,1.67,2.49.32,4.97.76,7.45,1.14,1.78.28,3.56.72,5.35.78,1.17.04,2.3.29,3.47.34,2.41.1,4.77.67,7.14,1.1,4.29.78,8.59,1.46,12.86,2.34,1.25.26,2.5.82,3.84.49.14.09.13.37.39.31,2.46.46,4.94.85,7.38,1.41,2.34.53,4.73.62,7.08,1.02,3.09.52,6.2.92,9.36.88,4.87-.06,9.75-.12,14.61-.38,2.2-.12,4.41-.18,6.62-.18,4.61,0,9.2-.48,13.81-.65,1.59-.06,3.18-.2,4.78-.3,1.25-.08,2.51-.26,3.75-.2.91.04,1.81.32,2.74.31,2-.03,3.99.02,5.97.36.98.17,2.06.14,2.98.36,2.27.54,4.55,1.12,6.83,1.61,6.21,1.34,12.39,2.84,18.56,4.35,5.89,1.44,11.87,2.26,17.82,3.31.46.08.8.19.91-.57.08-.52,0-1.05.13-1.55.51-1.83.59-3.75,1.18-5.57.49-1.51.82-3.06,1.49-4.51.12-.25.26-.42-.19-.56-2.17-.69-3.42-2.37-3.54-4.53-.18-3.14,2.64-7.4,5.33-8.51.33-.14.64-.37.99-.44,2.69-.49,5.3-.3,7.79.95,1.21.61,1.95,1.6,2.24,2.91.22.99.27,1.03,1.05.33,2.21-2.01,5.7-1.57,7.05,1.12.85,1.7.74,3.44.15,5.13-.69,1.96-2.38,2.54-4.28,2.68-.11-.04-.15,0-.12.11-.2,1.47.25,2.94.08,4.4-.47,3.87-.6,7.8-1.77,11.56-.13.4-.16.62.39.72,2.82.52,5.59,1.33,8.47,1.58.58.05.72-.1.82-.63.39-2.11.87-4.21,1.16-6.35.22-1.67.64-3.32.83-5,.21-1.86.51-3.71.87-5.54.55-2.84,1.82-5.54,1.53-8.55-.2-2.02-.08-4.05.25-6.07.32-1.94.56-3.86,1.53-5.62.45-.82,1.1-1.45,1.34-2.51.63-2.77.94-5.59,1.56-8.35.64-2.86,1.22-5.73,1.75-8.6.06-.03.11-.06.17-.09-.05-.04-.11-.07-.16-.11l.35-2.22c.31-.1.31-.23.03-.37.33-1.95.6-3.91,1.01-5.85.46-2.21.77-4.44,1.15-6.66.29-1.71.65-3.41.86-5.12.23-1.83.5-3.64.67-5.48.24-2.5.81-4.95,1.34-7.41.54-2.49.82-5.04,1.47-7.49,1.07-4.01,1.88-8.09,3.08-12.07.71-2.35,1.13-4.78,1.69-7.17.35-1.47.88-2.91,1.05-4.39.28-2.35.93-4.62,1.33-6.95.26-1.53.6-3.04.85-4.57.27-1.62.45-3.26.73-4.87.17-1.02.39-2.06.49-3.05.21-2.11.53-4.2.87-6.28.42-2.55,1.11-5.05,1.69-7.57.33-1.43.34-1.43-1.13-1.66-.07-.01-.13-.03-.19-.04-2.25-.45-4.48-.98-6.77-1.25-2.76-.33-5.45-1.04-8.15-1.69-1.54-.37-3.11-.81-4.62-1.03-1.34-.2-2.63-.62-3.95-.87-1.24-.24-2.54-.55-3.79-.82-2.08-.45-4.17-.92-6.27-1.34-4.88-.96-9.71-2.14-14.53-3.37-3.95-1.01-7.88-2.11-11.87-2.96-1.72-.37-3.45-.65-5.15-1.09-1.47-.38-2.97-.61-4.38-1.26-1.27-.59-2.76-.77-4.08-.89-1.86-.17-3.8.45-5.7.76-2.66.43-5.23,1.26-7.9,1.64-2.29.32-4.56.76-6.84,1.14-.95.16-1.96.11-2.85.42-1.21.42-2.47.36-3.68.53-1.35.19-2.77.25-4.12.43-1.6.2-3.22.4-4.82.68-2.42.42-4.87.69-7.31,1-1.07.14-2.16.18-3.24.31-1.22.16-2.5.12-3.64.42-2.36.62-4.59.68-7.01.14-2.42-.55-4.91-.89-7.36-1.34-4.1-.74-8.25-1.23-12.3-2.29-.88-.23-1.82-.6-2.8-.47-.2-.04-.22-.65-.57-.17-.54-.13-1.09-.27-1.63-.4-.12-.28-.36-.23-.59-.2-2.59-.33-5.06-1.21-7.65-1.56-2.19-.3-4.26-1.16-6.46-1.5-2.08-.33-4.15-.77-6.23-1.17-.02-.05-.03-.1-.05-.15-.02.05-.04.1-.06.15-1.55-.27-3.13-.34-4.67-.77-1.67-.47-3.43-.43-5.15-.77-3.17-.62-6.34-1.26-9.52-1.88-.03-.05-.05-.11-.08-.16-.03.05-.07.1-.1.16-.33,0-.67,0-1,0-.08-.18-.23-.2-.4-.15-.81-.05-1.62-.09-2.42-.14-.03,0-.07,0-.1.01.02.01.04.03.06.04-.05.15-.09.29-.14.44-.24.21-.32.49-.36.79-.11.88-.51,1.7-.45,2.61-.19.16-.42.3-.36.6.03.69-.33,1.3-.43,1.96-.48,3.06-1.22,6.07-1.82,9.11-.1,0-.22.01-.12.17-.03.21-.06.42-.09.64-.11,0-.21.02-.12.17.14.39-.42.67-.15,1.08-.25-.01-.32.12-.29.34-.48,1.87-.97,3.75-1.45,5.62-.23.22-.31.51-.35.81-.01.21-.03.41-.04.62-.11,0-.21.02-.13.17.02.37-.46.65-.17,1.06-.25,0-.3.15-.27.36-.47,2.21-.93,4.43-1.4,6.64-.25.04-.26.19-.17.39-.03.2-.05.39-.08.59-.11.03-.21.06-.13.2.16.45-.47.79-.16,1.26-.26,0-.29.15-.27.36.06.91-.55,1.72-.37,2.64-.37.07-.23.35-.24.57-.38,3.56-1.27,7.02-1.93,10.53-.66,3.53-1.41,7.03-1.82,10.6-.27-.02-.29.15-.26.36.45.67-.2,1.16-.3,1.73-.42,2.21-.88,4.41-1.4,6.6-.68,2.91-1.38,5.81-1.93,8.75-.25.05-.24.21-.16.39.07.32-.18.56-.24.84-.73,3.41-1.44,6.82-2.16,10.23-.14.65.06.9.71.67.21-.07.44-.14.63-.24,3.09-1.68,6.42-2.88,9.41-4.73.11.02.17-.01.12-.13.19-.39.6-.52.91-.74,1.12-.78,2.27-1.53,3.41-2.29.39-.26.65-.48.03-.84-.74-.43-1.42-.96-2.13-1.45-.16-.14-.28-.13-.34.09-.38.59-.88,1.11-1,1.85-.21.13-.41.27-.4.56-.07.03-.14.06-.21.08-.2-.01-.41-.02-.61-.03-.78-.84-.87-2.54-.19-3.45.2-.02.4-.04.6-.06.25.13.47.41.8.18.28-.06.36-.29.42-.53.43-.34.86-.39,1.33-.04.41.3.85.56,1.28.83.12.24.32.37.59.4.06.23.3.09.42.2,0,.13.06.19.19.2.06.2.23.19.39.21.04.09.05.21.2.11.74.15,1.32-.07,1.95-.54,1.12-.84,2.28-1.6,3.76-1.86,1.86-.33,3.32.42,3.82,2.27.09.31.07.75.58.77h.06c-.01.94.33,1.46,1.38,1.27.23-.04.49.12.74.18,0,.13.04.19.18.14.5.95,1.3.49,1.97.37,1.07-.19,2.01-.15,2.82.69.81.85,1.89.94,2.94.75,1.2-.21,2.31-.13,3.4.41,1.07.53,2.22.73,3.39.84,1.56.15,3.14.16,4.3,1.53.4.47,1.01.58,1.73.38,1.2-.34,2.31-.86,3.4-1.44.74-.39,1.51-.72,2.35-.83,1.15-.15,1.78.28,2.05,1.41.17.71.2,1.46.43,2.14.79,2.33.45,2.07,2.43,1.11.12-.06.24-.11.36-.17.85-.44,1.61-.41,2.42.21.93.72,1.98,1.25,3.15,1.47.45.08.77.3.74.78-.03.46-.46.61-.79.61-1.11.02-2.2-.08-3.02-1-.79-.88-1.44-.96-2.55-.41-.45.22-.9.46-1.37.61-1,.31-1.67-.02-2.14-.97-.52-1.05-.83-2.16-1.09-3.29-.24-1.04-.41-1.15-1.43-.74-1.42.57-2.7,1.45-4.21,1.83-1.34.34-2.61.35-3.61-.76-.62-.69-1.39-.99-2.24-.87-1.5.2-2.84-.24-4.18-.78-1.36-.56-2.7-.93-4.23-.7-1.17.18-2.35-.09-3.18-1.09-.29-.35-.64-.41-1.06-.42-1.11-.04-2.15.44-3.26.42-1.1-.02-1.61.48-1.73,1.65-.04.39-.1.79-.14,1.18-.26.03-.26.19-.2.38-.15.41-.3.82-.45,1.24-.12-.01-.2.02-.15.16-.23.44-.53.84-.59,1.35-.21.1-.39.21-.41.48-1.32,1.63-2.84,3.07-4.28,4.59-.41.02-.61.29-.77.62-.83.8-1.65,1.62-2.64,2.25-.16-.02-.33-.06-.39.16-.21.15-.41.31-.62.46-.14-.06-.18.02-.18.14-.07.02-.15.05-.22.07-.14-.08-.17.02-.2.12-.19.28-.63.1-.79.43-.14-.02-.19.05-.2.18-.07.02-.14.04-.21.07-.14-.06-.17.02-.19.14Zm163.36,50.3l.23.04c-.03-.06-.06-.12-.09-.18-.2-.66-.79-.87-1.33-1.11-1.45-.64-2.95-.96-4.57-.88-1.79.08-3.32.64-4.56,1.95-1.1,1.16-1.8,2.54-2.37,4.03-.62,1.63-.19,3.01.87,4.23,1.07,1.23,2.02,1.09,2.91-.23,1.48-2.19,2.51-4.64,4.13-6.74.61-.79,1.34-1.18,2.28-1.24.83-.05,1.67-.06,2.49.13Zm-5.32,8.46c-.1.92.88.78,1.56.85,1.02.1,2.08-.11,3.07.26.96.36,1.55-.04,1.88-.88.33-.83.58-1.7.85-2.56.82-2.61.69-2.83-1.58-4.33-1-.66-2.07-.59-3.08-.44-.75.11-.75,1.08-1.05,1.68-.28.57-.52,1.15-.74,1.75-.41,1.09-.8,2.19-.91,3.67Zm14.45-3.72c0-.23,0-.47,0-.7-.03-2.22-2.32-3.65-4.34-2.7-1.19.56-1.23.7-.49,1.75.29.42.49.88.6,1.37.23,1.04.5,2.08.59,3.14.07.76.39.77.96.67,2-.38,2.7-1.28,2.68-3.52Zm12.63,12.9c-1.35-3.63-1.35-7.54-2.44-11.32-.15.19-.25.26-.26.35-.43,1.99-.84,3.99-1.26,5.98-.15.68.07,1.26.5,1.76,1.03,1.19,2.1,2.33,3.47,3.23Zm-36.8,10.63c.36-1.28.65-2.37.98-3.45.11-.35,0-.53-.32-.56-.96-.09-1.91-.45-2.96-.2,1.02,1.25,1.33,2.79,2.29,4.2Z"/><path class="cls-1" d="m279.35,22.69c-.26,1.86-.71,3.55-1.19,5.21-1.1,3.82-1.66,7.77-2.72,11.6-.23.83-.27,1.71-.39,2.57-.12.86-.33,1.26-1.48,1.11-3.66-.47-7.24-1.4-10.92-1.74-2.54-.23-5.02-.97-7.55-1.35-2.82-.42-5.61-.95-8.48-1.09-1.92-.09-3.87-.48-5.81-.77-3.14-.48-6.22-1.28-9.35-1.79-.75-.12-1.5-.27-2.24-.44-.84-.18-1.35-1.47-1.12-2.51,1.46-6.79,3.45-13.45,4.93-20.23.05-.23.07-.46.08-.7.04-.83.48-1.19,1.29-.93,5.2,1.65,10.58,2.61,15.89,3.78,4.22.92,8.3,2.33,12.5,3.27,2.44.54,4.91.97,7.42,1.09,2.82.14,5.49,1.12,8.25,1.63.67.12.85.77.9,1.27Zm-48.71,6.83c.41-.31.7-.53.99-.75,2.5-1.92,4.74-4.13,6.96-6.36,1.03-1.03,1.86-.88,2.44.47.23.52.4,1.06.61,1.59.98,2.5,1.96,5,2.97,7.57,1.4-1.13,2.68-2.25,3.83-3.52,2.5-2.76,5.34-5.15,8.08-7.66,1.18-1.08,1.98-.82,2.51.71.22.63.41,1.27.56,1.92.43,1.81.84,3.63,1.23,5.45.14.68.39.89,1.08.56,1.05-.51,2.16-.9,3.21-1.4,2.59-1.24,2.97-1.13,4.35,1.45.28.53.54,1.07.8,1.62.47.99.92,1.99,1.4,3.02.94-.55,1.7-1.64,2.71-1.64,1.32,0,1.4-.73,1.56-1.61.05-.29.15-.58.22-.87.56-2.13,1.13-4.26,1.67-6.4.09-.34.34-.85-.29-.98-2.38-.49-4.74-1.18-7.14-1.39-3.25-.29-6.45-.79-9.61-1.58-3.1-.77-6.13-1.83-9.26-2.51-4.92-1.07-9.81-2.29-14.72-3.43-.77-.18-1.66-.81-2.27-.47-.63.35-.41,1.45-.6,2.21-1,4.05-2,8.11-2.98,12.17-.13.54-.36,1.08-.31,1.83Zm9.01-6.11c-2.46,2.42-4.81,4.77-7.53,6.68-1.37.96-2.4,1.95-2.57,3.77-.07.77.13.83.65.93,2.56.49,5.12.99,7.67,1.48,4.04.77,8.13,1.17,12.21,1.58,2.82.28,5.59.9,8.38,1.4,4.87.87,9.8,1.41,14.65,2.47.4.09.54.02.57-.36.18-2.32.95-4.51,1.48-6.75.05-.22.18-.51-.04-.66-.2-.13-.47-.01-.66.12-.76.55-1.51,1.1-2.25,1.67-.92.7-1.49.53-1.85-.55-.66-1.97-1.57-3.83-2.56-5.65-.38-.7-.79-.86-1.52-.47-.85.46-1.75.82-2.64,1.21-.67.29-1.65.37-1.95.87-.35.58.29,1.41.47,2.15.23.94.56,1.86.43,2.86-.05.41-.22.71-.67.74-.45.02-.7-.25-.72-.67-.06-1.95-.94-3.68-1.42-5.51-.68-2.65-1.3-5.32-1.92-7.99-.16-.71-.38-.82-.93-.29-1.16,1.11-2.37,2.17-3.54,3.26-3.54,3.3-6.74,6.98-10.89,9.6-.47.29-.87.65-1.28.11-.41-.54-.01-.92.44-1.23.44-.3.87-.62,1.32-.92.3-.2.34-.4.21-.75-1.17-2.98-2.31-5.97-3.52-9.1Z"/><path class="cls-1" d="m153.73,52.96c.1,3.03-.78,5.9-1.42,8.82-.6,2.77-1.14,5.56-1.38,8.39-.01.17,0,.34-.02.5-.25,1.45-.78,1.7-2.46,1.34-1.25-.26-2.48-.53-3.79-.56-.88-.02-1.85-.39-2.82-.49-1.57-.17-3.12-.54-4.69-.78-1.56-.24-3.11-.52-4.67-.73-1.79-.24-3.56-.56-5.34-.86-2.37-.4-4.71-.95-7.08-1.39-1.36-.25-2.74-.37-4.11-.61-1.97-.35-3.96-.55-5.92-.98-1.41-.31-2.87-.39-4.29-.65-1.8-.33-3.63-.53-5.44-.81-1.79-.27-3.55-.78-5.32-1.19-.99-.23-1.93-.63-2.98-.65-.43,0-.82-.27-.62-1.01.94-3.57,1.82-7.16,2.6-10.76.29-1.35.52-2.71.9-4.04.06-.03.11-.05.17-.08-.05-.04-.1-.07-.16-.11.17-1.13.46-2.25.42-3.4-.03-.82.44-.94,1.1-.79.97.22,1.93.49,2.93.52.02.26.19.26.38.23,1.83.21,3.68.33,5.47.82.18.05.39-.04.58-.06.14.44.5.21.77.25,2.06.3,4.13.56,6.17.92,2.43.43,4.86.85,7.31,1.14,2.27.27,4.52.69,6.77,1.08,3.15.55,6.26,1.28,9.43,1.72,1.09.15,2.18.35,3.27.53.08.37.35.24.58.24l4.63.83c0,.12.05.19.19.16.21.01.42.02.63.04,0,.12.04.19.18.16,1.48.32,3,.45,4.42,1.09.61.28,1.31.55,2.04.48.02.25.18.27.37.24.15-.03.31-.07.46-.1-.03.25.14.31.33.35h0c.05.22.25.17.4.21Zm-58.74-.18c-.36.08-.28.33-.21.57-.03.2-.05.4-.08.6-.1.02-.21.05-.12.19-.03.2-.05.41-.08.61-.1.02-.21.05-.12.19-.02.21-.05.42-.07.64-.1,0-.22.01-.12.17-.03.21-.06.42-.08.64-.1,0-.22.02-.12.17-.08,1.26-.68,2.42-.72,3.69-.02.59.19.92.78,1.07,3.92.94,7.88,1.68,11.9,2.13.33.04.51-.05.76-.28,1.98-1.82,3.98-3.61,5.98-5.4.46-.41,1-.53,1.39.02.4.57.61.39.95-.02,1.24-1.48,2.51-2.94,3.74-4.42.53-.63,1.04-.92,1.69-.18-.04.14.04.18.16.17l.07.44c-.08.14.02.17.12.19,0,.91.29,1.75.54,2.61.15.5.3.59.78.22,1.95-1.49,3.95-2.92,5.92-4.38.78-.58,1.34-.37,1.63.57.35,1.12.14,2.28.37,3.41.39,1.91.21,3.91.7,5.83.14.3.25.16.37-.02,1.39-1.15,2.78-2.3,4.17-3.45.35-.29.72-.53,1.18-.34.51.21.6.7.59,1.18-.05,2.67.67,5.25.88,7.9.03.41-.16,1.21.59,1.32.89.13,1.74.65,2.71.24.34-.14.8-.08,1.19,0,2.14.42,4.28.86,6.41,1.31.44.09.65.09.71-.46.53-4.83,1.41-9.6,2.79-14.27.35-1.18-.08-1.9-1.24-2.2-1.02-.27-2.05-.51-3.07-.79-3.59-.97-7.25-1.69-10.9-2.33-2.06-.36-4.12-.72-6.18-1.09-2.29-.4-4.56-.98-6.85-1.28-3.03-.39-6.04-1-9.09-1.28-2.19-.2-4.35-.73-6.51-1.13-3.6-.67-7.26-.99-10.83-1.82-.89-.21-1.02.13-1.15.86-.27,1.58-.72,3.13-.95,4.72-.17,1.17-.6,2.3-.58,3.51Zm33.43,1.24c-1.69,1.11-3.12,2.24-4.7,3.15-.89.51-1.65,1.15-1.31,2.37.12.42-.25.51-.5.6-.38.15-.62-.08-.75-.44-.48-1.36-1.26-2.61-1.54-4.03-.15-.78-.28-.74-.79-.27-1.13,1.05-1.97,2.35-3.01,3.47-.55.6-.57,1.2-.2,1.92.65,1.28,1.31,2.56,1.68,3.96.09.35.26.5.59.56,2.76.49,5.52.99,8.29,1.47.21.04.46.18.61-.13.52-1.05,1.52-1.67,2.3-2.49.27-.29.41-.53.32-.96-.61-2.96-.81-5.97-1-9.18Zm7.25,6.27c-2.75,2.21-5.29,4.33-7.65,6.86,2.91.48,5.65.93,8.44,1.38.07-2.74-.73-5.33-.79-8.25Zm-19.66,4.72c-.78-2.12-1.77-3.94-2.77-5.84-1.66,1.54-3.24,3.01-4.98,4.62,2.62.41,5.09.8,7.75,1.22Z"/><path class="cls-1" d="m194.16,152.74c-.09.14-.17.27-.26.41-.16,0-.35-.03-.4.2-.91-.11-.73-.84-.55-1.28,1.06-2.55,1.16-5.3,1.74-7.95.56-2.55,1.11-5.1,1.52-7.68.51-3.25,1.42-6.42,1.95-9.67.37-2.23,1.08-4.41,1.52-6.63.67-3.39,1.63-6.72,2.11-10.17.36-2.65,1.16-5.25,1.7-7.88.48-2.38,1.23-4.7,1.52-7.15.29-2.48.89-4.93,1.43-7.38.76-3.48,1.65-6.93,2.17-10.46.28-1.9.78-3.76,1.19-5.64.38-1.77.75-3.55,1.15-5.32.43-1.94.97-3.85,1.32-5.8,1.56-8.69,4.04-17.15,6.23-25.69,1.11-4.34,1.84-8.75,2.83-13.11,1.17-5.11,2.49-10.17,4.2-15.13.18-.53-.05-1.06.25-1.55.18-.3.32-.65.71-.6.38.05.54.33.63.75.11.55-.08,1.04-.21,1.51-.77,2.76-1.88,5.41-2.47,8.23-.56,2.66-1.28,5.28-1.91,7.93-.73,3.09-1.29,6.21-1.99,9.31-1.12,4.99-2.52,9.9-3.84,14.84-.7,2.6-1.22,5.24-1.78,7.88-1.3,6.12-2.62,12.24-3.84,18.38-.29,1.46-.54,2.97-.82,4.42-.3,1.52-.71,3.06-1.04,4.59-.72,3.37-1.4,6.74-2,10.14-.5,2.82-1.16,5.62-1.81,8.42-.86,3.72-1.58,7.46-2.37,11.19-1.07,5.02-2.09,10.04-3.27,15.03-1.04,4.4-1.83,8.86-2.78,13.28-.48,2.24-.81,4.51-1.2,6.77-.24.06-.25.21-.15.4-.22,1.22-.45,2.43-.67,3.65-.11,0-.21,0-.12.15.02.54-.34.96-.49,1.44-.12,0-.19.03-.15.17Z"/><path class="cls-1" d="m139.09,155.33c.11-2.17.7-4.25,1.28-6.32.92-3.33,1.42-6.74,2.11-10.11.77-3.8,1.42-7.63,2.21-11.43.43-2.07,1.17-4.06,1.5-6.14.56-3.52,1.35-7.01,2.21-10.46.57-2.29,1.05-4.59,1.53-6.9.71-3.38,1.28-6.79,2.03-10.16.7-3.14,1.57-6.26,2.05-9.44.66-4.38,1.7-8.69,2.61-13.02.69-3.27,1.52-6.52,2.26-9.79.97-4.29,2.55-8.41,3.58-12.68,1-4.13,2.44-8.16,3.09-12.37.49-3.17,1.19-6.3,1.5-9.51.24-2.42.88-4.82,1.64-7.14.72-2.22,1.09-4.51,1.52-6.8.08-.42.29-.82.31-1.23.05-.94.75-.73,1.22-.63.61.14.2.56.12.93-.51,2.35-.97,4.71-1.45,7.07-.11.02-.21.06-.13.2-.02.15-.04.29-.06.44-.11,0-.21,0-.12.16-.75,2.52-1.34,5.09-1.65,7.7-.41,3.45-1.01,6.85-1.81,10.22-.06.25.01.52.02.79-.25.03-.24.2-.22.38.12.43-.41.8-.14,1.25-.26,0-.29.15-.27.36-.23,1.56-.77,3.05-1.13,4.58-.29,1.23-.61,2.44-.92,3.67-.11.01-.21.02-.12.17-.03.21-.05.42-.08.63-.11.01-.21.03-.13.18-.56,1.94-1.09,3.89-1.69,5.83-.09.28-.11.56-.19.84-.11,0-.21.01-.12.16-.66,2.71-1.3,5.42-1.97,8.13-1.35,5.39-2.38,10.85-3.52,16.29-1.37,6.56-2.68,13.14-4.05,19.7-1.1,5.27-2.28,10.53-3.4,15.79-.71,3.34-1.51,6.66-2.3,9.98-.45,1.89-.8,3.81-1.11,5.73-.34,2.11-1,4.15-1.38,6.25-.39,2.15-.77,4.29-1.16,6.44-.51,2.8-1.41,5.5-1.84,8.31-.25.06-.25.21-.15.39.14.44-.5.81-.12,1.27-.49.24-.88.98-1.55.31Z"/><path class="cls-1" d="m200.36,75.63c-.03,1.78-.52,3.49-.73,5.25-.18,1.48-.2,2.98-.31,4.47-.04.52-.13,1.03-.19,1.55-.47.07-.95.14-1.42.21-1.34-.38-2.71-.21-4.06-.21-4.08.02-8.15-.04-12.23-.15-1.81-.05-3.65.04-5.45-.11-2.66-.22-5.34-.14-7.99-.56-.93-.15-1.91.09-2.85-.24-.47-.16-.77-.34-.75-.89.04-1.26-.19-2.56-.05-3.77.12-1.04.41-2.13.58-3.2.26-1.59.72-3.16.73-4.79,0-.61.19-1.16.99-1.18,3.36-.12,6.72-.39,10.08-.34,2.68.04,5.35.04,8.02-.1,2.12-.11,4.24-.43,6.37-.4.27-.03.6.17.79-.2,2.14-.21,4.27-.54,6.43-.41.18.03.35.05.39-.19.56.13,1.06-.3,1.62-.2.27-.01.54-.03.81-.04.41.23.28.66.17.89-.66,1.34-.55,2.81-.75,4.22-.24.05-.22.22-.19.4Zm-25.93,1.98c.25.34.52.31.79.03.72.32,1.76.51,2.12.01,1-1.36,2-2.76,2.76-4.44-.98-.05-1.84-.13-2.7-.15-3.13-.08-6.24.11-9.36.32-.85.06-1.11.43-1.23,1.08-.12.59-.1,1.2-.2,1.78-.1.56.12.71.65.83,2.37.55,4.77.54,7.17.53Zm11.24,7.79c3.74.04,7.48.07,11.22.11.95.01,1.57-.64,1.33-1.58-.34-1.38.09-2.72.22-4.05.26-2.56.81-5.09,1.23-7.63.07-.42,0-.59-.52-.45-1.26.34-2.56.26-3.85.24-.99-.02-1.55.43-2.01,1.27-1.49,2.7-3.22,5.24-4.92,7.8-.91,1.39-1.97,2.69-2.7,4.2-.05.02-.1.03-.15.05.05.01.1.02.14.04Zm-10.78-.39c.88.11,1.67.07,2.46.24.94.21,1.65-.06,2.19-1.03,1.15-2.08,2.46-4.08,3.71-6.1.94-1.52,1.88-3.04,2.82-4.56.12-.2.28-.41.14-.64-.04-.07-.26-.1-.37-.07-1.04.34-2.11.14-3.16.2-.52.03-.88.1-1.21.64-1.49,2.46-3.16,4.82-4.57,7.32-.71,1.26-1.67,2.43-2.01,3.99Zm-1.15.07c-.25-.63-.12-1.13.16-1.61.68-1.14,1.34-2.3,2.04-3.44.3-.49.31-.8-.34-.9-.23-.04-.46-.06-.68-.09-2.67-.35-5.41.1-8.05-.68-.41-.12-.58.05-.61.4-.14,1.72-.49,3.43-.34,5.17.04.46.18.65.63.68,2.35.14,4.7.3,7.18.45Zm8.93.23c.39.02,1.11.17,1.66-.66,2.56-3.87,5.3-7.63,7.66-11.64.1-.16.34-.34.21-.49-.13-.15-.45-.27-.61-.21-.96.37-1.96.31-2.96.35-.49.02-.76.25-.99.69-.52.98-1.09,1.94-1.67,2.9-1.53,2.52-3.13,4.99-4.61,7.54-.82,1.41-.73,1.46,1.3,1.52Z"/><path class="cls-1" d="m77.18,136.27c.62-2.59,1.14-5.21,1.74-7.8.29-1.23.15-2.48.52-3.66.46-1.45.63-2.96.95-4.43.35-1.58.88-3.12,1.06-4.74.11-.99.58-1.35,1.54-1.2,4.12.65,8.22,1.38,12.35,1.92,2.23.29,4.46.58,6.67,1,1.02.19,1.05.74.86,1.4-.97,3.28-1.71,6.61-2.42,9.95-.48,2.28-.75,4.57-.98,6.88-.18,1.83-.38,3.67-.56,5.5-.11.02-.2.06-.14.2-.08.69-.38,1.32-.31,2.07.05.52-.58.56-1.04.59-1.68.09-3.28-.41-4.9-.7-2.67-.48-5.36-.91-8.01-1.43-2.16-.42-4.33-.58-6.48-.94-.93-.16-1.61-1.43-1.36-2.39.17-.67.33-1.34.49-2.01,0-.07,0-.14.01-.21Zm14.31,5.22c.02.1.04.2.18.12,1.45.29,2.9.59,4.36.86.6.12,1.02-.08,1.08-.76.05-.03.09-.05.14-.08-.05-.05-.09-.1-.14-.15.06-.46.13-.93.19-1.39.31-.22.16-.53.17-.8.08-.35.19-.7.23-1.06.24-2.03.41-4.07.69-6.1.52-3.78,1.45-7.48,2.35-11.18.59-2.43.6-2.41-1.94-2.74-4.97-.63-9.94-1.26-14.9-1.94-.82-.11-1.09.09-1.23.88-.83,4.48-1.74,8.95-2.55,13.44-.43,2.4-1.26,4.7-1.68,7.1-.12,0-.19.06-.16.19-.17,1.59-.17,1.62,1.46,1.8,2.24.25,4.46.6,6.69.97,1.69.28,3.36.73,5.08.85Z"/><path class="cls-1" d="m116.31,17.17c1.61-1.28,2.81-2.8,3.17-4.92.11-.68.12-1.53.92-1.93.14,0,.27,0,.41,0,.86.3.65.97.51,1.58-.2.86-.13,1.72-.04,2.58.02.21.04.6.33.67.31.08.41-.27.57-.47.44-.54.84-1.12,1.31-1.65.34-.39.8-.65,1.34-.45.57.21.63.73.63,1.25,0,.47-.04.94-.02,1.4.03.7.43.82.92.43.6-.47,1.15-1.01,1.71-1.54.31-.29.63-.52,1.07-.36.45.17.54.55.54.98.02,1.72.85,3.21,1.29,4.82.15.56.44.5.8.24.8-.57,1.48-1.26,1.82-2.21.32-.91.8-1.16,1.61-.63.88.57,1.23.29,1.48-.58.17-.59.27-1.21.59-1.76.22-.37.45-.7.93-.6.45.1.67.47.65.9-.03.8-.11,1.59-.2,2.38-.18,1.58-.38,3.16-.58,4.74-.06.49-.12,1.1-.79,1.06-.69-.03-.71-.64-.63-1.14.14-.88-.23-1.8.24-2.65.05-.09.02-.28-.05-.38-.17-.28-2.09-.19-2.29.09-.62.88-1.34,1.67-2.29,2.22-1.33.77-2.21.41-2.66-1.05-.37-1.2-1.17-2.25-1.19-3.57,0-.32-.26-.35-.52-.22-.12.06-.23.14-.34.22-2.13,1.43-3.39.86-3.65-1.64-.06-.15-.05-.06-.03.01-.63.43-.83,1.16-1.29,1.72-.29.35-.47.82-.99.91-.17-.03-.34-.06-.4.16-1.05-.28-.88-1.3-1.23-2.01-.02-.09-.04-.18-.06-.27-.08.09-.16.18-.24.27-.77.88-1.44,1.85-2.35,2.6-.53.44-1.13,1.03-1.84.73-.75-.32-.96-1.09-.92-1.94.03-.51-.07-1.06-.23-1.55-.21-.63-.54-1.22-.8-1.83-.25-.57-.18-1.24-.64-1.85-.31.4-.6.78-.89,1.16-1.23,1.58-2.22,1.51-3.14-.22-.05-.09-.13-.15-.2-.24-.75,1.02-1.22,2.16-1.78,3.26-.3.59-.71,1.06-1.4.81-.68-.24-.65-.93-.51-1.46.56-2.03.54-4.18,1.23-6.19.54-1.58,1.08-3.17,1.42-4.81.1-.48.57-.63,1-.7.33-.06.58.17.7.46.15.39.18.81-.25,1.06-.35.2-.36.55-.45.85-.54,1.81-1.05,3.63-1.59,5.45-.06.2-.14.4.07.52.18.1.3-.08.4-.22.1-.13.18-.28.29-.41.75-.89,1.59-.78,2.13.26.58,1.12.6,1.12,1.35.1.28-.38.53-.78.84-1.12.57-.63,1.66-.59,1.92.18.76,2.16,1.83,4.21,2.26,6.48.08.19.04.04.04-.01Zm5.36-1.86s-.07-.09-.1-.14c-.04.05-.1.09-.1.15,0,.05.05.1.09.16.04-.05.08-.1.12-.16Zm6.69.81s-.03-.04-.04-.06c-.02.02-.05.03-.05.05,0,.02.03.04.04.06.02-.02.04-.03.06-.05Z"/><path class="cls-1" d="m206.32,137.08c.26-.28.51-.49.95-.33,3.93,1.5,8.08,2.15,12.13,3.14,1.97.48,3.97.93,5.87,1.56,1.62.53,3.22,1.19,4.88,1.67.85.24.76.94.67,1.55-.18,1.24-.53,2.46-.61,3.7-.1,1.43-.63,2.76-.75,4.18-.22.15-.19.38-.17.6-.68,1.52-1.67,1.99-3.34,1.57-2.49-.63-5.05-.89-7.56-1.39-2.47-.49-4.9-1.18-7.37-1.66-2.05-.4-4.07-.88-6.07-1.49-.16-.05-.33-.07-.49-.08-1.58-.1-1.78-.37-1.41-1.89.35-1.41.9-2.75,1.33-4.12.68-2.17,1.38-4.35,1.77-6.6.22-.06.18-.24.17-.4Zm22.93,7.97c.17-.49.01-.64-.35-.76-1.75-.56-3.48-1.18-5.23-1.73-5.15-1.62-10.52-2.4-15.64-4.13-.57-.19-.69.04-.79.49-.7,3.06-1.58,6.07-2.61,9.04-.18.53-.12.75.46.87,1.3.28,2.59.66,3.89.94,5.93,1.28,11.89,2.45,17.85,3.55.48.09.75-.11.87-.58.64-2.58,1.22-5.18,1.55-7.7Z"/><path class="cls-1" d="m252.14,70.4c.85.66,1.53,1.48,2.1,2.39.79,1.26,1.33,1.45,2.77,1.1.39-.09.78-.19,1.17-.28,1.31-.3,2.58-.7,3.99-.5,1.44.2,2.77-.57,4.15-.88.97-.22,1.82-.05,2.45.53,1.61,1.49,3.41,1.45,5.33.98,1.13-.28,2.13-.07,2.86.89,1.04,1.35,2.58,1.18,4.01,1.36.43.05.87.03,1.27.22.3.14.48.36.44.71-.04.36-.27.54-.61.54-2.28,0-4.62.16-6.26-1.91-.47-.59-1.04-.48-1.64-.31-1.37.38-2.73.62-4.14.16-.53-.17-.92-.54-1.29-.88-.9-.84-1.92-.82-2.99-.57-.81.19-1.62.39-2.39.7-.43.18-.87.27-1.25.16-1.42-.42-2.74.04-4.06.37-2.82.71-3.7.41-5.32-2.01-.56-.83-1.23-1.55-2.13-1.93-1.03-.43-2.17-.13-3.13.22-1.7.61-3.31.59-4.71-.45-1.64-1.21-3.29-1.19-5.1-.67-1.26.36-2.37-.11-3.13-1.03-1.13-1.37-2.4-1.18-3.79-.69-1.22.43-2.62.18-3.31-.79-.48-.68-1.05-.82-1.78-.81-.5,0-1-.04-1.49-.14-.4-.08-.62-.39-.56-.82.07-.49.46-.6.82-.51,1.53.37,3.3-.03,4.44,1.55.49.68,1.21,0,1.83,0,.48,0,.95-.26,1.43-.39.92-.26,1.71,0,2.39.63.22.2.43.42.64.64.79.81,1.68,1.25,2.84.81,1.9-.72,3.64-.48,5.25.84.92.75,2.03.89,3.19.56.51-.14,1.03-.27,1.55-.35.78-.12,1.61-.11,1.91-1.09.05-.17.26-.3.42-.42.65-.46,1.36-.88,2.08-.21.73.69.24,1.33-.24,1.93-.23.11-.32.23,0,.36Z"/><path class="cls-1" d="m265.12,126.22c.6-.69,1.25-1.3,2.1-1.65.92-.38,1.49-.09,1.78.88.16.54.33,1.07.48,1.61.23.82.57.75,1.02.15.45-.61,1-1.15,1.21-1.92.08-.29.35-.54.54-.8.23-.3.55-.37.9-.25.32.12.28.42.28.68,0,.43-.05.85-.18,1.27-.57,1.84-1.07,3.69-1.64,5.53-.11.34-.13.88-.64.91-.56.03-.99-.23-1.29-.77-.58-1.02-.61-1.01.51-1.42.58-.21.38-.78.55-1.17,0-.06.02-.17,0-.17-.15-.05-.25.02-.32.16-1.24.32-2.04-.21-2.4-1.6-.04-.15-.06-.3-.12-.46-.14-.35.07-.96-.35-1.04-.46-.08-.78.43-1.07.79-.58.72-1.06,1.54-1.86,2.06-1.32.87-2.04.57-2.33-.95-.03-.18-.07-.08-.11,0-.9.29-1.71.31-2.5-.38-2.15-1.89-2.17-1.86-4.58-.4-.14.09-.27.2-.41.28-1.08.56-1.81.08-1.8-1.01.02-1.1.51-2.04.6-3.09.08-.22.19-.44.02-.67.05,0,.09-.01.14-.02-.02,0-.04-.02-.05-.02-.03.01-.05.03-.08.05-.15.2-.3.4-.45.6-.86.86-1.42,1.93-2.16,2.87-.49.63-.97,1.27-1.71,1.67-.71.38-1.21.24-1.4-.56-.12-.5-.19-.63-.77-.42-1.6.59-2.08-.01-2.73-1.08-.38-.64-.85-1.11-1.48-1.48-1.22-.73-1.21-1.31,0-2.09.19-.12.39-.24.61-.37-.35-.38-.77-.42-1.13-.32-.52.15-.74-.03-.81-.5-.07-.48.2-.83.63-.88,1.1-.11,2.18.21,2.99.89.48.4.36,1.19-.33,1.6-.54.32-.66.6-.03.96.44.25.64.72.71,1.16.15.89.64.86,1.28.61.34-.13.75-.19,1-.42.65-.6,1.12-.22,1.61.2.04.11.07.3.12.31.18.02.26-.13.3-.29.85-1.11,1.69-2.23,2.54-3.34.18-.24.37-.48.59-.68.55-.48,1.12-1.14,1.91-.71.81.44.56,1.24.37,1.96-.17.67-.34,1.35-.43,2.04-.05.34-.51.9.07,1.01.42.08,1.08-.05,1.32-.64.13-.31.19-.65.6-.71.14,0,.27,0,.41,0,1.17.58,2.32,1.19,3.24,2.14.55.56.99.47,1.54,0,.75-.65,1.26-1.57,2.25-1.94.14,0,.27,0,.41,0,.79.41.36.99.22,1.53-.28.29-.43.65-.56,1.02-.02.1-.05.2-.07.29-.12,0-.15.08-.14.19,0,.03.03.05.05.08.04-.07.08-.15.12-.22.15.02.19-.08.22-.19.3-.23.51-.53.68-.87Z"/><path class="cls-1" d="m262.41,105.35c-.08,2.26-.32,4.45-2.22,6.08-.9.78-1.91,1.23-3.04,1.33-1.76.15-3.52.05-4.91-1.27-.42-.4-.7-.38-1.16,0-2.22,1.82-5.41,1.19-7.9-.35-1.84-1.13-2.9-4.09-2.23-6.35.31-1.06,1.05-1.94,2.13-2.48,1.84-.92,3.76-.95,5.72-.6.43.08.72-.07.87-.47,1.38-3.72,5.8-4.12,8.64-3.14,2.99,1.03,3.7,3.02,4.11,6.25.04.33,0,.67,0,1Zm-1.47-.08c0-.37.04-.74,0-1.1-.24-1.91-.67-3.74-2.7-4.57-2.13-.87-4.24-.93-6.17.54-1.23.93-1.3,1.81-.37,3.01,1.42,1.84,2.3,3.79,1.12,6.1-.23.45-.08.76.28,1.04,2.89,2.23,7.25.58,7.67-2.73.1-.76.23-1.52.18-2.29Zm-13.58-2.35c-.57,0-.88-.03-1.17,0-1.41.18-2.87.4-3.59,1.81-.76,1.47-.32,2.93.51,4.27.34.55.83.94,1.43,1.22.82.38,1.69.58,2.56.8,1.53.39,2.69-.21,3.65-1.23,1.11-1.19,1.38-2.68.75-4.18-.8-1.92-2.27-2.89-4.13-2.69Z"/><path class="cls-1" d="m229.65,56.32s.03.06.05.09c.96,1.18,2,1.34,3.39.61.64-.34,1.58-.21,2.13.62.84,1.25,2.12,1.25,3.41,1.05,1.9-.29,3.8-.23,5.69-.06,3.68.34,7.11,1.8,10.74,2.42,2.63.45,5.25,1,7.86,1.53.38.08.8.17,1.11.39,1.63,1.13,3.38.95,5.17.55,1.12-.25,2.26-.3,3.35.1.92.34,1.85.16,2.78.15.77,0,1.43.2,2.05.65,1.38,1,2.88,1.38,4.59,1.02.57-.12,1.51-.55,1.75.34.27,1.01-.91,1.1-1.41,1.13-1.87.12-3.83.35-5.43-1.03-.63-.55-1.31-.74-2.12-.66-1.06.11-2.13.08-3.14-.27-1.13-.39-2.19.1-3.24.27-1.4.22-2.73.37-3.97-.44-1.06-.69-2.26-.86-3.46-.97-.56-.06-.99-.33-1.49-.47-1.85-.54-3.78-.49-5.64-.93-2.31-.54-4.58-1.26-6.89-1.79-1.11-.25-2.22-.38-3.35-.47-1.68-.15-3.37-.15-5.03.03-1.24.13-2.52.21-3.39-.65-1.03-1.02-1.92-1.15-3.22-.6-.95.4-1.93-.05-2.53-.95-.38-.57-.75-.54-1.25-.22-.27.17-.61.25-.89.41-1.06.6-1.9-.11-2.02-1.29-.05-.53,0-1.07-.03-1.61-.01-.42.1-.78.57-.76.42.01.73.21.67.75-.05.43.01.87.02,1.3.03.24.18.24.36.2.87-.21,1.62-.93,2.62-.6.01.12.07.19.2.17Z"/><path class="cls-1" d="m128.89,29.45c.68-.49.94-1.28,1.34-1.97.52-.9,1.02-1.13,1.87-.56,1.49.99,2.87.67,4.23-.16.67-.41,1.24-.43,1.95-.05,1.56.81,3.18,1.5,4.96,1.69.56.06,1.17.22,1.02.93-.15.7-.8.58-1.33.5-1.66-.27-3.26-.72-4.73-1.55-.55-.31-1.02-.37-1.56.02-.71.52-1.6.64-2.41.9-.59.19-1.28-.01-1.74-.38-.78-.62-1.14-.43-1.52.4-.23.5-.64.93-1.03,1.34-.53.56-1.22.97-1.97.62-.73-.34-.97-1.11-1.08-1.88-.19-1.24.05-2.46.13-3.69.03-.13.03-.24-.16-.21-.57-.03-.88.14-1,.8-.25,1.36-1.89,2.63-3.28,2.62-.98,0-1.39-.73-1.53-1.56-.1-.59-.19-.81-.86-.54-1.66.67-2.3.45-3.21-1.12-.35-.61-.62-.67-1.09-.18-.21.22-.46.39-.7.57-1.76,1.24-3.52.78-4.29-1.23-.3-.77-.61-.81-1.21-.46-.17.1-.38.14-.55.25-1.27.78-2.4.44-3.43-.46-.51-.45-.84-.39-1.2.14-.26.39-.56.75-.87,1.1-.24.27-.56.38-.91.26-.37-.12-.48-.43-.53-.78-.16-1.21.44-2.32.45-3.52,0-.33.34-.57.74-.52.39.05.57.32.59.7.01.36,0,.73,0,1.19.96-.75,1.76-.51,2.52.25.59.58,1.3.63,2.04.3.37-.16.74-.32,1.11-.46,1.32-.52,1.91-.26,2.43,1.03.66,1.66,1.24,1.81,2.65.68.21-.17.41-.34.62-.5,1.23-.91,1.91-.77,2.68.53q.73,1.23,2.03.45c.93-.56,2-.02,2.26,1.06.1.42-.15,1.18.55,1.2.61.02,1.1-.42,1.34-1.03.05-.12.14-.24.15-.36.09-2,1.69-1.81,2.97-2.02.75-.12,1.22.23,1.15,1.09-.09,1.12-.13,2.25-.21,3.38-.03.42.06.79.25,1.15.04.07.07.19.12.2.14.04.24-.04.28-.18Z"/><path class="cls-1" d="m209.81,57.55c-.77,1.92-2.08,3.41-3.67,4.68-.14-.06-.18.03-.21.13l-.39.26c-.14-.05-.18.03-.19.15-.07.02-.14.04-.22.07-.14-.07-.17.02-.19.14-2.51,1.09-5.04,1.18-7.54.01-2.83-1.32-5.03-3.39-5.83-6.42-.64-2.39-.35-4.89.63-7.26,1.97-4.77,5.75-7.1,10.6-8,.92-.17,1.7.09,2.22.98.21.36.6.62.93.89,3.8,3.1,5.04,7.23,4.79,11.95-.04.8-.43,1.53-.78,2.25-.12,0-.19.03-.16.17Zm-16.51-.62c.37,1,.82,1.94,1.7,2.6,0,.35.31.3.51.41,1.42,1.63,3.3,2.31,5.37,2.4,5.14.24,8.49-4.8,8.48-8.78,0-4.22-1.85-7.66-5.4-10.09-.89-.61-1.75-.89-2.79-.38-.78.38-1.61.65-2.4,1-4.19,1.84-6.2,7.14-6.05,10.12.04.85.29,1.7.45,2.55-.06.14.02.17.14.18Z"/><path class="cls-1" d="m175.24,140.53c-.85.13-1.43-.34-1.96-.91,0,0-.02-.02-.02-.02.19-2.39.37-4.79.56-7.18.02-.23.07-.48.02-.7-.26-1.14.28-2.22.24-3.35-.02-.58.58-.73,1.18-.75,4.61-.16,9.21.17,13.82.19,1.3,0,2.6-.16,3.9-.02,1.11.12,1.41.43,1.07,1.56-.42,1.4-.82,2.8-1.05,4.24-.37,2.29-.89,4.56-.9,6.89,0,.42-.05.79-.41,1.06-.4,0-.81,0-1.21-.01-.78-.38-1.63-.23-2.44-.25-3.06-.07-6.1-.4-9.14-.59-1.03-.06-2.06-.1-3.09-.15-.18-.32-.37-.31-.57-.01Zm15.64-1.88c.05-.02.1-.04.16-.06-.05-.02-.1-.04-.16-.07.18-3.12.84-6.16,1.6-9.18-.1-.04-.16-.08-.22-.08-5.28.16-10.55-.39-15.83-.42-.6,0-.73.3-.81.76-.23,1.24-.21,2.53-.46,3.73-.35,1.68-.28,3.37-.53,5.04-.08.55.14.81.69.81.3,0,.6.08.9.06,2.29-.22,4.55.24,6.83.3,2.07.06,4.16.26,6.24.34,1.02.04,1.55-.21,1.59-1.25Z"/><path class="cls-1" d="m166.59,141.09c-4.53-.52-9.05-1.16-13.64-1.04-.7.02-1.4-.02-2.1-.08-1.24-.12-1.65-.63-1.55-1.91.17-2.04.37-4.07.54-6.11.05-.59.19-1.21-.33-1.69.01-.14.02-.27.03-.41.29-.32.64-.43,1.07-.43,3.24-.07,6.47-.27,9.72-.2,2.21.05,4.36-.56,6.57-.61.76-.02,1.19-.15,1.14.99-.15,3.37-.33,6.74-.23,10.11.01.41.15.88-.22,1.23-.34.05-.71-.15-1.01.15Zm-15.82-3.59c-.34.1-.19.37-.2.59v.4c-.01.12.02.17.15.13.27.02.53.06.8.05,2.81-.07,5.63.01,8.43.23,1.9.15,3.79.35,5.68.62.61.09.75-.04.74-.59-.07-2.74.03-5.48.24-8.22.04-.54-.11-.72-.66-.63-1.05.17-2.11.34-3.18.42-3.59.25-7.2,0-10.79.35-.52.05-.84.14-.81.72.1,1.99-.45,3.95-.39,5.94Z"/><path class="cls-1" d="m102.9,37.74c.46.24.91.06,1.35-.07.67-.2,1.32-.41,2.05-.42.66,0,1.17.15,1.56.69.42.59.96.63,1.6.4.65-.23,1.32-.42,1.99-.62.26-.08.48-.02.74.11,2.01.99,4.12,1.67,6.33,2.05.2.03.4.06.59.13,1.2.49,2.29.85,3.59-.06.82-.58,1.93-.07,2.51.86.88,1.41,2,1.74,3.56,1.19.88-.31,1.84-.4,2.62.4.28.29.65.31,1.03.18.47-.16.95-.32,1.43-.43,1.04-.24,1.98-.17,2.68.8.45.63,1.02,1.15,1.7,1.54.42.24.69.59.43,1.07-.28.5-.72.37-1.14.18-.75-.34-1.36-.89-1.83-1.53-.54-.73-1.12-.8-1.9-.5-.78.3-1.59.49-2.45.37-.27-.04-.57-.06-.74-.23-.66-.66-1.33-.34-2.08-.22-1.62.25-3.11,0-4.16-1.52-.78-1.12-1-1.14-2.07-.26-.82.67-1.52.79-2.39.05-.8-.68-1.9-.6-2.87-.75-1.49-.23-2.85-.81-4.23-1.31-.97-.35-1.86-.45-2.79-.15-1.23.39-2.31.35-3.14-.77-.36-.49-.84-.42-1.25-.18-.83.48-1.73.56-2.65.55-.79-.01-1.64-.92-1.61-1.71.03-.54.24-1.04.85-1.05.61,0,.58.52.58.96-.05.13,0,.22.13.26Z"/><path class="cls-1" d="m106.34,87.68c.07-.07.14-.14.2-.2,2.8,0,5.51.2,7.7,2.33,1.03,1,2.36,1.02,3.7.64.61-.17,1.21-.35,1.83-.47.9-.18,1.8-.28,2.6.33.91.69,1.92.68,2.96.46,1.24-.27,2.44-.67,3.73-.72.92-.03,1.54.33,1.91,1.15.12.27.27.54.39.81.33.75.84.86,1.53.47.75-.43,1.51-.87,2.29-1.23.81-.37,1.61-.31,2.14.47,1.37,2,3.46,2.48,5.65,2.75.23.03.47.03.7.04.45.02.81.17.81.69,0,.5-.35.71-.79.73-2.74.1-5.2-.64-7.05-2.74-.55-.62-.93-.69-1.56-.29-.53.34-1.09.66-1.65.94-1.43.72-2.51.39-3.3-.99-.7-1.23-1.15-1.39-2.56-1.05-.86.21-1.72.4-2.6.5-1.18.14-2.34.06-3.35-.71-.47-.36-.98-.3-1.53-.2-1.11.19-2.16.63-3.29.72-1.44.11-2.67-.37-3.61-1.34-1.5-1.56-3.44-1.66-5.36-1.89-.76-.09-1.61-.04-1.51-1.2Z"/><path class="cls-1" d="m169.2,93.66c.06.03.12.04.19.04.04.1.07.2.21.12l.22.07c0,.12.05.2.19.15.13.08.25.17.38.25.04.1.08.2.22.13.21.09.42.17.63.26,0,.11.03.2.17.13,1.86.39,3.56-.13,5.27-.78,1.48-.56,3.01-.68,4.4.32,1.22.87,2.53.93,3.88.43,1.84-.68,3.62-.8,5.38.3.86.54,1.91.15,2.71-.06,1.85-.48,3.55-.12,5.28.34.9.24,1.8.5,2.68.82.39.14.7.45.4.94-.22.36-.41.61-.99.42-1.55-.5-3.13-.94-4.73-1.25-.93-.18-1.9.09-2.81.38-1.53.48-2.89.27-4.17-.68-.56-.42-1.2-.36-1.83-.19-.83.23-1.64.52-2.48.67-1.51.26-2.93-.05-4.2-.92-.85-.58-1.73-.59-2.67-.24-1.27.47-2.56.91-3.91,1.11-1.5.23-2.84-.26-4.01-1.04-.96-.64-1.82-.8-2.87-.35-.54.23-1.12.36-1.73.33-.57-.03-.93-.13-.86-.84.08-.69.48-.77.98-.6.36.12.69.06.97-.07.94-.42,1.93-.39,2.92-.36,0,.12.05.19.18.17Z"/><path class="cls-1" d="m113.97,134.6c.06.02.14.02.19.06,1.89,1.49,2.17,1.27,4.18-.48.33-.28.58-.65.92-.91.62-.49,1.43-.29,1.55.47.29,1.83.97,3.41,2.36,4.68.27.24.32.72.47,1.08,0,.18-.1.44.12.51.19.07.33-.13.4-.32,1.4-1.44,2.95-2.71,4.56-3.91.78-.58,1.24-.4,1.5.52.18.66.04,1.33.21,1.96.24.87.53,1.72,1.24,2.37.33.3.41.7,0,1.04-.34.28-.64.31-1.04-.03-.86-.74-1.24-1.72-1.57-2.75-.12-.37-.2-.76-.31-1.21-1.17.72-2.1,1.63-3.02,2.55-.4.4-.78.84-1.21,1.2-1.15.96-2.01.66-2.22-.8-.13-.9-.42-1.64-1.13-2.26-.94-.83-1.28-2-1.56-3.33-.41.39-.73.7-1.06,1-1.47,1.3-2.9,1.44-4.45.28-.68-.51-1.07-.45-1.51.22-.2.3-.5.54-.75.81-.98,1.1-2.43.7-2.75-.73-.25-1.14-.02-2.12.25-3.16.08-.29.31-.41.6-.43.2,0,.4,0,.61,0,.38-.05.52.36.83.44,0,.21,0,.42.01.62-.89.25-1.23.82-1.04,1.72.04.18-.06.42.22.48.23.05.34-.11.47-.28.2-.26.44-.49.65-.75.54-.67,1.21-.99,2.08-.79.02.11.04.2.19.13Z"/><path class="cls-1" d="m247.92,132.05c.25.49.52.98.75,1.48.6,1.26.6,1.28,1.84.77.55-.23,1.04-.58,1.58-.83.97-.45,1.51-.28,1.89.7.18.47.42.51.81.5,2.79-.03,5.55.54,8.34.61.86.02,1.15.69,1.33,1.41-.03.11,0,.16.12.11.28-.08.58-.13.85-.26,1.44-.67,2.74-.7,3.91.57.43.47,1.01.76,1.7.73.34-.01.57.17.61.53.03.33-.09.6-.4.74-.57.25-1.14.26-1.7-.03-.12-.06-.23-.13-.33-.22-1.2-1.13-2.4-1.59-4.04-.66-1.02.58-1.68.13-2.19-.95-.17-.37-.35-.59-.87-.59-2.76.02-5.47-.73-8.25-.58-.36.02-.76-.18-.85-.44-.34-.96-.85-.47-1.36-.24-.27.12-.56.22-.84.32-1.82.66-2.44.47-3.3-1.25-.4-.81-.82-.95-1.62-.62-1.15.47-2.29.35-3.15-.64-.49-.56-1-.34-1.42-.11-.65.35-1.28.05-1.5-.31-.39-.64-.28-1.46-.03-2.2.19-.56.58-.68,1.11-.55,0,.12.05.19.18.14.08.16.17.31.25.47-.06.21-.08.44-.18.62-.31.53.12.32.33.34.97.04,1.87.02,2.66.9.49.54,1.37-.01,1.94-.4.54-.37,1.02-.5,1.62-.25.01.12.07.19.2.19Z"/><path class="cls-1" d="m240.84,50.13c1.3-.14,2.49.06,3.68.25,1.65.27,3.26.21,4.84-.33.84-.29,1.65-.23,2.34.4.89.81,1.89.9,2.98.47.4-.16.82-.29,1.24-.4.94-.24,1.6.04,2.03.96.78,1.65,2.3,2.15,3.9,1.29.85-.46,1.64-1.02,2.46-1.54.4-.25.78-.5,1.28-.52,1.26-.07,1.5.08,1.8,1.33.25,1.08.67,2.1,1.05,3.13.12.32.23.64.16.97-.08.44-.34.69-.82.73-.5.04-.48-.33-.58-.64-.39-1.21-.82-2.4-1.17-3.62-.14-.47-.31-.53-.68-.29-.73.47-1.46.93-2.19,1.42-2.31,1.55-4.93,1.32-6.49-1.48-.16-.28-.33-.39-.64-.27-.38.14-.78.21-1.14.39-1.45.71-2.71.31-3.86-.64-.5-.42-.96-.47-1.56-.26-2.19.77-4.4.45-6.61.06-1.22-.22-2.45-.27-3.69-.1-.43.06-.85.05-.94-.47-.1-.56.28-.81.76-.84.63-.04,1.27-.01,1.82-.01Z"/><path class="cls-1" d="m224.63,86.68c-.23.13-.45.29-.69.39-1.01.45-1.72.15-1.87-.9-.12-.84-.27-1.68-.3-2.54-.03-1.02.22-1.56,1.32-1.46.27,1.12-.02,2.32.45,3.51.66-.45,1.23-1.2,2.12-.58.11.08.3.11.33.21.46,1.48,1.51,1.09,2.5.76,1.05-.35,2.04-.13,3.01.22,1.05.38,2.04.59,3.24.48,2.25-.22,4.53.01,6.76.54,1.7.4,3.43.63,5.1,1.17,1.63.53,3.04,1.53,4.67,2.04.45.14.67.59.44,1.07-.23.48-.66.36-1.05.23-1.41-.47-2.72-1.18-4.1-1.68-1.8-.66-3.68-1.09-5.63-1.32-1.45-.17-2.89-.54-4.38-.53-.77,0-1.49.24-2.26.25-1.15.02-2.18-.31-3.21-.73-.85-.35-1.74-.51-2.58-.17-1.4.56-2.5.32-3.35-.94-.17-.35-.35-.29-.52,0Z"/><path class="cls-1" d="m173.01,107.09c.98.1,1.85-.24,2.68-.67,1.47-.76,3.02-1.24,4.65-1.4.71-.07,1.46.1,2.02.63.85.79,1.79,1.05,2.95.73.71-.2,1.46-.12,2.09.4.54.45,1.17.41,1.81.26,1.47-.34,2.94-.61,4.45-.69.64-.03,1.28.01,1.81.45.49.41.55.91.18,1.42-.37.51-.68.18-1.09-.04-.75-.42-1.61-.24-2.42-.13-1.16.16-2.31.39-3.47.55-.46.07-.98.07-1.37-.2-.89-.64-1.81-.62-2.83-.41-.77.16-1.6-.02-2.17-.57-1.1-1.07-2.3-.88-3.6-.57-1.35.33-2.52,1.07-3.81,1.51-1.2.42-2.39.4-3.23-.49-.7-.74-1.34-.53-1.94-.24-1.65.79-3.17,1-4.52-.52-.2-.23-.44-.17-.73-.15-.87.06-1.74.05-2.61.03-.46-.01-.84-.27-1.05-.67-.19-.36-.01-.64.34-.8.14,0,.27.02.41.03.77.47,1.65.32,2.42.17.65-.13,1.21-.09,1.81.07,0,.13.07.19.19.2.15.25.34.46.6.6.02.1.06.19.19.14.72.62,1.42.14,2.01-.18,1.48-.78,2.81-.81,4.04.44,0,.12.03.2.18.14Z"/><path class="cls-1" d="m289.89,28.1c1.1,1.49,1.1,1.63-.14,2.91-.2.2-.2.39-.22.62-.16,1.36-.62,2.63.43,4.01.64.83.11,2.15-.37,3.16-.35.74-1.12.73-1.98.7.46.89.48,1.76.5,2.65.02,1.06-.15,2-.91,2.76-.29.29-.17.47.03.75,1.84,2.6,1.04,4.46-2.14,5.01-.26.05-.53.08-.8.1-.46.04-.93.01-.99-.57-.05-.53.36-.77.81-.86.65-.13,1.31-.2,1.92-.53.8-.43.92-.99.44-1.72-.2-.3-.44-.58-.69-.85-.63-.69-.64-1.35.05-2.01.97-.93,1.17-2.05.76-3.31-.21-.63-.43-1.27-.36-1.96.07-.69.36-1.1,1.13-1.11.37,0,.93.31,1.11-.32.2-.7.49-1.51-.19-2.07-1.04-.87-1.01-1.78-.35-2.83.2-.32.28-.69.19-1.06-.17-.77-.08-1.39.76-1.71.44-.17.31-.42.04-.66-.35-.31-.7-.62-1.02-.96-.35-.38-.42-.84-.21-1.31.21-.46.63-.54,1.1-.51.39.03.8-.06,1.17.18.33.21.77.31.75.83-.02.49-.42.59-.82.66Z"/><path class="cls-1" d="m154.54,29.47c-2.92-.18-4.89-1.82-6.16-4.33-1.85-3.68.63-7.54,4.78-7.55,3.43,0,6.31,2.06,7.05,5.06.63,2.55-.69,5.19-3.06,6.31-.84.39-1.68.5-2.61.51Zm4.39-5.56c-.01-.1-.03-.4-.1-.69-.65-2.8-3.73-4.75-6.56-4.18-2.43.49-3.7,2.85-2.76,5.13.63,1.51,1.72,2.63,3.15,3.37,2.75,1.42,6.25-.52,6.26-3.62Z"/><path class="cls-1" d="m137.16,40.49c-.37.05-.92-.17-1.49-.31-.53-.13-1.03-.12-1.56.06-1.99.69-2.89.24-3.65-1.8-.48-1.29-.48-1.28-1.83-.93-1.02.26-2.02.6-3.12.6-.96,0-1.79-.25-2.35-.97-.61-.79-1.35-.76-2.14-.57-.78.19-1.55.37-2.37.36-.68-.01-1.28-.2-1.65-.77-.36-.55-.76-.54-1.28-.29-.33.16-.7.23-1.03.39-.92.42-1.7.17-2.31-.53-.47-.53-1-.39-1.56-.38-.97,0-1.5-.79-1.15-1.7.12-.3.3-.52.64-.55.3-.02.53.13.6.42.05.2.15.51.29.47,1.51-.36,2.74,1.75,4.44.4.59-.47,1.65-.34,2.19.57.39.65.99.63,1.59.5.75-.15,1.48-.38,2.23-.55.72-.16,1.47-.14,1.92.51.91,1.35,2.18,1.22,3.49.97.72-.13,1.42-.4,2.14-.52,1.27-.2,1.92.2,2.44,1.39.03.06.05.12.07.19.71,1.7.69,1.62,2.44,1.22,1.34-.31,2.66.12,3.93.58.35.13.49.48.37.84-.18.58-.67.42-1.32.41Z"/><path class="cls-1" d="m178.44,57.56c-2.26.98-4.46.88-6.6-.36-2.24-1.3-3.22-3.41-2.6-5.9.4-1.61,1.32-2.98,2.61-3.99,1.99-1.56,3.98-1.59,6.2-.15,1.25.81,2.25,1.89,2.89,3.26.53,1.15.55,2.34.05,3.5-.56,1.3-1.02,2.67-2.35,3.45-.13,0-.19.07-.2.2Zm-3.13-.81c3.1.17,4.15-1.96,4.52-4.52.28-1.96-2.58-4.52-4.71-4.51-2.4.01-4.35,2.25-4.53,4.62-.21,2.77,2.26,4.47,4.72,4.41Z"/><path class="cls-1" d="m209.59,125.28c.49-.39.85-.63,1.16-.93.68-.68,1.84-.86,2.43-.12.9,1.15,1.96,1.12,3.11.75,1.08-.34,1.97-.1,2.76.64.49.46,1.08.74,1.71.74,3.4,0,6.64.92,9.9,1.71,1.08.26,2.24.24,3.36.36.51.05,1.06.11,1.05.8,0,.58.03,1.16-.94.8-1.23-.45-2.6-.01-3.87-.4-.21-.06-.43-.06-.65-.14-2.64-.98-5.38-1.41-8.19-1.46-1.16-.02-2.27-.37-3.15-1.17-.51-.46-1.05-.49-1.67-.35-1.5.33-2.98.52-4.05-.97-.26-.36-.54-.3-.86-.08-.49.35-.97.72-1.49,1.01-1.05.58-1.89.15-2.01-1.03-.07-.66-.04-1.33-.03-2,0-.49.36-.59.75-.61.41-.02.65.18.66.58.02.56,0,1.12,0,1.88Z"/><path class="cls-1" d="m237.62,122.81c-.18.55-.35,1.08-1.15.71-1.69-.77-3.45-1.39-5.29-1.65-1.69-.24-3.35-.54-4.95-1.13-.13-.05-.27-.07-.37-.14-1.05-.79-2.26-.72-3.35-.36-1.27.42-2.22.02-3.09-.73-.66-.57-1.28-.59-2.03-.29-.68.27-1.4.45-2.06.76-1.06.5-1.92.18-2.72-.51-.47-.4-.74-.97-1.39-1.23-.44-.18-.38-.75-.09-1.14.31-.41.73-.43,1.15-.15.4.27.6.71.87,1.09.45.63.98.92,1.78.59.81-.34,1.65-.61,2.48-.89.79-.27,1.66-.37,2.27.24.89.89,1.9.85,2.97.68,1.72-.27,3.29.13,4.86.86,1.28.59,2.76.6,4.14.88,1.81.37,3.6.82,5.27,1.64.31.15.71.27.69.76Z"/><path class="cls-1" d="m117.26,123.66c-.2.11-.4.23-.61.34-2.3,1.24-3.7.84-4.96-1.43-.25-.45-.45-.81-1.1-.78-.48.02-.73-.42-.7-.92.03-.48.34-.7.8-.73.65-.04,1.18.19,1.55.72.23.33.42.68.62,1.03.84,1.54,1.6,1.75,3.15.85.35-.2.67-.44,1.02-.64.96-.54,1.55-.31,1.7.79.13.97.53.83,1.1.43.61-.42,1.12-.95,1.6-1.51.52-.62,1.16-.72,1.9-.56,2.42.52,4.95.74,6.96,2.42.39.33.51-.04.68-.27.54-.73,1.13-1.41,1.88-1.93.43-.3.88-.42,1.22.09.32.48.13.9-.36,1.17-.76.42-1.24,1.1-1.71,1.79-.76,1.11-1.27,1.3-2.29.5-1.97-1.54-4.29-1.92-6.63-2.33-.38-.07-.55.12-.77.32-.48.46-.94.96-1.47,1.36-1.52,1.17-2.63.93-3.58-.71Z"/><path class="cls-1" d="m216.61,94.59c.61-.31.99.27,1.5.37,1.97.38,3.91.93,5.88,1.25,1.5.25,2.97.6,4.45.91.66.14,1.31.21,1.98.2.53-.01,1.06-.02,1.41.52.21.33.6.37.9.26,1.45-.51,2.8.07,4.19.28.62.1,1.24.2,1.86.33.53.11,1.09.22.95.99-.15.85-.85.73-1.33.59-1.14-.32-2.34-.39-3.46-.82-.5-.19-1.08-.21-1.62.06-.49.25-1.04.34-1.55.12-3.16-1.32-6.57-1.56-9.86-2.34-1.81-.43-3.64-.84-5.45-1.28-.59-.15-.67-.64-.62-1.16.06-.6.53-.18.77-.28Z"/><path class="cls-1" d="m182.22,30.72c0-.49.14-.88.69-.93.56-.05.72.28.74.82.04,1.05.33,1.23,1.21.64,1.3-.88,2.53-1.12,3.86-.08.51.4,1.05.13,1.48-.18,1.11-.79,2.18-.71,3.26.02.33.22.59.27.99.07,1.61-.84,3.36-1.13,5.16-1.27.94-.07,1.8-.7,2.81-.64.75.04,1.37.28,1.86.84.26.3.39.65.1,1-.28.34-.68.36-.99.09-.8-.69-1.61-.47-2.44-.14-.94.38-1.9.64-2.93.46-.64-.11-1.17.23-1.7.5-1.36.68-2.71,1.16-4.1.09-.4-.31-.77-.09-1.11.13-1.23.78-2.43.86-3.63-.05-.39-.3-.79-.29-1.21-.03-.31.2-.63.37-.96.54-1.64.85-3.09-.02-3.09-1.87Z"/><path class="cls-1" d="m188.24,23.74c.93-.92,1.89-.94,2.94-.32.62.37,1.25.12,1.8-.21,1.33-.8,2.63-1.16,3.94.03.33.3.75.25,1.13.04,2.49-1.35,5.16-.64,7.76-.68.49,0,.83.31.77.85-.06.52-.45.6-.89.59-1.47-.04-2.94-.07-4.4-.12-.76-.03-1.45.15-2.12.49-1.19.61-2.36.72-3.44-.24-.45-.39-.91-.3-1.39-.05-.62.31-1.23.65-1.94.79-.65.13-1.26.16-1.81-.22-.61-.43-1.09-.29-1.57.22-.44.46-.93,1-1.64.66-.68-.33-.75-1.03-.72-1.72.02-.3-.03-.61.01-.9.08-.51.46-.75.91-.71.5.04.78.36.62.91-.05.16-.14.31.03.58Z"/><path class="cls-1" d="m189.06,18.95c.65-.84,1.36-1.56,2.59-.93.32.16.6-.22.86-.41,1.15-.87,1.73-.94,2.88-.13.58.41,1.08.47,1.76.25.96-.32,2.01-.25,2.97-.11,1.58.23,3.13.02,4.69,0,1.03-.02,2.07-.03,3.1-.04.49,0,.88.16.87.73,0,.52-.39.69-.82.67-2.76-.09-5.5.54-8.27.05-.79-.14-1.66-.17-2.46.17-.81.34-1.61.26-2.26-.31-.74-.64-1.34-.59-1.96.11-.07.07-.16.15-.24.17-1.3.24-2.59.4-3.75,1.21-.53.36-1.78-.87-1.68-1.58.07-.55.45-.75.94-.51.28.14.49.41.79.67Z"/><path class="cls-1" d="m209.18,132.84c4.87.54,9.71,1.25,14.46,2.48,2.01.52,4.03,1.03,6.04,1.52.56.14,1.01.38.79,1.01-.19.54-.58.72-1.26.52-3.55-1.04-7.13-1.95-10.74-2.73-2.27-.49-4.55-.83-6.86-1-.86-.06-1.72-.36-2.6-.46-.38-.04-1-.11-.9-.81.09-.7.64-.54,1.08-.54Z"/><path class="cls-1" d="m177.44,150.92c.11.28.5.53.1.86-.28.23-.5.47-.96.27-.59-.26-1.25-.06-1.88-.11-.33-.02-.65.05-.97-.13-.75-.43-1.42-.51-2.29-.03-.66.36-1.62.11-2.38-.12-.49-.15-.81-.12-1.18.15-.57.41-1.16.77-1.82,1.02-.27.1-.56.2-.76.11-.85-.42-1.74-.5-2.67-.54-.36-.02-.7-.15-1.11-.05-.86.21-1.27-.21-1.36-1.08-.07-.74.1-1.39.45-2,.24-.43.63-.56,1.09-.37.44.19.59.52.34.97-.14.26-.38.76-.23.77.55.03,1.04.63,1.58.24.77-.54,1.39-.61,1.9.32.2.36.52.24.78.08.46-.27.89-.59,1.34-.88.52-.34,1.05-.61,1.68-.3.3.15.56.13.81-.13.11-.11.34-.24.44-.19,1.09.49,2.47-.55,3.18.09,1.2,1.08,2.59.32,3.75.88,0,.13.06.19.19.19Z"/><path class="cls-1" d="m275.97,97.15c-2.05.01-3.04-1.03-3.87-2.19-1.53-2.14-.71-4.23.91-5.8.27-.26.58-.47.97-.47,1.99.02,4.48,1.32,5.24,3.1,1,2.35-1.12,5.5-3.25,5.36Zm-.92-6.66c-1.43,0-2.23.77-2.24,2.15,0,1.5,1.37,2.98,2.79,3.03,1.22.04,2.44-1.27,2.41-2.59-.03-1.24-1.56-2.59-2.96-2.59Z"/><path class="cls-1" d="m179.93,119.78c3.01-.15,6,.19,9.01.25.69.02,1.38.22,2.08.18.48-.03.8.25.82.69.02.41-.35.65-.73.7-.39.05-.8.01-1.2,0-2.45-.14-4.91-.25-7.37-.3-2.69-.06-5.38,0-8.07-.09-.42-.01-.85-.06-1.28.11-.59.25-.88-.13-.97-.64-.09-.53.25-.63.72-.69,2.32-.32,4.66-.13,6.99-.21Z"/><path class="cls-1" d="m163.69,121.82c-1.26.27-2.16-.48-3.07-1.1-.66-.46-1.22-.43-1.84-.07-.14.08-.28.19-.43.25-.73.27-1.45.92-2.27.28-.85-.66-1.42-2.32-1.12-3.23.12-.35.35-.67.76-.71.45-.04.65.3.78.65.07.18.08.39.08.59-.02,1.71,0,1.75,1.49.95,1.21-.64,2.32-.68,3.45.18,1.19.9,2.51.85,3.87.41,1.13-.36,2.28-.7,3.48-.68.5.01,1.09-.02,1.14.67.06.72-.5.68-1.02.78-1.33.25-2.65.51-3.95.89-.48.14-.92.03-1.36.13Z"/><path class="cls-1" d="m272.22,107.11c.28,2.16-1.61,3.22-3.13,3.83-.41.17-.7-.2-.98-.37-1.17-.71-2.34-1.49-2.3-3.06.03-.95.58-1.74,1.27-2.39.42-.4,1.02-.59,1.29-1.2.14-.32.59-.28.91-.21,1.63.37,3.19,1.65,2.93,3.4Zm-2.79-1.36c-1.24,0-2.19.76-2.2,1.78,0,.69,1.08,1.83,1.74,1.83.83,0,2-1.31,1.99-2.22-.01-.88-.57-1.39-1.53-1.39Z"/><path class="cls-1" d="m226.8,46.85c.01-.42,0-.89.2-1.32.25-.52.64-.79,1.21-.47.53.3.65.69.23,1.22-.35.44-.24,2.18.09,2.67.14.21.3.24.5.16.09-.04.19-.08.26-.15,1.44-1.22,2.65-1.25,3.96.35.62.75,1.83.86,2.86.38.46-.21.93-.4,1.15.23.19.57-.18.95-.67,1.18-1.28.6-3.64.15-4.62-.97-.51-.58-.91-.75-1.54-.22-.3.25-.68.43-1.05.56-1.04.37-1.76.02-2.13-1.02-.29-.82-.41-1.68-.44-2.61Z"/><path class="cls-1" d="m115.61,146.43c-.04,1.44-1.93,2.53-3.21,1.98-.7-.3-1.17-.82-1.55-1.37-.76-1.09.23-3.11,1.57-3.34.25-.04.63-.08.77.06.56.54,1.33.76,1.87,1.27.36.34.61.88.55,1.39Zm-2.76-.91c-.4-.03-.81.03-.78.43.04.58.33,1.11,1.01,1.17.49.04,1.07-.11,1.06-.65-.02-.75-.79-.76-1.29-.95Z"/><path class="cls-1" d="m127.83,147.72c-.06,1.46-1.39,2.54-3.03,2.46-1.04-.06-1.84-.93-1.82-2,.02-1.24,1.82-3,2.99-2.93,1.03.06,1.91,1.23,1.86,2.48Zm-2.04-.78c-.95.02-1.44.44-1.42,1.18.02.48.26.82.73.73.67-.14,1.3-.43,1.34-1.26.02-.43-.2-.7-.66-.65Z"/><path class="cls-1" d="m103.33,32.51c.67-.1,1.34-.13,1.9.35.34.3.67.22,1.01.01.54-.32,1.08-.66,1.64-.95.34-.17.74-.21.99.17.27.41.09.77-.28,1.02-.74.51-1.51.97-2.36,1.28-.35.13-.79.23-1.07.02-.76-.59-1.54-.49-2.41-.38-1.1.13-1.83-1.07-1.36-2.06.17-.37.47-.55.88-.54.55,0,.88.26.92.83-.01.06-.03.13-.04.19-.02.02-.04.04-.05.07,0,0,.02.03.03.04,0-.04,0-.08,0-.12.07.02.15.04.22.07Z"/><path class="cls-1" d="m106.97,57.36c-.97.64-1.99.54-3,.13-.77-.32-1.43-.82-2.03-1.41-1.43-1.4-1.63-3.03-.61-4.72,1.44-2.4,3.62-2.31,5.67-.92,1.81,1.24,1.82,3.35,1.4,5.26-.15.66-.66,1.12-1.25,1.46-.13,0-.19.06-.19.19Zm.18-3.23c0-.07,0-.13,0-.2-.02-1.95-1.56-3.27-3.46-2.98-1.2.19-2,2.52-1.22,3.6.46.64,1.07,1.09,1.78,1.43,1.72.82,2.91.06,2.9-1.85Z"/><path class="cls-1" d="m147.51,56.91c1.01,2.29-.84,4.31-2.35,4.64-1.49.33-2.84-.72-2.88-2.25-.06-2.16,1.99-3.94,4.1-3.57.59.1.71.63.98,1.02-.04.13.02.18.15.15Zm-1.1,1.26c-.03-.82-.42-1.08-1.16-.85-.72.22-1.21.68-1.46,1.38-.17.47-.14.95.25,1.29.41.37.88.22,1.29-.04.66-.42,1.01-1.04,1.08-1.78Z"/></svg>