<?xml version="1.0" encoding="UTF-8"?><svg id="Layer_1" xmlns="http://www.w3.org/2000/svg" viewBox="0 0 297.64 264.59"><defs><style>.cls-1{fill:#fff;}</style></defs><path class="cls-1" d="m264.92,193.85c.39.18.59.71,1.11.66.2.33.46.54.87.51.46.47,1.03.73,1.65.89.05.13.1.28.29.16.1.04.21.07.31.11,0,.17.05.28.26.2.52.38.99.85,1.68.94.05.13.09.28.28.16.1.04.21.07.31.11,0,.17.05.28.26.2.19.11.39.22.58.33.09.28.31.32.56.29.47.49,1.08.7,1.71.86,0,.16.03.28.24.18.1.03.21.07.31.1,0,.18.08.28.27.23.27.38.66.54,1.1.62.05.13.09.27.28.16.11.04.22.08.33.11,0,.16.04.28.24.19.1.03.2.06.3.1,0,.18.1.27.28.28.08.31.39.16.57.28,0,.18.09.27.27.28.47.28.94.56,1.41.85.03.19.06.38.09.57-.01.19-.03.38-.04.58-.3.07-.5.26-.61.54-1.34-.34-2.4-1.16-3.47-1.97.06-.17,0-.23-.17-.18-.57,0-1.01-.3-1.43-.65,0-.17-.06-.28-.26-.2-1.11-.52-2.26-.97-3.21-1.78.07-.17,0-.22-.16-.17-.67-.31-1.33-.63-2-.94-.13-.42-.44-.53-.84-.49-2.91-1.49-5.67-3.24-8.47-4.92-2.4-1.44-5.04-2.49-7.33-4.16.06-.18,0-.24-.18-.19-2.2-.68-3.88-2.29-5.89-3.32-1.51-.77-2.9-1.77-4.34-2.67.07-.17,0-.22-.16-.17-.93-.13-1.65-.68-2.36-1.23.07-.17,0-.22-.16-.17-5.9-2.89-11.91-5.57-17.67-8.76-.92-.51-1.85-1.01-2.64-1.73.04-.18.01-.27-.19-.15-.1-.04-.21-.08-.31-.12,0-.18-.07-.27-.26-.25-2.3-1.12-4.44-2.51-6.43-4.1-1.16-.93-2.7-1.36-3.55-2.69.05-.15.04-.21-.12-.09-.89-.4-1.46-1.17-2.11-1.85-.06-.43-.38-.48-.73-.48-1.16-1.15-2.32-2.31-3.47-3.46,0-.5-.29-.73-.75-.81-2.51-2.41-4.01-5.37-4.76-8.74.07-.05.14-.09.22-.14-.08-.04-.15-.08-.23-.12-.37-.67-.75-1.34-1.12-2.01.07-.04.14-.08.21-.13l-.22-.09c-.9-1.5-1.96-2.9-2.59-4.55.04-.17-.01-.25-.2-.18-2.9-4.3-5.89-8.55-8.64-12.95-.63-1.01-1.62-1.89-1.85-3.16.04-.16,0-.23-.18-.16-.85-1.07-1.63-2.18-2.07-3.49.03-.15,0-.22-.17-.15-1.71-2.48-3.35-5-5.14-7.42-1.72-2.31-3.22-4.81-5.45-6.71-.84-.71-1.75-1.34-2.63-2.01.04-.43-.1-.64-.56-.47-2.4-1.11-4.94-1.85-7.37-2.87-.44-.18-1.01-.16-1.35-.59-.01-.18-.09-.28-.28-.24-2.45-1.24-4.91-2.48-7.34-3.74-.58-.3-.82.12-.96.45-.22.48-.26,1.04-.39,1.57-.16.02-.28.07-.21.27-.3.95-.61,1.91-.91,2.86-.16,0-.27.04-.2.23-.08.71-.79,1.7.75,1.69.01.17.09.27.28.23.65.3,1.3.6,1.96.89.05.13.09.27.28.16.1.04.2.07.31.11,0,.18.09.27.27.27.08.33.42.12.59.28.02.28.25.38.45.49.11.03.22.06.33.09.05.14.11.27.3.19.19.12.37.25.56.37.05.13.08.29.28.16.1.04.2.07.31.11,0,.18.09.27.27.28.45.33.83.77,1.42.84,0,.18.09.27.26.28,1.75,1.42,3.5,2.83,5.26,4.24.17.14.41.18.62.27.05.14.1.27.29.17.1.03.2.07.29.1,0,.18.1.27.28.27.65.38,1.29.76,1.94,1.14.05.14.11.27.3.19.39.17.58.7,1.1.66.05.14.1.28.3.17.11.03.21.06.32.09,0,.17.07.27.25.23.57.2,1.14.41,1.7.61,0,.17.08.27.26.23.93.49,1.87.97,2.8,1.46.04.14.09.28.28.17.39.19.58.71,1.11.68.05.14.11.27.3.19.18.12.37.24.55.37.05.14.1.27.29.18.19.13.38.25.57.38.05.12.07.29.27.15,1.49.73,1.79,1.4.91,2.04-.3.22-.55.41-1.06.05-2.5-1.75-5.15-3.27-7.87-4.67-.56-.29-1.19-.44-1.79-.66-.01-.18-.1-.27-.28-.26-2.86-1.33-5.46-3.06-7.9-5.06-.06-.29-.07-.63-.53-.52-3.33-2.35-6.54-4.91-10.48-6.24-.56-.19-1.07-.53-1.6-.8-.11-.3-.33-.25-.56-.17-4.78-1.88-9.81-2.95-14.7-4.45-4.89-1.5-9.83-2.82-14.75-4.21-4.35-1.24-8.64-2.72-13.12-3.42-3.54-.55-7-1.49-10.58-1.85-5.69-.57-11.38-1.02-17.1-.81-1.6.06-3.18.36-4.78.53-.3.03-.63.07-.56.44.18.97-.51,1.57-.95,2.25-1.3,2-1.66,4.25-1.77,6.55-.1,2-.67,2.77-2.59,3.23-.3-.03-.71-.27-.86.06-.11.24.28.42.53.54,2.12,1.89,4.62,2.85,7.36,3.63,3.3.94,6.66.63,9.93,1.19,3.57.61,6.93,2.06,10.33,3.29,11.45,4.16,22.62,9.02,33.98,13.42.91.35,1.84.55,2.77.82.19.19.38.37.57.56-.24,1.41-.64,1.64-2.09,1.2-4.63-1.41-9-3.48-13.49-5.25-5.19-2.04-10.32-4.27-15.55-6.18-3.43-1.25-6.76-2.76-10.25-3.85-1.76-.55-3.98.12-4.97,1.59-1.84,2.73-3.24,5.54-2.26,9.04.25.88-.03,1.94.12,2.91-.13.21.02.23.17.25.02.1.05.2.07.3-.05.19.05.25.22.24,1.06,2.7,3.23,4.34,5.59,5.73,6.35,3.74,12.81,7.28,19.26,10.84,2.73,1.5,5.39,3.14,8.04,4.78.5.31,1.47.64.94,1.54-.51.86-1.29.56-1.95.1-3.33-2.27-6.96-4.03-10.38-6.15-2.46-1.53-5.14-2.79-7.67-4.26-2.04-1.18-4.2-2.13-6.16-3.45-1.5-1.01-3.3-.57-4.5.86-.34.4-.7.76-1.13,1.02-3.91,2.36-4.93,6.04-4.54,10.23.18,1.88,1.11,3.53,2.59,4.84,5.32,4.71,11.54,7.98,17.77,11.23,4.45,2.31,8.69,4.92,12.35,8.4.38.36.46.7.26,1.11-.25.5-.74.62-1.2.41-.5-.22-1.03-.5-1.39-.9-1.94-2.15-4.41-3.54-6.82-5.05-2.93-1.83-6.22-3.01-9.03-5.05-.31-.23-.82-.2-1.22-.45-1.59-.98-2.12-.87-2.59.89-.87,3.29-.58,6.4,1.63,9.22,3.24,4.11,6.15,8.52,9.63,12.4,3.98,4.43,7.95,8.96,13.14,12.12,1.72,1.05,3.27,2.27,4.65,3.78,1.71,1.89,4.07,2.89,6.33,4.01,2.13,1.06,4.56,1.23,6.62,2.45.23.43.69.53,1.07.75,3.09,1.4,6.17,2.81,9.07,4.57.1.29.33.24.55.22.33.26.71.36,1.13.35.02.16.06.29.26.19.1.03.21.06.31.09,0,.17.07.27.25.23.57.2,1.14.41,1.71.61,0,.17.07.27.25.23.1,0,.19.02.29.03.14.31.35.22.56.1.1.07.21.13.31.2,0,.16.04.28.24.19.2.03.39.06.59.1.01.16.05.28.25.18.21.03.41.06.62.09,0,.15,0,.3.22.17.57.16,1.09.49,1.72.4,0,.17.07.26.26.23,2.53.54,5.06,1.12,7.6,1.6,3.49.65,7,1.22,10.49,1.83.99.17,1.98.38,2.96.57.58.47,1.24.64,1.98.5.19.02.37.04.56.05.02.17.09.27.28.23.69.1,1.25.65,1.99.61,0,.17.07.27.26.23.34.24.72.35,1.13.33.01.17.08.27.27.24.76.29,1.51.59,2.27.88,0,.18.07.27.26.24l3.07,1.46c.05.13.1.28.29.17.1.03.21.07.31.1,0,.18.08.28.27.25.95.71,1.92,1.36,3.06,1.73.05.13.1.28.29.17.1.03.2.07.3.1,0,.18.09.28.28.25.27.37.68.5,1.1.6.05.13.1.28.29.17.1.04.2.07.3.11.04.29.28.37.49.48.11.03.23.06.34.09.18.35.48.51.84.59.1.08.2.17.3.25.04.13.06.29.26.15.11.04.21.08.32.12,0,.18.08.27.26.26.08.28.32.28.54.31.05.13.1.27.29.17.1.03.2.07.3.1,0,.18.09.27.27.26.08.28.32.28.54.31.05.13.1.27.29.17.1.03.2.07.31.1,0,.18.08.27.27.24.27.38.66.54,1.1.61.05.13.09.28.28.16.11.04.22.07.32.11,0,.16.04.28.24.18.11.03.21.07.32.1,0,.16.04.29.25.18.1.03.21.07.31.1,0,.17.07.27.25.24.33.29.76.24,1.14.33,0,.17.07.27.26.23.33.3.76.22,1.15.33,0,.17.07.27.26.23,1.33.07,2.36,1.08,3.68,1.17,0,.17.06.27.25.23.28.11.5.41.86.31.28.37.67.53,1.12.56.09.1.19.21.28.31.09.3.33.24.55.22.46.21.92.42,1.38.64.05.13.1.28.29.16.1.04.21.07.31.11,0,.16.05.29.25.19.1.03.21.06.31.09,0,.16.05.28.25.19.1.03.2.06.3.09.01.16.06.28.26.2.39.18.59.69,1.11.65.05.13.1.27.29.17.1.03.2.07.31.1,0,.18.09.27.27.25.08.28.31.3.55.32.05.13.08.29.27.16.1.04.2.08.3.11,0,.18.09.27.27.26.09.26.32.29.55.31.05.13.09.27.28.17.1.04.2.07.3.11,0,.18.1.27.27.28l.83.56c.05.13.09.27.28.17.78.7,1.61,1.31,2.55,1.79.03.14.06.29.26.16.1.04.2.08.3.12,0,.18.09.27.28.28.85.56,1.5,1.41,2.53,1.69,0,.18.1.27.27.29.69.44,1.19,1.14,2.01,1.39.16.35.42.54.8.57,1.49,1.03,2.99,2.07,4.48,3.1.05.14.1.27.28.17.75.72,1.65,1.25,2.53,1.79.04.14.08.27.27.17.71.56,1.33,1.27,2.26,1.51.09.1.18.2.27.3.43.74,1.39.91,1.8,1.67-.07.18,0,.22.17.19.29.12.57.24.86.35.15.36.44.54.82.59.59.5,1.17,1,1.76,1.49.33.46.87.52,1.35.7.35.47.95.55,1.39.87.02.38.04.75.05,1.13-.04.08-.06.16-.06.25-.21.06-.48,0-.55.3-2.48-1.01-4.6-2.63-6.63-4.3-3.54-2.92-7.46-5.28-11.15-7.97-.54-.39-1.05-.81-1.58-1.22,0-.39-.15-.6-.58-.48-1.03-.37-1.85-1.04-2.64-1.77.05-.16.03-.23-.14-.11-2.56-1.69-5.11-3.41-7.68-5.08-4.8-3.12-10.02-5.38-15.42-7.23-.57-.2-1-.52-1.35-.99-.1.01-.19.02-.29.03-3.95-1.61-7.19-4.42-10.86-6.48-1.54-.86-3.03-1.83-4.63-2.59-.03-.07-.06-.15-.1-.22-.04.07-.09.14-.13.21-1.79-1.27-3.88-1.82-5.91-2.53-.31-.36-.58-.85-1.13-.29-1.81-.42-3.64-.8-5.45-1.2-2.81-.63-5.65-1.05-8.47-1.56-4.35-.78-8.67-1.63-12.88-2.96-1.75-.55-3.43-1.47-5.12-2.2-2.06-.89-4.06-1.92-6.13-2.79-1.77-.74-3.53-1.52-5.11-2.65-1.57-1.13-3.36-1.68-5.23-2.09-1.53-.33-2.99-.93-4.22-1.96.06-.17,0-.22-.17-.18-1.85-.6-3.46-1.67-4.67-3.11-1.53-1.82-3.58-2.89-5.34-4.36-2.67-2.23-5.84-3.86-8.03-6.67.06-.41-.13-.63-.51-.71-3.04-3.24-6.01-6.52-8.57-10.2-1.17-1.68-2.47-3.33-3.77-4.95-.17-.21-.25-.48-.37-.72.03-.16-.02-.24-.19-.16-2.34-2.39-3.62-5.16-3.22-8.59.18-1.55.17-3.08,1.18-4.42.42-.57.32-1.16-.52-1.6-1.46-.77-2.81-1.73-4.2-2.62-.07-.3-.09-.63-.55-.52-1.66-1.23-3.25-2.59-4.52-4.19-1.15-1.44-1.89-3.19-1.93-5.13.35-.3.37-.58-.05-.83.01-.67.02-1.34.03-2.02.08-.04.15-.07.23-.11-.07-.04-.15-.09-.22-.13.71-3.35,2.13-6.2,5.24-8.01,1.07-.62,1.94-1.58,2.91-2.39.66-.24.3-.47-.01-.7-2.04-.82-3.62-2.34-4.58-4.17-.75-1.41-1.97-1.54-3-1.79-3.73-.91-7.34-2.18-10.99-3.36-5-1.61-10.05-3.05-15.04-4.65-1.84-.59-3.58-1.5-5.41-2.16-3.05-1.1-6.22-1.91-9.18-3.2-6.37-2.78-13.11-4.47-19.59-6.9-.61-.23-1.23-.45-1.84-.68-1.53-.57-2.33-1.66-2.35-3.29-.02-1.03,0-2.05,0-3.08.17-.44-.1-.55-.45-.6.88-1.31.75-2.9,1.13-4.35.42-1.61.48-3.28.94-4.92.73-2.54,1.09-5.18,1.58-7.78.12-.62-.18-1.03-.74-1.35-1.52-.85-2.82-1.99-3.96-3.31-.67-.78-.7-1.53-.41-2.55,1.5-5.2,4.69-9.53,7.08-14.27.86-1.71,1.74-3.41,2.65-5.09.24-.44.17-.76-.08-1.16-.43-.67-.73-1.42-1.21-2.05-1.44-1.85-.78-3.43.5-4.99,3.19-3.91,6.63-7.55,10.39-10.92,2.73-2.45,5.29-5.09,7.97-7.6.64-.6,1.03-1.24.8-2.07-.26-.93.28-1.48.87-1.9.97-.69,1.99-1.37,3.09-1.83,2.6-1.09,4.51-3.09,6.62-4.83.31-.26.64-.49.97-.74.33-.07.6-.19.61-.59.73-.55,1.46-1.1,2.2-1.65.39,0,.48-.28.52-.59,1.51-1.14,3.02-2.28,4.53-3.42.19.04.25-.06.25-.23,1.02-.58,1.64-1.91,3.09-1.67.05.13.1.28.29.16.17.15.35.29.52.45q1.22,1.11,1.93-.39c.28-.59.63-.9,1.36-1.13,4.3-1.34,8.66-.8,13.02-.62.56.02,1.12.06,1.68.07,3.83.12,7.67.13,11.49.37,3.3.21,6.6.45,9.91.47.16.39.34.37.55.03.92-.24.98-1.18,1.06-1.77.26-2.02,1.48-3.57,2.32-5.31.19.05.25-.06.27-.22,1.11-1.26,2.5-1.45,4.07-1.14,4.15.84,8.25,1.88,12.29,3.12,2.99.91,5.96,1.87,8.92,2.86,2.01.67,4.01,1.37,6.05,1.92,3.86,1.03,7.4,2.93,11.19,4.06,5.99,1.79,11.42,4.79,17.05,7.34,1.73.79,3.42,1.67,5.18,2.41.69.29,1.12.85,1.07,1.92-.11,2.31-.79,4.39-1.64,6.47-.17.41-.09.91-.13,1.37-.24.24-.58.42-.5.84-.57,2.48-1.36,4.9-2.29,7.26-.64,1.63-.99,3.33-1.56,4.98-.92,2.65-1.77,5.33-2.55,8.03-.94,3.22-1.8,6.47-2.65,9.72-1.42,5.46-2.81,10.92-4.21,16.39-.15,0-.3.01-.16.23.19.54-.59.93-.23,1.5-.35-.02-.44.18-.4.49-.67,2.63-1.22,5.29-2.26,7.83-.64,1.55-.97,3.22-1.44,4.84-.17,0-.26.06-.23.24-.49,1.84,1.17,1.25,1.92,1.69.02.16.06.28.27.19.1.03.19.06.29.09.02.16.07.28.27.2.29.21.58.42.86.63.08.29.35.22.55.28.11.07.21.13.32.2,0,0,.07.02.07.02h.08c1.52.71,3.04,1.41,4.55,2.15,1.55.76,3.25,1.1,4.84,1.74,2.6,1.04,5.31,1.88,7.06,4.31.06.66.32,1.1,1.08.98,1.9,2.11,3.31,4.64,5.41,6.58.68.63.88,1.5,1.21,2.25.64,1.43,1.59,2.59,2.51,3.79l.04.03c.48,1.02,1.39,1.73,1.86,2.82,1.47,3.44,3.85,6.38,5.8,9.55.33.54.77,1.02,1.16,1.52-.02.39.17.62.55.69,1.38,2.23,2.76,4.47,4.15,6.7.69,1.1,1.4,2.18,2.1,3.27-.12.43.12.64.47.8.3.68.6,1.36.9,2.05-.06.19.04.25.21.24.29,1.04.88,2,.89,3.12-.12.5.15.82.53,1.08.14.96.62,1.71,1.37,2.3.16.46.43.82.89,1.03,1.55,1.85,3.36,3.45,5.07,5.14-.03.18.08.26.24.29.36.45.67.98,1.33,1.07-.28.71.38.46.63.63.85,1.07,1.96,1.82,3.12,2.5.17.34.46.51.82.56l.84.57c.04.14.08.27.27.18.46.32.93.64,1.39.96.05.14.11.27.3.19.38.22.62.68,1.14.64.04.28.27.37.48.48.86.5,1.72,1,2.58,1.5.05.14.1.27.29.18.37.24.63.68,1.16.65,0,.18.08.27.27.25.08.28.31.3.54.32.05.13.09.27.28.16.1.04.21.07.31.11.13.4.43.55.83.54,1.18.94,2.62,1.36,3.97,1.98-.02.17.05.26.23.23,2.32.9,4.54,2.01,6.75,3.15.02.16.07.28.27.2,1.59.58,3.02,1.49,4.48,2.34.05.13.1.28.29.17.1.03.2.07.31.1.01.16.05.29.26.19.1.03.2.06.31.09.14.4.43.55.83.54.28.36.66.53,1.1.59.05.13.09.28.29.16.11.03.21.07.32.1.13.4.43.54.83.55.28.36.66.52,1.1.59.05.14.1.27.29.17l.3.1c.04.28.27.37.48.48.58.31,1.16.62,1.73.94.05.14.11.27.3.19.39.18.59.69,1.11.65.05.14.1.27.29.17.37.25.64.68,1.16.66,0,.18.07.27.25.25.57.52,1.17.99,1.95,1.17.05.13.1.28.29.16.1.03.21.07.31.1,0,.17.06.28.26.21.39.18.59.69,1.11.65.05.14.1.27.29.18.39.19.59.71,1.12.67.19.33.47.54.87.54.28.36.66.52,1.1.59.2.33.46.54.87.51.45.48,1.03.72,1.65.89.05.14.1.28.29.17.1.03.2.07.3.1,0,.18.09.28.28.25.46.49,1.07.7,1.7.87,0,.17.05.28.25.2.39.18.59.69,1.11.65.05.14.1.27.29.18ZM65.61,90.95c-1.15-.21-1.99.59-2.95.94-2.68.98-3.89,3.06-3.62,5.89.18,1.86.83,2.48,2.71,2.69.87.1,1.3-.09,1.26-1.1-.11-3.1.84-5.9,2.58-8.45,0,0,.01.02.02.03Zm-2.43-37.44c.08-.93.08-1.86-.09-2.79-.59-3.16-.4-6.37-.62-9.55-.09-1.31-.37-2.55-.55-3.83-.11-.8-.6-.87-1.03-.58-.82.56-1.78.66-2.64,1.05-.71.32-1.31.7-.71,1.74.7,1.23,1.21,2.59,1.72,3.92,1.28,3.3,2.64,6.58,3.51,10.03.1.46.2.93.37,1.69.18-.79.18-1.24.04-1.69Zm-7.67,23.2c.12.11.23.21.35.32.16-.22.06-.38-.13-.51-1.45-4.29-3.13-8.48-4.79-12.69-1.9-4.82-3.55-9.74-5.12-14.67-.28-.87-.51-1.12-1.36-.43-2.23,1.79-4.12,3.94-6.33,5.74-.55.45-.26.75.06,1.14,1.1,1.39,2.19,2.79,3.26,4.21,4.42,5.86,9.04,11.55,14.08,16.9Zm7.76-13.91c-.42-2.09-1.06-4.1-1.86-6.07-1.25-3.08-1.52-6.45-2.86-9.51-1.08-2.44-2.04-4.94-3.01-7.43-.76-1.92-.52-2.55,1.39-3.37,1.27-.54,2.59-.97,3.92-1.37.66-.2.81-.53.8-1.21-.06-2.99-.02-5.98-.02-8.98,0-1.28,0-2.57,0-3.93-1.73.54-3.26,1.01-4.78,1.51-3.88,1.27-7.44,3.35-11.35,4.57-.41.13-1.63.35-1.17,1.48,1,2.45,2.01,4.9,3.02,7.35-.06.2.05.25.21.27.03.19.06.38.09.57-.08.2.03.24.2.24.11.39.23.77.34,1.16-.06.2.04.25.21.26.13.38.25.77.38,1.15-.1.2.04.23.18.26.02.1.05.2.07.3-.05.19.05.25.22.25,5.6,12.82,10.61,25.89,15.57,39.25.57-2.12-.33-3.83-.46-5.6-.22-2.89-.61-5.77-.56-8.68,0-.63.18-1.31-.24-1.9.29-.38-.17-.37-.27-.55Zm-29.38-22.49c-.72,1.06-1.72,1.84-2.59,2.75-2.26,2.36-5,4.24-7.06,6.81-.44.54-.83.97-.24,1.68,1.37,1.65,2.47,3.53,4.1,4.96,2.26,1.98,4.25,4.21,6.16,6.52,2.59,3.14,5.25,6.22,7.85,9.34,4.98,5.99,11.1,11.01,15.04,17.89,1.03,1.8,1.22,1.69,2.91.59.27-.18.56-.34.85-.48.27-.13.51-.3.4-.63-.7-2.17-1.05-4.59-2.59-6.3-4.75-5.28-9.53-10.54-14.02-16.05-2.89-3.55-5.56-7.28-8.38-10.89-1.18-1.51-1.24-2,.21-3.24,2.42-2.06,4.58-4.42,7.16-6.3.68-.49.79-.94.4-1.75-1.08-2.24-2.62-4.22-3.56-6.56-.36-.91-.6-1.87-1.04-2.77-.43-.86-.55-.6-.96-.19-1.49,1.47-2.99,2.95-4.48,4.42-.17-.04-.24,0-.17.18Zm44.84,47.09c.17.06.25.02.19-.17.27-1.24-.48-2.33-.52-3.55-.06-2.11-.32-4.21-.56-6.31-.23-2.1-.78-4.19-.77-6.28.07-9.71-.62-19.4-.89-29.1-.04-1.35.04-2.73-.2-4.05-.56-3.1-.28-6.22-.36-9.33-.04-1.38.52-1.82,1.86-1.81,1.53.01,3.06,0,4.6,0,.38.11.57-.14.78-.38,3.47,0,6.93-.25,10.41-.13,1.89.07,2.31-.36,2.84-2.15.74-2.49,1.69-4.91,2.77-7.27.13-.29.23-.73.11-.98-.19-.39-.57-.18-.95-.1-1.03.21-2.09.36-3.14.37-8.32.03-16.64.04-24.96.01-.99,0-1.47.2-1.36,1.32.24,2.54.54,5.09.56,7.64.03,3.64.23,7.28-.16,10.94-.25,2.36-.06,4.81.14,7.23.44,5.27.75,10.56.9,15.85.19,6.41.61,12.8,1.47,19.15.34,2.53.58,5.08.81,7.63.1,1.07.35,1.71,1.66,1.59,1.58-.15,3.17-.07,4.76-.09ZM150.32,20.81c3.44,1.28,7.17,1.71,10.45,3.48-.01.17.05.26.24.23.72.43,1.61.62,2.04,1.46,0,.19.01.38.02.57,0,.65-.77,1-.65,1.69-.17,0-.27.08-.23.27-.7,1.48-1.12,3.04-1.53,4.62-.49,1.91-.91,3.81-1.05,5.77-.25.23-.58.42-.5.84.03.21.06.42.09.62-.36,0-.41.21-.37.5.29.71-.56,1.31-.19,2.03-.36,0-.41.21-.37.5-.25,1.02-.48,2.04-.74,3.05-.61,2.37-1.23,4.73-1.84,7.1-.15,0-.3.02-.17.23-.58,2.81-1.55,5.54-2.51,8.19-1.22,3.37-2.12,6.84-3.43,10.19-1.54,3.95-2.6,8.09-3.81,12.17-1.29,4.35-2.55,8.71-3.75,13.09-.94,3.46-.89,3.47,1.11,4.62,1.49.86,2.03.56,2.16-1.16.02-.23.01-.48.09-.68,1.74-4.28,2.89-8.77,4.37-13.14,1.05-3.1,2.06-6.24,2.78-9.43,1.14-5.08,2.47-10.11,3.87-15.11,1.23-4.39,2.22-8.84,3.65-13.18.87-2.65,1.99-5.24,2.63-7.98.07-.03.15-.05.22-.08-.02-.04-.04-.08-.07-.11.08-.41.11-.84.26-1.22.88-2.38,1.75-4.79,2.5-7.19.76-2.4,1.44-4.87,2.09-7.33.17-.64.25-1.39-.3-1.98.05-.18,0-.25-.19-.18-.68-.65-1.66-.46-2.42-.9-2.97-1.71-6.1-3.09-9.21-4.53-1.97-.92-3.97-1.71-5.97-2.56-3.07-1.3-6.3-2.13-9.37-3.37-3.22-1.3-6.5-2.38-9.85-3.31-2.67-.74-5.3-1.63-7.93-2.52-4.31-1.45-8.62-2.85-13.12-3.56-1.04-.16-2.09-.3-3.14-.4-.35-.03-.79-.08-.99.33-.74,1.51-1.6,2.97-2.02,4.61-.9,3.55-1.4,7.18-2.71,10.65-1.74,4.61-3.25,9.32-4.79,14.01-.78,2.36-1.4,4.78-2.1,7.17-.3.12-.27.34-.16.58-.03.2-.06.4-.08.6-.08.03-.15.07-.23.1.02.04.05.08.07.12-.47,2.6-1.44,5.07-2.04,7.62-2.42,10.36-5.46,20.56-7.58,30.98-.45,2.21-.82,4.43-1.42,6.6-.28,1.01.05,1.81,1.24,2.04,1.2.22,1.2-.58,1.34-1.4.32-1.96.95-3.87,1.54-5.74,1.11-3.5,2.04-7.04,3.18-10.53.99-3.04,1.97-6.09,2.83-9.17.69-2.47,1.15-5,1.83-7.47,1.19-4.34,2.44-8.67,3.73-12.99,1.76-5.89,3.14-11.88,4.61-17.84,1.28-5.17,2.77-10.29,4.17-15.43.4-1.47,1.14-1.99,2.57-1.42,1.84.73,3.8,1.23,5.53,2.14,4.73,2.49,9.82,4.04,14.79,5.9,2.6.97,5.24,1.85,7.86,2.76,1.91.66,3.78,1.49,5.75,2.05-.01.16,0,.29.21.18.2.04.4.07.6.11,0,.17.06.26.25.23,1.7.48,3.4.97,5.1,1.45,0,.15.02.3.23.17.21.04.42.07.63.11,0,.16,0,.29.22.17Zm-14.6,78.93c.74.22,1.46.52,2.22.63.66.1,1.22.25,1.57-.87.55-1.8.6-3.7,1.27-5.46.42-1.11.83-2.24,1.12-3.4.7-2.88,1.56-5.72,2.54-8.52.17,0,.26-.06.23-.24-.39-.49-.05-.97.09-1.4,1.74-5.4,3.52-10.78,5.27-16.17,1.2-3.69,2.39-7.37,3.53-11.08.83-2.69,1.53-5.42,2.33-8.12.82-2.78,1.62-5.6,2.07-8.42.51-3.22,1.48-6.23,2.58-9.23.28-.77.21-.95-.53-1.29-2.71-1.22-5.51-2.11-8.36-2.93-4.07-1.16-8.09-2.5-12.09-3.9-5.16-1.81-10.23-3.84-15.4-5.6-4.51-1.54-8.7-3.8-13.17-5.4-1.97-.7-2.54-.39-2.95,1.65-.44.07-.27.31-.15.53-.07.11-.14.23-.21.34-.15-.01-.29,0-.16.2-.04.21-.08.42-.12.63-.15,0-.29,0-.17.21l-.11.62c-.16,0-.3,0-.17.22-.2.79-.41,1.57-.6,2.36-.59,2.5-1.18,5.01-1.76,7.52-.17,0-.27.05-.23.24-.21,1.04-.41,2.08-.62,3.12-.17,0-.26.07-.23.25-.11.49-.22.98-.34,1.46-.74,3.08-1.49,6.17-2.24,9.25-.15,0-.3.02-.17.23-.13.58-.26,1.16-.39,1.73-.15,0-.3.02-.17.23-.28,1.1-.55,2.21-.85,3.31-2.33,8.42-4.63,16.84-7.02,25.24-1.32,4.64-2.82,9.23-4.21,13.85-.52,1.73-.97,3.48-1.49,5.2-.21.71-.09.97.71,1.03,1.52.11,3.05.29,4.55.54,6.1,1,12.16,2.14,18.1,3.9,8.48,2.52,17,4.89,25.51,7.32.01.15.04.28.24.17ZM94.45,29.08c-.6,0-1.1.04-1.6,0-1.82-.19-3.6.53-5.41.26-2.73-.4-5.48-.26-8.23-.23-.88.01-1.62.4-1.32,1.54.51,2,.37,4.06.54,6.09.33,3.91.5,7.84.46,11.76-.08,7.16.49,14.29.38,21.45-.04,2.66.33,5.29.67,7.9.15,1.13-.23,2.5.93,3.69,3.82-17.76,8.37-35.11,13.59-52.44ZM22.74,60.14c-.27.4-.51.69-.67,1.02-2.02,4.05-4.14,8.06-5.9,12.23-.76,1.81-.8,1.73.81,2.92,4.17,3.09,8.74,5.61,12.92,8.67,11.56,8.45,23.32,16.58,35.48,24.13.72.45,1.49.84,2.23,1.25-.34-1.3-.86-2.19-2.14-2.75-3.69-1.61-6.81-3.92-8.13-8-.08-.25-.25-.5-.43-.7-2.47-2.67-4.79-5.46-7.94-7.45-4.47-2.82-8.45-6.34-12.71-9.46-2.08-1.53-4.39-2.67-6.62-3.95-1.6-.92-1.84-1.61-1.13-3.19.57-1.28,1.23-2.52,1.91-3.74.29-.53.26-.91-.12-1.38-2.51-3.13-4.76-6.47-7.57-9.61Zm-3.51,24.42c-.59,4.88-1.63,9.42-2.55,13.99-.43,2.13-.48,2.15,1.57,2.73,5.93,1.7,11.89,3.26,17.66,5.47,9.77,3.73,19.4,7.86,29.33,11.17,1.8.6,3.6,1.25,5.49,1.63,0-.39-.23-.48-.42-.61-3.79-2.65-7.52-5.4-11.48-7.81-3.38-2.06-6.57-4.44-10.5-5.51-5.73-1.55-11.12-4.13-16.86-5.67-4.16-1.12-4.53-1.47-3.55-5.61.58-2.46.17-3.93-2.11-5.19-2.27-1.24-4.14-3.15-6.58-4.59ZM71.39,9.39s0,.1,0,.14c-1.81,0-3.62-.02-5.42,0-1.47.03-2.49,1.35-2.36,2.87.35,3.8.24,7.61.1,11.41-.22,5.88-.1,11.72.65,17.58.5,3.95.76,7.94.83,11.92.05,2.84.59,5.66.38,8.5-.16,2.2.13,4.37.3,6.53.38,4.7,1.06,9.38,1.62,14.06.18,1.47.32,2.94.58,4.4.12.7.54,1.02,1.42.85.91-.17.91-.7.78-1.28-.1-.44-.23-.87-.27-1.34-.23-2.72-.34-5.47-.8-8.15-.6-3.49-.83-7.01-1.09-10.52-.31-4.08,0-8.18-.54-12.28-.4-3.05-.34-6.17-.58-9.25-.22-2.83-.12-5.71.05-8.55.24-4.02.16-8.05.08-12.06-.03-1.87-.55-3.73-.72-5.6-.25-2.75-.15-4.62,3.67-4.49,2.3.08,4.58.23,6.91.07,7.22-.47,14.47.55,21.7-.3.95-.11,1.34-.41,1.39-1.28.02-.42.1-.8.23-1.21.22-.68.04-1.15-.86-1.13-1.64.04-3.28.03-4.91-.03-7.71-.28-15.41-.59-23.12-.88Zm-5.23,78.84c-1.24-1.68-1.52-3.67-2.24-5.48-3.47-8.67-6.65-17.46-10.12-26.13-3.8-9.47-7.77-18.87-11.59-28.33-.44-1.08-.33-1.64.89-2.06,1.92-.67,3.73-1.65,5.64-2.35,1.8-.67,3.33-1.91,5.15-2.47,2.35-.73,4.67-1.5,6.99-2.33.51-.18.87-.32.69-.9-.19-.65-.58-.58-1.19-.44-.82.2-1.38.82-2.22,1.01-3.54.79-7,1.86-10.36,3.23-2.36.97-4.67,2.06-6.94,3.26-1.64.86-2.24,1.45-1.66,3.11,1.02,2.93,1.62,5.99,2.98,8.81,2.07,4.3,4.73,8.31,6.14,12.93,1.72,5.63,3.95,11.08,5.93,16.62,2.65,7.4,6.23,14.4,8.81,21.82.13.37.2.88.83.62.72-.3,1.46-.58,2.26-.9Zm-9.36,7.53c1.21-1.63.13-2.55-.77-3.56-.58-.66-1.1-1.4-1.57-2.15-1.76-2.83-3.73-5.47-6.12-7.83-4.03-3.98-7.64-8.35-11.34-12.63-2.93-3.4-5.48-7.15-8.83-10.16-2.18-1.97-3.99-4.2-5.73-6.52-1.46-1.96-1.38-2.56.22-4.38,1.67-1.91,3.58-3.55,5.48-5.22,3.25-2.87,6.05-6.19,9.13-9.23.92-.91,1.11-1.6.65-2.83-.42-1.13-.63-1.04-1.37-.32-2.93,2.86-5.93,5.63-8.84,8.51-2.93,2.89-5.85,5.77-8.42,9-.78.98-.87,1.83-.23,2.92,1.49,2.56,3.26,4.9,5.13,7.18,4.42,5.38,8.32,11.18,13.01,16.35,3.14,3.46,6.38,6.84,9.58,10.25,3.33,3.54,6.67,7.07,10.01,10.62Zm18.71,29.37c.71.04,1.14.06.84-.89-.23-.73-.69-.86-1.26-1.05-5.6-1.81-11.27-3.42-16.77-5.55-8.24-3.18-16.49-6.32-24.71-9.54-5.51-2.16-11.33-3.25-16.9-5.16-2.15-.74-2.64-1.63-2.17-3.84.4-1.86.85-3.71,1.2-5.58.58-3.02,1.02-6.06,1.67-9.07.28-1.32-.66-1.72-1.37-1.85-1-.18-.33.84-.52,1.29-.09.21-.08.45-.12.68-.52,2.86-1.39,5.64-1.78,8.53-.33,2.48-.8,4.94-1.19,7.42-.36,2.29.12,3.09,2.32,3.89,7.1,2.6,14.36,4.74,21.43,7.48,10.63,4.12,21.52,7.52,32.38,10.97,2.34.74,4.74,1.29,6.94,2.27ZM19.9,56.66c-.81,1.6-1.63,3.16-2.38,4.75-1.78,3.8-4.35,7.2-5.8,11.18-1.33,3.64-1.3,4,2.05,6.01,6.42,3.85,12.43,8.32,18.55,12.61,6.39,4.48,12.73,9.05,19.38,13.12,6.1,3.73,12.18,7.48,17.97,11.67,2.03,1.47,4.08,2.92,6.36,4.09.18-1.03.26-1.96.53-2.84.28-.89-.05-.86-.77-.84-1.97.06-3.96.13-5.19-1.92-.22-.36-.73-.56-1.15-.78-5.9-3.06-11.36-6.86-16.96-10.41-11.37-7.22-21.8-15.79-33.25-22.89-1.74-1.08-3.35-2.38-5-3.61-.81-.6-1.33-1.47-.86-2.41,2.41-4.79,4.55-9.72,7.2-14.39.96-1.7,1-1.68-.68-3.34Zm23.36,45.16c.09-.46-.1-.54-.25-.63-3.69-2.31-7.06-5.05-10.65-7.5-.68-.46-1.53-1.55-2.03-1.18-.57.42-.63,1.65-.74,2.55-.27,2.31-.24,2.31,2,2.92.81.22,1.62.46,2.42.68,3.12.87,6.14,2.07,9.24,3.17ZM61.59,13.87c.25-1.57-1.23-1.93-2.11-2.57-.74-.54-1.35.36-1.91.88-.26.25-.56.45-.85.68-2.29,1.8-4.58,3.6-6.89,5.38-.31.24-.4.57-.26.84.15.28.49.2.73.02.61-.46,1.37-.51,2.05-.77,1.88-.71,4-.9,5.31-2.8.45-.66,1.24-1.09,2.21-.51,1.16.7,1.71.3,1.71-1.16Zm-29.45,58.12c-.61,1.13-1.04,2.11-1.63,2.99-.58.85-.39,1.24.49,1.66,3.75,1.82,7.21,4.1,10.43,6.74.26.21.51.58,1.12.31-3.3-4.02-7.3-7.33-10.41-11.7Zm39.11,37.5c.22.67.47,1.36.66,2.06q.79,2.96,3.83,2.9c.14,0,.28,0,.42,0,1.84-.01,2.28-.35,2.76-2.19-.92-.25-1.73.23-2.58.41-1.69.37-2.22.12-2.63-1.57-.33-1.37-.94-2.08-2.45-1.63Zm7.84.43c-.01-.07-.03-.13-.04-.2-1.01,0-2.01,0-3.02,0-.39,0-.79-.02-.66.57.1.47.42.58.84.46.96-.27,1.92-.55,2.88-.83ZM61.69,10.59s-.05.06-.04.08c.04.12.1.12.15.01,0-.02-.01-.06-.03-.08-.01-.01-.05,0-.08,0Z"/><path class="cls-1" d="m134.56,153.43c-.05-.75.13-1.56.52-2.32,1.19-2.36,1.64-4.9,2.11-7.48.31-1.71,1.03-3.34,1.61-5,.21-.61.47-1.32,1.36-1,.83.3.79,1,.57,1.64-.73,2.1-1.42,4.23-1.79,6.42-.36,2.13-1.09,4.09-2.03,6.03-1.19,2.47-.17,4.11,2.53,4.02.66-.02,1.28.06,1.34.86.06.78-.51.99-1.17,1.11-3.06.59-5.09-1.08-5.06-4.29Z"/><path class="cls-1" d="m125.48,182.15c.73,0,1.29,0,1.85,0,.56,0,1.04.16,1.13.8.09.61-.29.89-.8,1.15-.89.47-1.85.4-2.72.23-.74-.15-.99.09-1.26.62-1.35,2.71-2.76,5.4-3.81,8.25-.46,1.25.16,2.15,1.13,2.68.81.44.87,1.02.56,1.58-.36.64-1.03.47-1.61.14-1.65-.94-2.51-3.3-1.88-5.09.98-2.78,2.39-5.37,3.58-8.05.78-1.76,1.85-2.95,3.82-2.31Z"/><path class="cls-1" d="m156.12,117.57c1.18-.22,2.07.38,2.91.93,1.96,1.28,3.68,2.86,5.31,4.53.29.3.55.63.61,1.08.07.52-.21.94-.54,1.21-.39.32-.66-.17-.91-.4-1.39-1.24-2.74-2.53-4.14-3.75-.56-.49-1.17-.93-1.82-1.28-1.12-.61-2.21-.66-3.09.48-.34.44-.69.88-1.09,1.27-.49.48-1.02.54-1.57.03-.62-.57-.24-.93.19-1.35.5-.49.94-1.04,1.4-1.56.75-.84,1.6-1.44,2.74-1.18Z"/><path class="cls-1" d="m94.45,103.97c.45-1.55,1.05-3.2,1.57-4.88.55-1.79,1.6-3.43,2.37-5.17.33-.75.85-1.03,1.55-.73.69.29.52.95.27,1.46-1.58,3.23-2.95,6.54-3.92,10.02-.15.52-.62.8-1.18.73-.34-.04-.68-.77-.66-1.42Z"/><path class="cls-1" d="m84.33,139.08c.86.1,1.1.72.75,1.39-1.44,2.79-2.64,5.67-3.53,8.69-.15.51-.55.78-1.09.6-.51-.17-.73-.62-.61-1.12.22-.91.5-1.8.78-2.69.65-2.06,1.52-4.02,2.55-5.91.25-.46.51-.91,1.16-.95Z"/><path class="cls-1" d="m92.25,119.7c-.29,1.66-1.46,3.33-2.36,5.09-.41.8-.85,1.54-.98,2.45-.08.55-.48,1.23-.96,1.17-.7-.09-.94-.79-.82-1.53.2-1.21.75-2.28,1.28-3.35.73-1.46,1.64-2.85,2.02-4.45.18-.75.47-1.07,1.21-.97.81.11.52.73.6,1.59Z"/><path class="cls-1" d="m205.99,221.43c.63,0,.93.3,1.24.58,2.01,1.85,3.48,4.1,4.75,6.5.27.52.41,1.11-.2,1.48-.64.39-1.08-.08-1.39-.54-.78-1.15-1.48-2.36-2.25-3.52-.72-1.09-1.53-2.13-2.59-2.91-.42-.31-.55-.64-.41-1.05.15-.45.58-.54.85-.55Z"/><path class="cls-1" d="m104.63,99.94c-.72,2.41-2,4.8-4.04,6.75-.48.46-1.12.34-1.5-.14-.36-.45-.13-.86.32-1.29,1.67-1.64,2.7-3.69,3.41-5.89.2-.62.44-.99,1.15-.92.84.08.53.72.67,1.5Z"/><path class="cls-1" d="m137.25,80.46c-1.29,4.47-2.66,8.92-4.33,13.27-.87,2.27-1.26,2.45-3.3,1.21-.77-.47-1.59-.83-2.47-.96-2.79-.41-5.39-1.48-8.07-2.27-3.08-.91-6.09-2.06-9.15-3.02-3.55-1.11-6.98-2.6-10.46-3.93-.98-.38-1.95-.82-2.94-1.17-1.27-.46-1.58-1.52-1.05-2.47.97-1.72,1.12-3.59,1.49-5.42.44-2.21,1.13-4.33,1.92-6.44,2.08-5.57,4.06-11.17,5.79-16.87,1.55-5.13,2.66-10.37,4.28-15.47,1.05-3.3,1.79-6.7,2.37-10.13.25-1.46,1.23-2.8.58-4.41-.14-.34.34-.56.76-.62.54-.07.96.27,1.47.29.01.16.06.28.26.2.83.45,1.61,1.01,2.55,1.21,0,.17.07.27.26.23.57.2,1.15.4,1.72.61,0,.17.06.26.24.23,1.81.13,3.29,1.16,4.92,1.79.63.24,1.25.52,1.87.79-.01.17.05.26.24.23.57.2,1.14.41,1.72.61,0,.17.06.26.25.23.39.11.77.22,1.16.33,0,.16.04.28.24.19.19.03.39.06.58.1,0,.17.08.27.26.23,3.37,1.08,6.77,2.06,10.1,3.26,2.84,1.03,5.73,1.94,8.53,3.08,1.32.54,1.27,1.47,1,2.31-2.23,6.67-3.41,13.61-5.36,20.35-.16.57-.53,1.07-.49,1.7-.16,0-.3.02-.18.23-.39,1.9-1.27,3.67-1.52,5.61-.31.21-.65.41-.33.86-.07.11-.14.23-.21.34-.16-.02-.28,0-.17.2-.04.21-.08.41-.11.62-.17,0-.28.03-.2.23-.21.67-.43,1.35-.64,2.02-.16,0-.3,0-.17.22-.04.2-.07.41-.11.61-.15,0-.28.03-.17.23,0,.2-.01.41-.02.61-.45.06-.27.3-.16.53-.07.11-.14.23-.21.34-.15-.01-.28-.01-.16.2-.04.21-.08.42-.12.63-.16,0-.29,0-.18.22-.04.2-.07.4-.11.61-.17,0-.26.06-.23.24-.49,1.68-.98,3.37-1.47,5.05-.16.03-.29.08-.19.28-.02.2-.05.4-.07.6-.16,0-.3.02-.18.23Zm-22.86-56.07c-.42-.09-.66-.02-.44.48.09.61-.56,1.07-.34,1.7-.36.04-.33.29-.29.54-.14,2.02-.85,3.92-1.12,5.91-.36.06-.35.28-.24.55-.03.2-.05.4-.08.6-.15,0-.3.01-.17.23-1.2,4.61-2.45,9.21-3.58,13.84-2.68,10.98-7.97,21.14-10.13,32.29-.2,1.05-.11,1.43.87,1.8,8.65,3.3,17.35,6.41,26.24,9,1.75.51,3.59.73,5.2,1.64.63.36.71-.08.86-.46.51-1.36,1.06-2.7,1.5-4.08,2.02-6.29,3.76-12.68,6.06-18.86,2.52-6.77,4.27-13.74,6.25-20.66.91-3.16,1.28-6.45,2.33-9.58.6-1.8.4-2.3-1.36-2.99-1.97-.76-3.94-1.52-5.94-2.17-4.91-1.58-9.85-3.05-14.58-5.13-3.65-1.61-7.35-3.11-11.02-4.66Z"/><path class="cls-1" d="m129.97,56.62c-.04.11-.06.34-.18.44-1.12.96-2.47,1.44-3.88,1.74-.29.06-.75-.13-.84-.58-.08-.39,0-.71.38-.95,1.07-.66,2.23-1.13,3.43-1.51.56-.18.99.15,1.09.86Z"/><path class="cls-1" d="m122,63.61c-.21.72-.43,1.57-.7,2.42-.16.49-.5.82-1.05.68-.55-.15-.93-.57-.79-1.14.23-.94.56-1.86.93-2.75.16-.4.57-.63,1.05-.47.54.18.63.63.57,1.27Z"/><path class="cls-1" d="m125.13,53.57c-.25.73-.54,1.66-.89,2.57-.2.52-.66.65-1.16.48-.47-.16-.63-.58-.52-1.02.24-.9.53-1.79.82-2.68.19-.59.69-.56,1.16-.52.6.05.55.53.6,1.17Z"/><path class="cls-1" d="m126.59,66.51c-.03.41-.12.76-.52.95-.41.19-.79.05-1-.27-.48-.74-.93-1.51-1.3-2.31-.21-.44-.13-1.01.4-1.19.47-.15,1.04-.2,1.3.45.32.82,1.02,1.47,1.11,2.37Z"/><path class="cls-1" d="m128.65,62.82c-.79-.17-1.68-.41-2.5-.88-.47-.27-.68-.68-.49-1.16.2-.49.7-.63,1.17-.5.8.22,1.59.52,2.38.79.52.18.74.55.64,1.08-.12.58-.58.66-1.19.67Z"/><path class="cls-1" d="m121.14,54.83c-.03.53.08.95-.37,1.14-.4.17-.75,0-1.01-.28-.58-.62-1.07-1.31-1.33-2.12-.16-.49-.01-.95.51-1.16.44-.18.87-.06,1.09.37.37.74,1.09,1.3,1.12,2.04Z"/><path class="cls-1" d="m119.18,62.47c.03.47-.09.82-.62.92-.82.15-1.41,1.23-2.39.66-.4-.23-.51-.7-.22-1.09.63-.86,1.46-1.4,2.57-1.34.54.03.69.38.66.85Z"/><path class="cls-1" d="m123.98,59.43c-.01.87-.44,1.4-1.33,1.42-.93.02-1.32-.56-1.31-1.43,0-.84.35-1.45,1.3-1.44.93,0,1.29.58,1.34,1.45Z"/><path class="cls-1" d="m117.85,58.39c-.83-.18-1.91-.13-2.07-1.38-.09-.67.45-.79.94-.68.9.19,2.14-.09,2.37,1.21.13.7-.57.86-1.24.85Z"/></svg>