<?xml version="1.0" encoding="UTF-8"?><svg id="Layer_1" xmlns="http://www.w3.org/2000/svg" viewBox="0 0 297.64 264.59"><defs><style>.cls-1{fill:none;stroke:#fff;stroke-linecap:round;stroke-linejoin:round;stroke-width:2.7px;}</style></defs><path class="cls-1" d="m61.14,76.42c-11.02,10.03,5.4,27.45,16.67,17.38,3.77-3.37,6.17-10.55,3.85-15.07-3.87-7.53-15.09-8.87-20.52-2.3Z"/><path class="cls-1" d="m179.63,83c-4.22,2.82-8.43,5.11-13.39,6.64-5.81,1.79-14.17,4.39-20.28,4.15-16.6-.64-30.61-13.32-46.13-17.45-2.54-.68-5.21-.96-7.73-1.71-8.45-2.49-27.45-8.58-32.93.22-1.87,3.01-4.28,6.81-4.26,10.41.05,7.84,9.41,16.24,16.4,20.02,16.82,9.09,35.56,12.88,53.91,18.23,4.83,1.41,6.65,5.92,10.97,7.8,6.08,2.65,17.47.34,23.64-1.19"/><path class="cls-1" d="m153.73,93.01c7.46-11.09,11.75-17.77,23.98-25.49"/><path class="cls-1" d="m63.88,100.46c-1.18,1.99-4.45,8.26-4.45,8.26-1.73-.19-3.5-1.56-5.14-2.1-3.85-1.28-7.2-3.49-10.77-5.28-1.59-.79-4.93-3.29-4.93-3.29,0,0,0,4.35-2.43,6.41-3.93,3.33-11.51,6.23-16.45,3.42-5.69-3.24-6.4-10.08-1.58-13.62,2.54-1.87,6.37-3.26,6.38-3.67,0-.35-.78-.87-1.04-1.08-1.25-1.03-2.73-1.82-4.22-2.53-5.97-2.82-12.34-5.02-18.38-7.74-1.65-.74-.54-3,.04-4.09,1.22-2.3,3.19-4.15,4.68-6.29,1.01-1.44,5.99-8.17,6.11-8.14.65.17,5.28,5.59,6.44,6.3,6.23,3.81,12.05-1.36,15.8-6.42,2.46-3.32,1.34-8.94-1.9-11.61-1.52-1.26-3.58-1.92-5.52-2.42-1.68-.42-3.42-.65-5.14-.89-.27-.04-1.46.02-1.59-.23-.57-1.17,1.36-3.05,2.02-3.89,2.53-3.24,4.95-6.64,7.21-10.04,4.85,2.33,9.2,5.05,13.54,8.11,1.57,1.1,3.24,2.04,4.94,2.98.14.08,2.36,1.23,2.37,1.19.75-2.23-.85-4.62-.1-6.91,1.83-5.56,10.58-7.17,15.71-4.78,5.12,2.39,7.11,9.89,3.72,14.1-.82,1.02-6.41,3.1-5.91,3.8,1.23,1.72,4.71,1.84,6.64,2.46,6.04,1.92,12.61,2.65,18.18,5.69,0,0-3.57,11.06-4.63,14.02"/><path class="cls-1" d="m297.64,180.72c-6.78-5.87-14.85-9.72-21.8-15.45-14.26-11.77-30.63-29.86-39.59-45.49-6.9-12.04-14.12-25.13-18.82-38.04-2.72-7.46-4.2-19.23-11.24-24.63-2.47-1.9-7.02-2.28-10.04-2.88-8.97-1.79-17.94-1.77-27.04-2.24-11.82-.61-23.87-1.52-35.65-2.52-5.19-.44-10.23-2.06-15.48-1.86-11.77.46-22.98,4.93-34.12,7.96"/><path class="cls-1" d="m161.64,56.71c-5.87,4.72-10.01,11.81-14.05,17.83-1.26,1.88-2.59,6.86-4.49,8.04-2.14,1.33-6.58.25-8.95.09-3.44-.24-6.74-.85-10.09-1.53-1.05-.21-3.08-.13-3.9-.89-2.69-2.48-1.93-8.06-1.95-11.13"/><path class="cls-1" d="m119.85,79.87c-2.93-2.06-9.51-1.88-12.98-1.11"/><path class="cls-1" d="m160.49,83.26c.24-8.6.43-15.37,5.73-23.01"/><path class="cls-1" d="m143.64,81.94c-.67,3.09-1.6,8.46-.83,11.58"/><path class="cls-1" d="m81.9,110.16c-3.24,4.01-1.83,10.56,2.64,13.37,4.87,3.07,13.7,3.54,19.52,4,2.45.19,6.97,1.09,9.26-.14,1.72-.92,2.26-3.4,2.57-5.06"/><path class="cls-1" d="m113.36,127.57c2.86.08,5.08,1.64,7.75,2.38,4.93,1.38,9.56,2.34,14.73,2.56"/><path class="cls-1" d="m135.76,131.37c3.01,6.08,4.82,11.44,8.85,17.14,9.47,13.42,22.66,21.42,36.75,30.07,8.23,5.05,9.48,11.09,21.8,11.18,2.2.02,4.46-.57,6.59-1.05"/><path class="cls-1" d="m167.03,169.49c3.96,6.55,4.48,15,6.58,22.12,2.51,8.51,7.21,16.8,13.7,23.35,6.83,6.89,16.92,6.89,25.3,11.25,8.75,4.57,14.03,11.81,21.15,17.96"/></svg>