<?xml version="1.0" encoding="UTF-8"?><svg id="Layer_1" xmlns="http://www.w3.org/2000/svg" viewBox="0 0 297.64 264.59"><defs><style>.cls-1{fill:#fff;}</style></defs><path class="cls-1" d="m186.86,210.21l-.67.5c-.15-.07-.18.03-.22.14-1.91,1.26-3.81,2.46-6.08,3.11-1.89.53-3.66.22-5.43-.14-3.25-.67-6.48-1.48-9.69-2.32-3.01-.79-5.86-2.01-8.75-3.15-2.48-.99-4.86-2.17-7.33-3.17-2.1-.85-4-2.15-6.29-2.57-.97-.18-1.89.27-2.87-.02-1.67-.48-3.39-.85-5.1-1.19-2.01-.4-4.03-.78-6.07-1.04-3.38-.43-6.64-1.39-9.83-2.54-3.4-1.23-6.92-2.01-10.42-2.89-3.08-.78-6.29-.92-9.35-1.77-5.72-1.59-11.55-2.82-17.15-4.85-2.93-1.06-5.99-1.47-9.07-1.87-2.29-.3-4.55-.83-6.83-1.26-2.55-.47-5.11-.88-7.65-1.43-3.21-.7-6.42-1.46-9.54-2.49-3.54-1.17-7.2-1.88-10.74-3.03-3.11-1.01-6.14-2.24-8.96-3.92-2.43-1.46-4.88-2.9-7.21-4.5-2.61-1.79-5.33-3.37-8.16-4.73-1.02-.49-2.17-.84-3.27-1.22-.69-.24-1.35-.6-1.46-1.41-.11-.84.61-1.17,1.17-1.51,1.49-.9,3.02-1.75,4.46-2.68,1.87-1.21,3.72-2.46,5.67-3.51,2.08-1.12,4.07-2.39,6.07-3.63,1.66-1.04,3.3-2.15,4.94-3.24.55-.37,1.28-.43,1.8-1.06-.99-.43-2.04-.47-3.04-.59-1.75-.22-3.29-1.19-5.06-1.36-.65-.06-1.26-.07-1.9.12-1.44.42-2.9.83-4.37,1.08-.78.13-1.12.49-1.05,1.17.06.72-.29,1.19-.77,1.57-1.45,1.16-3.1,1.86-4.97,2.05-.72.07-1.34-.29-1.89-.52-1.2-.52-2.34-1.22-3.07-2.43-1.24-2.09-2.26-4.22-3.06-6.55-1.09-3.17-1.88-6.39-2.59-9.65-1.15-5.3-1.18-10.67-.89-16.05.09-1.71.24-3.45.6-5.12.65-2.97,1.24-6,3.48-8.33.87-.9,1.82-1.49,3.19-1.51.96-.02,1.97-.2,2.92-.56,2.29-.85,5.87.17,7.13,2.25.21.35.47.4.86.45,4.19.57,7.98-.71,11.74-2.33,4.23-1.83,7.85-4.62,11.56-7.27,1.87-1.33,3.81-2.51,6.21-2.69,2.17-.16,4.34-.37,6.5-.59,1.11-.11,2.23-.17,3.34-.31,1.87-.25,3.27-1.53,4.9-2.3,1.18-.56,2.32-1.21,3.43-1.85,2.01-1.15,4.02-2.34,5.88-3.74,1.98-1.5,4.09-2.57,6.72-2.92,3.55-.46,7.08-.37,10.62-.48,2.54-.07,5.09.24,7.64.38,4.92.27,9.85.15,14.78.18,2.59.01,5.16.25,7.73.55,3.77.43,7.43,1.37,11.1,2.26.74.18,1.4-.24,1.98-.62,3.68-2.36,7.35-4.72,10.98-7.15,1.45-.97,2.82-2.07,4.15-3.2.65-.55,1.27-.59,1.95-.28,2.66,1.2,5.32,2.41,7.97,3.65,1.4.66,2.89,1.04,4.33,1.6.18.07.36.32.54.02.1-.16-.01-.33-.06-.5-.27-1.06-1.41-1.48-1.74-2.54-.89-2.81-1.72-5.62-.71-8.55.41-1.18,1-2.33,1.68-3.38.43-.66.67-1.29.67-2.05,0-1.04,0-2.09,0-3.13,0-.71.34-.98,1.04-1.07.87-.1,1.67.25,2.37.52,1.65.64,3.36.71,5.04.97.75.12.97.43.83,1.04-.37,1.56.05,3.17-.31,4.72-.09.4.19.52.38.69,1.05.97,2.06,2,2.75,3.24.89,1.59,1.22,3.37,1.08,5.2-.1,1.32-.7,2.55-1.58,3.37-1.04.97-.86,1.93-.7,3.03,0,.03.03.07.04.1.46,2.33.45,2.35,2.8,2.81,2.37.47,4.74.96,7.13,1.29,1.97.27,3.98.31,5.97.47,3.13.25,6.26.61,9.4.8,2.97.18,5.9.61,8.84.95,3.05.36,6.09.75,9.16.95,2.22.14,4.45.14,6.67.28,4.35.28,8.69.45,13.02,1.08,2.97.43,5.99.43,8.98.73,3.78.39,7.59.75,11.37.51,3.58-.23,7.09.17,10.59.59,2.41.29,4.58-.11,6.74-1.05.51-.22,1.23-.05,1.64-.35,2.49-1.77,5.22-1.01,7.89-.83,3.21.21,6.41.57,9.63.66,1.04.03,2.08.11,3.12.22,1.12.12,1.77,1.1,1.47,2.17-.37,1.32-1.05,2.52-2.01,3.46-2.83,2.77-5.48,5.7-8.05,8.69-3.46,4.02-7.38,7.56-11.27,11.14-2.67,2.45-5.3,4.92-7.62,7.73-1.8,2.18-3.51,4.43-5.35,6.55-2.77,3.21-4.63,6.99-7.06,10.4-1.51,2.12-3.33,3.96-5.04,5.91-4.06,4.63-8.32,9.06-13.04,13.03-2.59,2.18-5.16,4.37-7.68,6.62-2.92,2.6-5.22,5.74-7.62,8.8-1.87,2.38-4.05,4.51-6.14,6.7-2.41,2.52-4.88,4.99-7.32,7.49-2.77,2.84-5.51,5.72-8.11,8.72-2.8,3.24-5.67,6.43-8.37,9.76-1.73,2.13-3.38,4.3-5.39,6.18-.28,0-.53.05-.63.36Zm-23.13-115.72c.16.19.35.2.58.07-.2-.1-.39-.2-.58-.29-.5-.53-.64-1.17-.58-1.88.08-.99.16-1.98-.09-2.98-.17-.66-.49-.84-1.07-.57-.78.36-1.53.78-2.31,1.13-1.23.55-2.3,1.18-2,2.82.04.19-.09.41-.16.62-.19.6-.02.86.64.82,1.87-.12,3.71.21,5.57.27Zm-.74-14.05c0-.06,0-.12,0-.17-.02.06-.04.12-.06.19-3.44,1.62-6.61,3.8-10.62,4.8,1.94.89,3.26,2.1,4.31,3.57.49.7.83.66,1.54.33,1.47-.69,2.73-1.91,4.51-1.87.45,0,.39-.33.39-.61-.02-2.08-.04-4.16-.06-6.24Zm-18.25,2.54c.94.16,1.88.31,2.83.47,0,.13.05.21.19.18.42-.02.79-.02,1.23.17.94.39,1.97,1.31,2.95.01.04-.05.13-.06.2-.08,3.07-.84,5.86-2.32,8.62-3.85.53-.29,1.04-.67,1.7-.54.28.06.39-.06.38-.33-.02-.7.12-1.35-.88-1.66-2.94-.92-5.77-2.15-8.52-3.57-1.33-.69-2.75-1.21-4.11-1.84-.36-.17-.58-.14-.85.12-1.27,1.23-2.9,1.96-4.26,3.09-.76.63-1.48,1.43-2.51,1.71-.15-.1-.18.03-.21.13-.14.09-.29.19-.43.28-.15-.07-.19.03-.23.14-.14.1-.28.2-.42.3-.14-.07-.18.03-.22.13-.58.39-1.15.78-1.73,1.16-.14-.07-.18.03-.22.13-.14.1-.29.19-.43.29-.15-.07-.19.03-.22.14-.36.24-.72.47-1.07.71-.15-.05-.19.03-.2.16-.08.03-.16.06-.24.09-.15-.1-.17.02-.21.12-.21.14-.43.29-.64.43-.33.25-.82.31-.96.81h.95c1.53.32,3.08.49,4.65.45,1.43-.04,2.83.23,4.24.4.08.39.39.23.62.24Zm-12.5,14.35c-2.14.2-4.29.74-6.44.15-1.67-.46-3.36-.38-5.06-.38-1.19,0-2.27.62-3.46.6-1.72-.02-3.45,0-5.17.01-.31,0-.64-.08-.91.2-1.78,1.84-4.1,2.93-6.22,4.51,3.27,1.57,6.53,2.92,9.95,3.88,1.87.53,3.83.82,5.58,1.74.93.49.92.51,1.95.09.45-.18.94-.13,1.37-.05.27.05.47.04.67-.09,1.46-.94,3.04-1.76,4.35-2.88,1.74-1.49,3.53-2.93,5.1-4.62.97-1.05,2.14-1.88,3.55-2.53-1.63-.51-3.26-.52-4.87-.64-.02-.14-.09-.25-.24-.2-.06.02-.1.13-.15.2Zm34.54-40.4c-.73-.15-1.45-.33-2.18-.45-.19-.03-.55-.19-.61.2-.14.97-.37,1.95-.34,2.92.02.72-.16,1.23-.54,1.81-.37.56-.99,1.02-.99,1.79-.29.02-.28.19-.19.39-.04.07-.09.15-.13.22-.13,0-.21.05-.16.2-.11.23-.31.45-.11.73-.25,0-.37.11-.33.36-.73,2.33.24,4.49.69,6.7-.09.16.02.17.13.19.22.43.48.83.9,1.1-.03.14.05.2.18.2.25.66.79,1.17.87,1.92.28,2.87.75,5.72.48,8.63-.26,2.82.58,5.64.2,8.48-.1.71.3.93.91,1.06,1.07.22,2.15.12,3.22.28.86.13,1.31.02,1.31-1.03,0-1.22.34-2.41,1.71-2.83.72-.22.78-.64.78-1.28,0-4.12-.75-8.18-1.13-12.27-.11-1.15.14-1.79.84-2.6,1.27-1.46,2-3.14,1.4-5.16-.54-1.84-1.55-3.36-2.93-4.67-.08-.27-.25-.41-.54-.4-.75-.54-.69-1.27-.56-2.08.2-1.27.31-2.62-.06-3.79-.13-.41-1.58-.4-2.42-.59-.12-.32-.25-.32-.4-.02ZM8.07,124.27c.27-.23.29-.44-.04-.64.07-2.64-.07-5.26.34-7.92.3-2.01.66-3.9,1.5-5.75.49-1.07,1.1-2.05,1.6-3.09.38-.8.97-1.39,1.4-2.12.71-1.21,2.01-1.47,3.17-2-.5-.66-1.12-.93-1.78-1.12-2.14-.64-4.18.14-6.27.36-1.64.17-2.68.94-3.49,2.25-2.1,3.38-2.52,7.2-2.87,11.03-.12,1.32-.03,2.65-.03,3.98,0,2.41-.18,4.83.08,7.21.25,2.29.76,4.56,1.26,6.82.9,4.14,2.02,8.19,3.94,11.98.38.76.8,1.5,1.28,2.2,1.63,2.34,5.79,2.32,7.36-.02-.76-.08-1.04-.58-1-1.27.05-.81-.23-1.52-.51-2.26-.37-.99-.86-1.92-1.2-2.92-1.05-3.06-2.02-6.16-3.1-9.21-.87-2.44-1.32-4.95-1.63-7.5Zm123.05-28.33c.94-.22,1.89-.09,2.83,0,.2.39.52.24.77.12.11-.05.03-.24-.12-.31-.02-1.47-.02-2.94-.06-4.41-.03-.97-.13-1.94-.16-2.9-.02-.55.16-1.07.8-1.06.62,0,.64.53.67,1.03.06,1.39,0,2.78.23,4.18.15.91.36,1.98-.15,2.75-.83,1.27.06.99.73,1.01.83.03,1.65.07,2.48.06.71,0,1.53.18,2.12,0,2.59-.78,5.25-1.24,7.89-1.73,1.97-.37,3.98-.45,5.98-.6.25-.02.55.03.63-.28.24-.94.84-1.88.18-2.87-1.14-1.73-2.34-3.37-4.32-4.26-2.25-1.01-4.57-1.71-6.97-2.27-2.52-.59-5.1-.45-7.64-.76-2.14-.26-4.33-.35-6.49-.54-2.11-.18-4.1-.92-6.15-1.36-3.94-.83-7.94-1.21-11.95-1.25-7.36-.08-14.73.12-22.07-.55-2.85-.26-5.67.21-8.51.11-1.69-.06-3.39.06-4.99.65-.58.21-1.18.19-1.76.58-2.37,1.58-4.56,3.41-7.14,4.69-1.06.53-2.21,1.03-3.24,2.06,2.48-.17,4.72-.6,6.94-.98,2.67-.45,4.88.26,7.03,1.65,2.38,1.54,4.79,3.04,7.19,4.55.22.14.57.44.69.04.36-1.18.93-2.42.84-3.6-.13-1.67.25-3.45-.7-5.02-.21-.34,0-.71.38-.89.4-.18.73,0,.9.36.25.51.58,1.05.62,1.59.18,2.54.28,5.11-.58,7.55-.33.93-.02,1.25.68,1.62,1.53.81,3.01,1.72,4.6,2.44,1.99.89,3.82,2.14,5.87,2.92,1.44.55,2.5-.28,2.48-1.87-.03-2.74-.57-5.43-.64-8.18-.04-1.57-.65-3.26-1.52-4.72-.48-.8-.89-1.64-1.29-2.48-.18-.37-.19-.81.28-1.02.42-.19.78,0,.99.4.77,1.45,1.63,2.86,2.15,4.42.82,2.46.7,5.06,1.03,7.6.08.63.27.88.9.91.95.05,1.94.17,2.85.14,2.39-.07,4.65.85,7.04.7,1.64-.1,3.38.29,4.91-.14,2.08-.59,4.15-.74,6.15-.3,2.09.47,4.14.43,6.23.43.19.03.38.05.42-.21Zm-54.61,16.94c-2.06-.99-3.87-2.38-5.61-3.83-3.11-2.6-5.56-5.82-7.97-9.05-.32-.44-.6-.92-.1-1.33.55-.45,1.02-.07,1.37.38.48.61.95,1.24,1.38,1.88,2.28,3.39,5.11,6.26,8.37,8.68,1.19.88,2.32,1.97,4.01,1.89,1.64-.08,3.24.24,4.84.62,1.58.38,3.17,1.15,4.86.24.23-.12.7,0,.96.33.17.21.34.42.65.52,1.43.44,2.54,1.44,3.77,2.22,2.25,1.44,4.45,3.02,6.98,3.91,3.19,1.13,6.39,2.3,9.73,2.95,1.55.3,3.18.85,4.69.4,2.62-.78,5.1-1.96,7.5-3.8-1.13,0-2.01,0-2.89,0-1.94.02-3.89.16-5.76-.45-3.67-1.19-5.01-5.17-2.87-8.36.76-1.13,1.61-2.14,3.3-2.51-4.25-1.46-8.03-3.14-11.85-4.75-2.08-.88-4.29-1.38-6.25-2.63-2.15-1.37-4.59-2.26-6.81-3.53-3.62-2.06-7.16-4.27-10.65-6.56-1.82-1.2-3.75-2.02-6.05-1.65-2.33.38-4.69.62-7,1.17-.43.1-.84.02-1.28.13-2.85.71-5.73,1.3-8.6,1.92-.76.16-1.44-.32-2.23-.22-1.59.22-3.19.38-4.78.58-1.4.18-2.73.37-3.94,1.11-3.05,1.86-5.76,4.2-8.75,6.13-1.64,1.06-3.39,1.91-5.15,2.72-2.51,1.16-5.15,2.03-7.91,2.41-1.47.2-2.94.33-4.45.05-1.87-.35-3.48.1-4.68,1.84-.71,1.04-1.1,2.19-1.71,3.25-1.26,2.2-1.75,4.62-2.03,7.07-.2,1.81-.09,3.67-.08,5.5.01,2.5.05,5.02.97,7.37.72,1.85,1.27,3.75,1.93,5.61,1.04,2.91,1.82,5.91,3.07,8.76.53,1.21,1.33,1.01,2.04.87,1.71-.32,3.39-.85,5.07-1.31.42-.11.83-.27,1.27-.16,2.19.55,4.36,1.19,6.57,1.67,1.33.29,2.68.75,4.06.43,2.06-.49,3.8-1.68,5.58-2.74,3.12-1.86,6.19-3.82,9.37-5.59,1.96-1.09,3.9-2.23,5.78-3.43,3.31-2.11,6.47-4.46,9.86-6.47.74-.44,1.6-.72,2.42-1.62-3.26,1.21-6.19,2.39-9.18,3.36-3.52,1.14-7.08,2.15-10.87,1.92-2.91-.18-5.45-1.18-7.7-3-.35-.29-.7-.58-.44-1.08.25-.49.71-.45,1.12-.27.36.16.69.38,1,.62,2.82,2.19,6.14,2.55,9.44,2.02,5.74-.92,11.14-3.04,16.43-5.41,4.34-1.95,7.58-5.27,10.86-8.56.21-.21.55-.35.54-.75-.41,0-.82-.08-1.19.01-1.75.44-3.51.25-5.2-.18-2.52-.64-4.79-1.81-6.88-3.44-1.76-1.38-3.65-2.62-5.41-4.01-.44-.35-.88-.84-.41-1.36.38-.42.93-.1,1.33.21,1.69,1.3,3.34,2.65,5.06,3.91,3.11,2.28,6.44,4,10.47,3.68.26.03.52.13.8-.12-.26-.22-.53-.22-.8-.19Zm-52.47,41.24c-.15-.05-.2.04-.21.17-.08.03-.15.06-.23.08-.14-.08-.18.03-.22.13-.33.06-.64.18-.85.46-.15-.02-.21.05-.21.19-.08.03-.16.05-.23.08-.16-.07-.18.02-.18.14-.08.03-.17.06-.25.09-.15-.11-.17.02-.21.12-.14.09-.29.18-.43.27-.15-.05-.2.03-.21.16l-.23.08c-.15-.08-.18.03-.22.13-.14.09-.28.18-.42.27-.15-.05-.2.03-.2.16-.61.14-1.04.58-1.53.93-.15-.06-.19.03-.19.15-.08.03-.17.06-.25.08-.15-.09-.18.02-.22.12-.29.17-.57.34-.86.51-.14-.07-.18.03-.22.13-.69.21-1.11.81-1.72,1.14-.15-.05-.2.04-.21.16-.08.03-.15.05-.23.08-.15-.07-.18.03-.22.13-.29.17-.57.34-.86.51-.15-.07-.19.03-.23.14-.58.19-1.03.59-1.5.95-.15-.07-.19.04-.23.14-.07.07-.13.13-.2.2-.13.07-.38,0-.38.24,0,.22.16.35.38.38.15.01.29.03.44.04,0,.13.06.2.2.18.07,0,.15.02.22.02.07.22.24.23.43.19l1.76.68c-.02.13.03.21.18.18.51-.03.87.35,1.32.47,0,.12.02.22.18.13.08.03.16.06.25.08,0,.13.03.22.19.15.08.02.15.05.23.07.01.13.05.22.21.16.15.08.3.16.45.25.1.27.4.25.58.4.08.02.17.05.25.07.04.11.08.21.23.14.3.14.46.53.86.51.04.1.07.21.22.13.08.03.16.06.24.08,0,.14.07.21.21.21.21.3.54.37.86.44,0,.14.08.21.21.22.83.43,1.65.88,2.35,1.51.04.11.08.21.24.15.15.09.29.19.44.28.04.1.06.22.21.12.08.03.16.06.24.09,0,.14.07.21.2.21.06.25.33.09.45.22.02.22.19.29.35.37.08.02.17.05.25.07.04.11.08.21.22.14.29.18.49.52.89.5,0,.14.06.2.2.2.07.2.24.22.42.24.04.11.08.2.22.14.14.1.29.19.43.29.04.1.06.23.21.12.08.03.16.06.24.09,0,.14.06.21.21.2.07.21.24.23.42.24.04.1.06.22.21.12.08.03.16.06.25.09,0,.14.06.21.2.19.35.39.82.54,1.31.67,0,.14.05.21.21.17.26.38.65.47,1.08.48,0,.13.06.21.21.18.73.3,1.46.6,2.2.89-.02.13.03.21.18.18.15.01.3.03.44.04,0,.13.06.21.2.18l.9.25c-.01.13.04.21.18.18.16.01.31.02.47.03.37.51.93.54,1.48.62.22.01.43.02.65.04.22.27.45.53.86.36.15.02.31.04.46.06,0,.13.04.2.18.18.51.09,1.02.17,1.54.26.01.11.02.23.18.13,2.07.35,3.98,1.32,6.06,1.6.19.16.29.5.65.32.44.11.88.21,1.32.32,0,.13.04.21.18.18,2.41.58,4.83,1.15,7.23,1.76.62.16,1.22.41,1.88.35.01.27.19.29.4.26l.69-.06c.05.43.37.27.6.28,2.16.36,4.33.63,6.47,1.09,2.34.5,4.72.82,7.08,1.18,2.93.45,5.88,1.04,8.69,2.09.01.13.07.21.21.18l1.09.25c0,.13.06.2.2.18.96.14,1.83.64,2.81.69.18.2.32.45.65.38.76-.03,1.41.59,2.21.36,0,.27.16.31.39.29.21,0,.45-.06.63.01,1.69.63,3.45,1.03,5.21,1.42,1.3.29,2.51.99,3.9.92.02.28.21.27.41.24.23-.02.46-.04.69-.06.06.42.37.26.61.27.68-.21,1.29.4,1.98.17.07.41.38.25.61.26.61-.15,1.15.42,1.77.15.07.42.35.3.61.23,4.6,1,9.17,2.14,13.6,3.77.02.13.07.21.22.18.37.08.74.16,1.1.25.01.12.02.23.18.13,1.83.42,3.65.94,5.5,1.23,3.1.49,6.2.92,9.25,1.67.69.17,1.37.62,2.1.13.29.01.58.03.87.04,1.04-.06,1.98.58,3.03.47.22.27.46.5.86.4.73.3,1.46.59,2.19.89-.02.13.03.21.18.18.22.07.39.31.66.24.07.22.24.24.43.21.12.35.44.15.65.24.01.12.04.22.19.14.08.03.17.05.25.08,0,.13.05.2.19.18.71.32,1.35.85,2.17.9.01.12.04.22.2.14.08.02.17.05.25.07,0,.13.05.2.19.18.44.16.88.31,1.32.47,0,.13.05.2.19.18.22.08.38.32.66.23.22.27.49.45.86.37.08.03.15.05.23.08,0,.13.05.2.19.18.44.15.89.31,1.33.46,0,.12.01.22.17.14.15.03.3.05.45.08,0,.13.06.2.2.18.15.01.29.03.44.04.01.13.07.21.21.18.26.19.55.27.87.25,0,.13.06.21.21.18.26.2.56.26.88.25,0,.13.06.2.2.18.07,0,.15.02.22.03.08.22.23.25.43.15l.23.07c0,.13.05.2.19.18.14.01.29.03.43.04.02.13.07.21.21.18,2.27.71,4.59,1.25,6.91,1.77.03.11.06.22.21.14.51.1,1.02.19,1.54.29.02.11.03.23.19.13.76.01,1.41.59,2.2.44.02.26.2.29.4.25,1.08.15,2.17.29,3.25.44.49.38.99.36,1.49,0,.51,0,1.01-.01,1.52-.02.19.03.35,0,.42-.2.87-.37,1.74-.74,2.61-1.11.13.03.18-.01.14-.15,1.32-.89,2.64-1.78,3.97-2.67.11.01.17-.01.11-.14,1.12-1.26,2.24-2.52,3.35-3.79l.13-.04s-.04-.04-.06-.06c.04-.1.07-.21.13-.29,4.81-5.95,9.8-11.75,15.09-17.28,3.44-3.6,6.93-7.15,10.43-10.68,4.23-4.27,7.75-9.13,11.62-13.71.21-.06.44-.08.52-.34,2.28-2.01,4.53-4.07,6.86-6.02,3.02-2.53,6.06-5.03,8.76-7.9,1.13-1.2,2.24-2.42,3.36-3.62,3.35-3.56,6.73-7.08,9.37-11.22,1.38-2.18,2.63-4.44,4.18-6.51.66-.88,1.48-1.65,2.11-2.83-1.26.45-2.1-.13-2.94-.75-2.01-1.49-4.05-.95-6.01.07-.85.44-1.54,1.18-2.35,1.71-2,1.3-4.19,2.06-6.48,1.08-1.22-.52-2.25-.6-3.47-.17-2.34.82-4.75.87-7.12.1-1.53-.5-1.83-.37-2.54,1.08-.65,1.33-1.78,2.02-3.26,2.15-2.09.18-4.16-.28-6.24-.19-.86.04-1.73-.03-2.59-.03-1.82,0-3.48-.73-5.21-1.15-.24-.06-.53-.17-.71.06-.2.25.05.46.17.68.63,1.19.49,1.77-.67,2.47-.83.5-1.69.95-2.53,1.44-.15.09-.6.1-.27.49.45.53.08,1.18-.25,1.25-.55.11-1.14.68-1.81.02-.42-.42-.82-.87-1.29-1.26-.25-.21-.48-.49-.84-.33-.8.37-1.69.46-2.52.73-1.03.33-2.2.94-3.17-.26-.17-.21-.48-.27-.77-.34-2.56-.68-5.19-.71-7.8-.69-3.28.02-6.56-.32-9.85.28-1.87.34-3.87.2-5.81.04-.87-.07-1.65-.32-2-1.07-.48-1.06-1.17-.91-1.99-.64-.54.18-1.09.37-1.65.5-1.13.26-2.2.4-3.34-.22-1.35-.73-2.59-1.82-4.36-1.6-.95.12-2.14.41-2.69-.92-.03-.08-.26-.07-.39-.11-.33-.11-.86.05-.84-.57.01-.52-.13-1.04.44-1.44,2.33-1.62,4.71-3.14,7.49-3.88.84-.22,1.59-.65,2.21-1.28.05-.03.1-.06.15-.08-.05-.03-.09-.06-.14-.09-.93-1.16-.89-1.83.21-2.81.32-.28.66-.54,1.01-.79.35-.25.74-.37,1.06,0,.31.37.26.82-.04,1.17-.27.32-.62.57-.94.85-.3.15-.25.29.02.41.93.89.96,1.48.04,2.32-.96.87-2.04,1.54-3.32,1.91-1.87.53-3.62,1.33-5.17,2.52-.66.24-.18.47,0,.71-.08.68.39.64.82.61,1.24-.09,2.46,0,3.48.81,1.86,1.47,3.84,1.16,5.85.46.24-.01.53.06.63-.33h-.63c-1.01-.25-1.4-.93-1.29-1.92.11-1.01.62-1.89,1.1-2.74,2.37-4.23,4.78-8.43,7.17-12.64.65-1.15,1.41-2.25,1.89-3.49.13-.1.29-.24.14-.38-.16-.15-.27.05-.36.17-2.64,1.79-5.33,3.52-7.91,5.39-6.21,4.51-12.35,9.12-18.57,13.62-2.63,1.91-5.38,3.64-8.08,5.46-.14-.07-.18.03-.22.14-.14.1-.28.19-.43.29-.15-.07-.19.03-.23.14-.29.33-.82.28-1.06.69-.15-.02-.21.05-.2.19-.39-.02-.6.31-.89.49-.15-.06-.2.03-.21.16-.08.02-.15.05-.23.07-.15-.08-.19.03-.23.14-.17.02-.35.04-.41.25-.14-.02-.21.05-.2.19-.32.09-.68.13-.88.45-.14-.02-.21.05-.21.19-.36.16-.73.32-1.09.48-.17-.01-.35-.06-.42.17-.07.08-.15.16-.22.25-.15-.03-.21.05-.21.18-.08.02-.15.05-.23.07-.15-.07-.19.02-.19.15-.08.02-.16.04-.24.07-.16-.08-.19.02-.2.15-.08.02-.15.05-.23.07-.16-.07-.19.02-.19.15-.08.03-.16.06-.25.09-.15-.09-.18.02-.22.12-.96.62-1.94,1.19-3.02,1.59-.16-.07-.19.02-.19.15-.08.03-.16.05-.24.08-.16-.08-.18.01-.18.14-.08.03-.17.06-.25.09-.14-.09-.17.02-.21.12-1.08.53-2.16,1.07-3.24,1.6-.15-.09-.18.03-.23.13-.38.31-.97.21-1.27.67-.14-.01-.21.06-.22.2-.07.02-.15.05-.22.07-.15-.07-.19.02-.19.15-.08.03-.16.06-.25.09-.15-.1-.18.02-.21.12-.29.17-.58.34-.86.51-.15-.07-.19.04-.23.14-.14.09-.28.18-.42.27-.15-.05-.2.03-.2.16-.24.1-.47.19-.71.29-.16.09-.35.14-.37.36l-.24.08c-.15-.09-.18.02-.22.12-.14.09-.28.19-.42.28-.15-.05-.19.03-.2.16-.39,0-.6.31-.88.5-.15-.06-.19.02-.19.15-.08.03-.16.05-.24.08-.15-.09-.19.03-.23.13-.5.31-1,.63-1.5.94-.15-.06-.19.04-.23.15-2.33,1.34-4.86,2.02-7.53,2.19-.33-.12-.67-.48-1.05.07.39.07.71.13,1.03.19.37.68.97,1.13,1.56,1.6,1.64,1.3,3.54,2.16,5.31,3.24.47.29,1.03.62.66,1.25-.36.62-.94.34-1.42.06-1.33-.77-2.67-1.54-3.97-2.36-1.06-.67-2.08-1.4-2.91-2.37-.28-.32-.69-.7-.48-1.13.47-.98-.18-.87-.75-.88-.22-.28-.43-.58-.8-.17-.4.11-.74-.13-1.11-.19-.02-.06-.05-.11-.07-.17-.03.06-.06.11-.09.17-.22,0-.44,0-.67,0-.16-.2-.4-.26-.51-.05-.09.18.08.38.31.46.38.63.98,1.05,1.5,1.53.01.13.07.21.21.18,1.37,1.08,2.73,2.17,4.1,3.25.44.35.78.68.21,1.19-.15-.08-.18.02-.19.14-.22,0-.45,0-.67,0-.24-.27-.34-.72-.86-.61-.39-.37-.78-.74-1.17-1.12-.08-.28-.27-.42-.56-.4-.24-.23-.49-.45-.73-.68-.08-.28-.27-.42-.56-.4-1.3-1.12-2.64-2.19-3.45-3.75-.11-.22-.23-.33-.46-.37-1.29-.22-2.58-.44-3.87-.66-.14-.14-.35-.44-.46-.31-.24.27.12.37.3.51.02.36.26.61.46.87-.04.3.09.41.38.34.34.6.75,1.12,1.43,1.36,0,.33.23.41.48.48.36.35.73.71,1.09,1.06.01.13.06.21.21.18.49.35.98.69,1.46,1.05.66.49.8,1,.06,1.55-.13-.09-.27-.17-.44-.08-1.46-.75-2.47-2.05-3.72-3.06-.84-.68-1.71-1.39-2.17-2.44.02-.12-.02-.18-.15-.13-.41-.22-.62-.63-.67-1.03-.1-.85-.69-1.02-1.36-1.16-1.15-.22-2.29-.46-3.44-.68-.02-.05-.03-.11-.05-.16-.02.05-.04.11-.06.16-1.46-.29-2.92-.58-4.38-.87-.03-.06-.06-.12-.09-.18-.04.06-.08.11-.12.17-.25,0-.51.05-.75,0-3.39-.75-6.79-1.47-10.17-2.28-1.61-.39-2.04-1.28-1.17-2.49.06-.02.12-.05.18-.07-.06-.04-.11-.08-.17-.12.21-.51.43-1.02.64-1.53.13,0,.2-.04.18-.18.38-.76,1.13-1.11,1.78-1.58.13.03.18-.01.13-.15.93-.59,1.92-1.11,2.78-1.79,1.05-.84,2.11-1.63,3.35-2.17.13.03.18,0,.13-.14.64-.71,1.72-.86,2.24-1.73,2.24-1.26,4.21-2.9,6.45-4.19-.51-.14-.94-.14-1.37-.15-1.72-.03-3.15.56-3.95,2.14-.35.7-.84,1.22-1.38,1.74-1.69.6-3.25-.12-4.86-.45-1.6-.33-3.13-.56-4.35,1.06-1,1.33-2.34,2.01-4.11,1.23-1.13-.5-2.29-.23-3.38.31-.56.28-1.15.5-1.68.83-2.11,1.31-4.46,1.22-6.79,1.11-1.19-.05-2.36-.02-3.53.24-.55.05-.77.48-1.03.87-1.6.3-3.19.55-4.82.27-.15-.05-.19.03-.2.16-.24.09-.48.19-.72.28-.16.08-.34.15-.38.36-.08.03-.15.05-.23.08-.15-.08-.18.03-.22.13-.28.17-.57.33-.85.5-.15-.06-.19.03-.2.16-.08.03-.16.05-.23.08-.15-.08-.18.03-.22.13-.14.09-.28.18-.42.28-.15-.05-.2.03-.21.16-.39-.01-.58.33-.87.5-.15-.06-.19.03-.19.15-.08.03-.17.06-.25.09-.15-.11-.17.02-.2.12-.15.1-.29.19-.44.29-.15-.07-.18.03-.22.14-.4-.02-.55.37-.86.51-.15-.07-.19.03-.23.14-.09.02-.18.04-.27.07-.04,0-.08,0-.12,0-.27,0-.35.2-.46.38-.14-.01-.2.06-.21.2-.08.02-.15.05-.23.07-.15-.08-.19.03-.23.13-.18.02-.35.06-.42.25-.14-.02-.2.06-.2.19-.08.03-.16.05-.24.08-.14-.08-.18.03-.22.13-.14.09-.28.19-.43.28-.15-.05-.19.03-.2.16-.08.03-.16.06-.24.09-.15-.1-.17.02-.21.12-.14.09-.29.18-.43.27-.15-.05-.2.03-.2.16-.08.03-.15.05-.23.08-.15-.08-.18.03-.22.13-.4-.02-.56.37-.86.51-.15-.08-.18.03-.22.13-.14.1-.28.19-.42.29-.15-.06-.19.02-.19.15-.32.09-.68.12-.88.45-.14-.02-.21.05-.21.19-.08.03-.16.06-.24.08-.15-.1-.18.03-.21.13-.29.17-.57.34-.86.51-.15-.07-.18.02-.19.15-.08.03-.17.06-.25.09-.15-.11-.17.02-.21.12-.21.29-.68.1-.85.45-.14-.01-.21.06-.21.2-.08.03-.16.05-.23.08-.15-.08-.18.03-.22.13-.17.02-.35.04-.41.24-.14-.01-.21.06-.21.2-.08.03-.16.06-.24.08-.15-.09-.18.02-.22.12-1.01.6-2.01,1.21-3.02,1.81-.15-.08-.19.03-.23.13-.23.28-.72.24-.85.65-.34.05-.64.18-.85.46-.47.14-.94.26-1.31.62-.14,0-.21.07-.21.21-.4-.01-.6.33-.88.52-.15-.1-.17.03-.21.13-.14.1-.29.19-.43.29-.15-.07-.19.03-.23.14l-3.01,2Zm149.61-72.98c.32,2.48.28,4.86.41,7.22.04.68.23.93.93.95,1.78.05,3,1.04,3.82,2.55.14.27.31.37.57.4,1.96.29,3.88.72,5.77,1.31.24.07.46.21.67-.22.72-1.46,2.7-1.97,4.12-1.13.5.3.98.62,1.57.68.38.04.75-.09.37-.53-.81-.92-.51-1.87-.16-2.83.25-.7.48-1.4.17-2.21-.61.26-1.1.6-1.43,1.12-.27.44-.57.82-1.1.42-.5-.38-.46-.87-.09-1.32.6-.73,1.35-1.31,2.2-1.7,1.08-.5,1.96.02,2.08,1.2.11,1.05-.05,2.08-.44,3.07-.24.61-.22,1.11.21,1.69.77,1.04.35,2.13-.89,2.53-1,.33-1.97.1-2.77-.48-1.03-.75-1.85-.4-2.8.25,1.39.61,2.74,1.04,4.11,1.44,1.5.44,1.8,1.48.84,2.7-.38.48-.76.96-1.21,1.38-.94.87-1.92,1.69-2.88,2.53.1.12.2.24.31.36,2.14-.58,4.25-1.36,6.49-1.39,1.88-.03,3.47-.77,5.06-1.62.38-.21.78-.39,1.13-.64,1.31-.92,2.67-1.08,4.18-.54,1.42.51,2.87.41,4.31,0-.18-.42-.4-.77-.48-1.14-.17-.81-.14-1.72.68-2.09,1.71-.78,3.48-1.51,5.37-1.66,1.25-.09,2.63-.43,3.71.59,1.68,1.59,3.58,1.56,5.63.93,1.09-.34,2.13-.91,3.31-.94,3.28-.06,6.53.25,9.78.62,2.21.25,4.39.71,6.64.69,1.41-.01,2.78.36,4.06.96.45.21.81.51.69,1.08-.12.54-.54.76-1.04.78-.68.02-1.38.05-2.04-.06-2.69-.46-5.37-.31-8.05,0-2.07.24-4.09.77-6.2.79-1.16,0-2.43.2-3.26,1.19-.76.9-1.58,1.01-2.45.38-1.35-.98-2.79-.98-4.32-.61-.73.17-1.48.3-2.23.41-2.08.3-4.16.42-6.18-.26-.77-.26-1.43-1.25-2.26-.1-.08.11-.41.02-.63.04-.54.05-1.09.05-1.6.19-.99.27-1.93.2-2.93-.04-1.07-.25-2.11-.97-3.31-.26-1.72,1.01-3.47,1.98-5.43,2.53,1.13,1.49,3.48,1.63,4.81.36,1.38-1.32,1.43-1.32,3.19-.56.52.23,1.08.41,1.63.54,1.6.37,3.21.26,4.82.04.48-.06.89.02,1.01.55.12.51-.15.83-.63.96-.24.07-.49.15-.74.16-2.37.08-4.76.27-6.97-.9-.34-.18-.6-.22-.96.08-2.5,2.1-4.94,2.06-7.4-.09-.53-.46-1.11-.82-1.84-.76-1.66.14-3.25.6-4.81,1.15-.5.18-.92.48-1.49.62-1.29.33-2.72.86-3.41,2.04-2.73,4.64-5.32,9.37-7.93,14.08-1.04,1.88-2.2,3.71-2.99,5.73-.14.36-.58.89.28,1.04.8.14,1.55.34,2.32.71.73.35,1.37-.78,2.19-.97.1-.02.2-.07.31-.09,3.31-.84,6.06-2.77,8.87-4.57.49-.31,1.01-.65,1.22-1.41-.59.14-1.07.24-1.55.36-1.72.41-2.99-.45-3-2.2,0-.87-.35-1.19-1.08-1.41-.87-.26-1.67-.68-2.27-1.39-.35-.41-.39-.86.04-1.24.39-.34.75-.15,1.01.21.51.68,1.27.94,2.02,1.15,1.25.35,1.91,1.06,1.77,2.42-.09.85.38,1.09,1.13.96.67-.12,1.34-.31,2.01-.36,1.26-.09,2,1,1.49,2.15-.35.78-.92,1.39-1.61,1.85-2.9,1.93-5.76,3.94-9.2,4.87-1.25.34-2.22,1.09-3.11,2.1.69.31,1.34.41,2.03.44,2.56.11,5.08-.43,7.64-.46,4.14-.05,8.27.16,12.41.25,1.12.02,2.26.22,3.21.81.86.53,1.67.54,2.56.25.55-.18,1.09-.36,1.65-.5.81-.2,1.86-.46,2.38.08.95.98,1.57.34,2.32-.07.53-.3,1.07-.59,1.59-.91.42-.26,1.15-.38,1.16-.85,0-.55-.7-.73-1.18-.97-.43-.22-.81-.48-.77-1.06.04-.55.43-.81.86-1.01.99-.46,2.08-.51,3.06-.18,4.29,1.43,8.74,1.14,13.14,1.22,1.02.02,2.11-.12,2.66-1.26,1.01-2.08,2.29-2.7,4.44-1.87,1.49.58,2.93.62,4.43.3,1.09-.23,2.18-.46,3.25-.76.67-.18,1.3-.17,1.88.17,2.42,1.41,4.55.66,6.6-.81.76-.55,1.46-1.2,2.29-1.61,2.37-1.18,4.77-1.55,7.14.08.38.26.81.47,1.23.66.61.28,1.24.52,1,1.72.6-.74.93-1.16,1.26-1.58,2.71-3.46,5.51-6.87,8.85-9.72,7.47-6.38,13.92-13.74,20.56-20.92.88-.95,1.71-1.95,2.31-3.11.24-.46.33-.8-.4-.83-.75-.03-1.5-.15-2.25-.19-3.23-.19-6.45-.38-9.66-.8-1.53-.2-3.18-.52-4.61-.02-2.24.78-4.53,1.39-6.78,2.11-1.51.48-3.02.45-4.58.32-2.83-.24-5.63-.86-8.48-.72-2.55.13-5.09.19-7.65-.01-4.72-.37-9.45-.45-14.15-1.07-6.24-.82-12.52-1.24-18.81-1.31-2.3-.03-4.57-.23-6.84-.54-5.72-.78-11.46-1.37-17.21-1.86-3.24-.28-6.49-.51-9.73-.8-3.66-.33-7.23-1.18-10.98-1.99Zm-1.61,17.96c.1.29.18.64.34.95.81,1.62.81,3.36.64,5.07-.22,2.26-1.78,3.74-3.49,4.96-5.12,3.67-11.06,4.91-17.17,5.52-.76.08-1.14.18-1.42.98-.52,1.49-1.37,2.92-3.19,2.9-1.63-.02-3.28-.27-4.88-.6-.8-.17-1.66-.26-2.41-.31-1.47-.1-2.92-.28-4.36-.51-1.36-.22-2.74-.57-4.08-.77-1.96-.3-3.94-.44-5.86-.96-.67-.18-1.41-.32-1.28.85.03.27-.19.61-.37.87-1.31,1.89-3.12,3.19-5.13,4.25-.37.2-.78.07-1.2.33-1.86,1.19-3.73,1.87-6.15,1.42-2.4-.45-4.79-.89-7.16-1.5-.53-.14-.94-.03-1.38.32-3.75,2.95-7.82,5.45-11.75,8.15-3.24,2.23-6.49,4.43-9.78,6.59-.28.18-.67.27-.75.78.79.18,1.57.35,2.35.53,1.64.38,3.33.43,4.97.86,1.47.39,2.99.72,4.5.85,1.83.16,3.68.3,5.45.71,3.52.8,7.09,1.35,10.57,2.32,1.79.49,3.66.67,5.47,1.11,1.66.41,2.95-.09,4.31-1.05,1.38-.98,2.57-2.22,4.04-3.01,2.01-1.08,4.04-2.13,6.02-3.27,2-1.14,4.14-2.06,6.07-3.31,1.53-.99,3.15-1.8,4.66-2.85,2.76-1.92,5.68-3.63,8.57-5.37,7.38-4.44,13.67-10.4,20.96-14.96,6.34-3.97,11.68-9.34,18.19-13.09.53-.31.98-.75,1.57-1.22-2.85-1.14-5.55-2.09-8.4-2.55-1.44-.23-1.45-.18-1.45,1.22,0,.47-.03.93-.04,1.4-.04,1.15-.6,1.8-1.76,1.91-1.73.16-3.46.32-5.22.49Zm-69.54,22.6c-2.33-.47-4.37-1.5-6.35-2.68-1.72-1.02-3.52-1.91-5.03-3.29-1.24-1.14-2.1-1.02-3.32.18-2.96,2.91-5.59,6.15-8.64,8.97-1.77,1.63-3.64,3.15-5.45,4.73-.22.19-.63.34-.5.72.12.32.5.21.77.21.85-.01,1.67.1,2.5.34.87.25,1.68,0,2.2-.98.53-1.02,1.55-1.6,2.66-1.71,1.57-.16,3.12.02,4.64.57,1.74.63,2.31.38,3.4-1.16.8-1.14,1.75-2.18,3.17-2.38,1.28-.18,2.61-.26,3.91.05.49.12.93.08,1.44-.13,1.18-.49,1.98-1.49,3.06-2.1.57-.32,1.29-.46,1.55-1.31Zm20.46-12.24c1.3,1.59,2.43,2.9,2.41,4.77,0,.22.01.41.32.45.8.1,1.53.54,2.3.66,2.7.41,5.41.82,8.1,1.33,1.61.31,3.25.44,4.86.68,1.48.22,2.99.3,4.46.64.64.15,1.21.09,1.04-.9-.18-1.1.06-2.13.76-3.05.2-.26.58-.46.45-.94-.68-.02-1.35-.43-1.95-.4-1.56.1-3.07-.19-4.57-.38-2.79-.37-5.59-.72-8.39-1.03-1.91-.21-3.7-1.02-5.63-1.18-1.31-.11-2.6-.4-4.16-.65Zm25.03,2.04c1.4.05,2.79-.05,4.18-.29,3.06-.53,6.06-1.31,9.02-2.26,3.16-1.01,6.14-2.25,8.32-4.96,1.76-2.19,1.6-4.32-.88-5.88-1.79-1.13-3.8-1.89-5.89-2.08-3.27-.3-6.54-.54-9.86-.12-2.41.31-4.85.46-7.23.98-4.23.92-8.35,1.94-11.41,5.45-1.91,2.2-1.65,6.02.84,7.58.35.22.77.34,1.21.31,1.31-.09,2.59.25,3.85.46,2.61.43,5.21.7,7.84.81Zm-31.55,35.63c.9.1,1.59-.42,2.29-.79,3.74-1.96,7.14-4.5,10.95-6.34,2.05-.99,4.04-2.12,6.05-3.2,2.57-1.38,5.24-2.6,7.66-4.2,1.93-1.27,3.85-2.59,5.72-3.97,2.68-1.99,5.54-3.75,8.15-5.82,4.25-3.38,8.76-6.4,13.1-9.65,3.09-2.31,6.34-4.4,9.48-6.64,2.2-1.57,4.38-3.17,6.47-4.88,1.29-1.06,2.39-2.36,3.57-3.56l-.19-.21c-2.06,1.8-4.52,3-6.72,4.59-2.39,1.73-4.51,3.83-6.9,5.55-3.03,2.18-6.04,4.39-9.24,6.34-2.56,1.56-4.78,3.59-7.17,5.39-3.98,3-7.99,5.93-12.35,8.38-3.85,2.17-7.41,4.84-11.31,6.95-2.81,1.52-5.61,3.06-8.35,4.7-1.26.75-2.6,1.32-3.86,2.06-2.28,1.35-3.97,3.52-6.47,4.57-.32.13-.77.21-.9.72Zm1.23-29.8c.77,0,1.27,0,1.78,0,.5,0,1,0,1.5-.02,1.19-.04,2.74-.98,2.83-1.84.08-.79.12-1.61-.22-2.39-1.17-2.67-4.67-4.61-7.62-4.29-1.72.18-3.25.35-4.35,2.08-1.47,2.31-.65,5.12,1.97,6.07,1.45.53,2.92.31,4.12.4Zm-30.59-2.93c-.37.04-28.34,18.41-29.33,19.44,1.01-.41,1.89-.66,2.75-1.03.87-.37,1.76-.79,2.74-.81,1.63-.02,2.95-.46,3.82-2.02.87-1.56,1.84-1.8,3.36-.96.86.48,1.41.24,2.14-.3,1.68-1.25,3.18-2.69,4.64-4.17,3.36-3.39,6.66-6.84,9.87-10.15Zm27.73,31.98c-.73-.35-1.43-.52-2.01-.55-1.68-.09-3.23-.71-4.86-1.01-2.43-.45-4.79-1.28-7.22-1.61-2.4-.32-4.75-.94-7.19-1.1-2.03-.13-4.03-.79-6.06-1.14-2.43-.42-4.85-.87-7.25-1.41-1.13-.26-.75.85-1.04,1.29-.28.42.34.63.69.66,2.16.19,4.21.88,6.31,1.34,1.97.43,3.97.69,5.95,1.04,1.46.26,2.9.68,4.38.87,2.65.34,5.18,1.21,7.82,1.62,2.65.41,5.22,1.21,7.94,1.23,1.11,0,1.8-.44,2.55-1.22Zm122.56-50.11c-1.25-.41-2.45-.29-3.63-.39-3.24-.28-6.45-.63-9.65.64-2.19.87-4.46.58-6.33-1.17-.72-.67-1.6-.73-2.53-.55-1.3.25-2.58.61-3.87.94-.65.16-1.24.23-1.1,1.05.12.66.57.95,1.28.74.37-.11.72.06.99.32,1.29,1.25,2.92,1.24,4.52,1.13,1.2-.08,2.38-.45,3.58-.62,1.88-.27,3.78-.63,5.48.64.31.23.57.14.84-.13.87-.89,2-1.24,3.19-1.4,2.37-.3,4.79-.27,7.22-1.18Zm-65.82-1.37c0,.5.08,1.02-.02,1.5-.15.78.25.94.86.93.96-.02,1.93-.08,2.89-.09,2.15-.02,2.13-.01,2.43-2.12.19-1.33-.17-2.46-1.05-3.45-.71-.81-3.85-.95-4.63-.22-.22.21-.27.49-.34.77-.22.88-.12,1.78-.15,2.68Zm.08,9.26c-.54.34-.81.86-1.13,1.32-.55.78-1.21,1.42-2.02,1.91-2.37,1.44-4.81,2.7-7.53,3.36-3.24.79-6.42,1.82-9.76,2.13-.21.02-.5.03-.52.26-.02.18.18.38.29.56.23.37.59.16.89.17,4.43.12,8.57-1.17,12.64-2.73,1.68-.64,3.26-1.53,4.64-2.68,1.33-1.11,2.54-2.33,2.51-4.32Zm-40.36.7c-1.56,1.32-3.21,2.41-5.01,3.64,2.33.48,4.47.91,6.75,1.38-.73-1.78-2.02-3.08-1.74-5.02Zm-55.62,14.86c.39-.04.5-.02.57-.07,2.35-1.56,4.71-3.1,7.04-4.7.39-.26,1.18-.25,1.09-.83-.07-.44-.84-.11-1.22-.41-.11-.08-.28-.08-.38-.17-.53-.43-1.06-.2-1.39.17-1.77,2-3.66,3.88-5.71,6Zm34.05-22.39c-1.91-.23-3.76-.56-5.65-.62-.94-.03-1.04.48-1.01,1.27.03.91.6.81,1.17.81.79,0,1.58-.04,2.36.02,1.27.1,2.3-.3,3.13-1.48Zm-38.13,33.75c-.42-.14-.67-.25-.91-.42-1.18-.86-1.83-.76-2.55.46-.39.66-.99,1.07-1.6,1.77,1.88-.2,3.43-.81,5.06-1.81Zm77.76-17.12c-.32.37-.65.7-.9,1.09-.46.71-.92,1.41-.49,2.36.2.44.31.5.66.25,1.08-.79,1.43-2.43.73-3.7Zm16.42-19.01c1.38.6,2.81,1.08,4.37,1.94-.4-.72.53-1.59-.65-1.72-1.23-.13-2.48-.15-3.72-.22Zm-60.35,5.48c-.03-.1-.05-.2-.08-.3-.78,0-1.56-.04-2.34.01-.49.03-.76.39-.76.87,0,.55.42.52.83.57,1.09.15,1.52-.86,2.34-1.16Zm59.65-5.63s-.03-.04-.05-.04c-.07,0-.13.02-.2.02.02.01.03.04.05.04.07,0,.13-.01.2-.02Zm48.65,32.9c-.1.07-.17.12-.24.17.05.04.1.11.15.12.08,0,.15-.04.23-.06-.04-.07-.08-.13-.14-.23Z"/></svg>