<?xml version="1.0" encoding="UTF-8"?><svg id="Layer_1" xmlns="http://www.w3.org/2000/svg" viewBox="0 0 297.64 264.59"><defs><style>.cls-1{fill:none;stroke:#fff;stroke-linecap:round;stroke-linejoin:round;stroke-width:2.24px;}</style></defs><path class="cls-1" d="m52.15,164.91c6.97-5.06,13.17-11.39,20.11-16.59,15.17-11.37,29.26-23.88,44-35.8,11.13-9,22.68-17.58,33.97-26.4,6.62-5.17,13.4-10.26,19.79-15.72,2.38-2.03,6.71-6.49,9.84-7.31,1.67-.44,4.2,3.66,5.28,4.56.65.55,3.09,1.5,3.31,2.16.62,1.84-1.21,4.05-2.24,5.35-3.09,3.92-7.04,7.1-10.87,10.25-4.85,4-10.45,7.07-15.22,11.16-7.24,6.2-14.37,12.87-21.24,19.5"/><path class="cls-1" d="m145.51,114.42c-3.44,1.25-7.22,1.35-10.48,3.08-4.1,2.17-7.24,6.25-10.98,8.96-9.06,6.56-18.7,12.99-28.19,18.92-9.42,5.88-21.33,12.18-31.59,16.34-4.57,1.85-9.49,2.47-14.03,4.43-10,4.32-25.21,11.55-22.14,25.29,2.75,12.24,17.19,8.19,25.82,6.87,3.04-.46,6.12-.31,9.13-.9,6.06-1.19,11.42-4.49,17.37-5.86,4.12-.95,8.6.26,12.53-1.49,11.53-5.13,21.57-13.61,32.91-19.2,12.17-6.02,25.3-9.11,36.02-17.85"/><path class="cls-1" d="m162.6,161.1c-3.17-.72-7.11-.99-10.37-.81"/><path class="cls-1" d="m41.54,201.02c4.71,5.37,10.39,7.29,16.6,10.53,4.88,2.55,9.96,5.93,15.49,6.8,5.21.83,10.38-.74,15.5.08,6.56,1.06,12.72,6.12,19.56,4.43,6.41-1.58,11.65-4.96,17.24-8.27,9.15-5.41,19.28-11.42,29.21-15.29,16.1-6.28,38.14-7.07,49.28-22.38"/><path class="cls-1" d="m107.22,224.02c3.73,1.95,7.56,4.21,11.83,4.67,9.19,1.01,21.81-5.12,30.57-7.66,12.71-3.67,25.81-5.93,38.49-9.71,8.16-2.44,22.42-5.53,27.46-12.7,4.73-6.73-1.09-15.83-.4-22.94"/><path class="cls-1" d="m153.52,220.26c9.21-.37,18.65,2,27.82,2.76,3.86.32,7.7,1.17,11.58.45,3.93-.73,6.66-4.3,9.8-6.46,6.55-4.51,13.8-10.09,18.16-16.89,2-3.1,2.94-6.8,4.46-10.14,8.9-19.62,18.96-39.73,35.09-54.5,10.88-9.97,24.07-16.91,37.22-23.37"/><path class="cls-1" d="m29.19,182.03c1.16,0,2.52-.11,3.61.31,2.17.86,2.59,4.28,3.34,6.16,1.82,4.57,3.25,6.52-.52,10.66"/><path class="cls-1" d="m51.15,128.87c1.97,2.61,5.4,4.06,8.65,3.74"/><path class="cls-1" d="m38.94,171.51c-4.78-1.37-3.28-8.43-1.8-11.63,1.21-2.62,3.2-4.83,4.56-7.38,3.04-5.64,5.42-12.46,7.67-18.45,2.04-5.41,1.93-11.75,5.69-16.42,1.71-2.13,4.3-3.07,6.73-4.12,5.56-2.42,11.5-3.72,16.97-6.34,26.32-12.63,55.71-17.15,82.22-29.41"/><path class="cls-1" d="m36.54,162.27c1.5-.74,3.27-.81,4.82-1.49,1.03-.45,2-1.04,2.99-1.57,4.47-2.36,11-7.11,7.75-12.84-.39-.68-.92-1.34-1.53-1.82-1.09-.86-2.46-1.41-3.71-2"/><path class="cls-1" d="m81.58,141.26c2.32-3.34,1.89-8.27-.21-11.63"/><path class="cls-1" d="m185.9,75.89c10.16-2.33,19.39-7.73,29.65-9.79,6.42-1.29,12.96-1.58,19.42-2.6,10.98-1.73,22.52-4.32,32.83-8.51"/><path class="cls-1" d="m27.69,186.81c-.9,2.65-3.7,4.73-5.64,6.61-4.41,4.26-8.32,8.47-12.12,13.28-1.49,1.89-3.52,3.33-4.87,5.33-.84,1.23-.73,4.49,1.36,4.56,1.8.06,3.67-1.18,5.09-2.1,1.41-.9,2.85-1.75,4.26-2.66,2.41-1.57,4.82-3.27,7.11-5.01,3.63-2.76,7.6-4.92,11.36-7.48"/><path class="cls-1" d="m4.49,213.11c-1.09,1.43-4.21,3.57-4.49,5.36-.08.58,1.21.42,1.45.37,1.45-.28,2.43-1.25,3.61-2.03"/><path class="cls-1" d="m101.44,124.83c1.14,4.75,4.74,8.3,8.9,10.81"/><path class="cls-1" d="m181.89,63.91c.67-.36,1.4-.67,2.02-1.13.96-.72,1.78-1.59,2.81-2.26.52-.34,1.26-1.1,1.92-1.18,1.06-.13,2.17,1.24,2.78,1.94.55.63,1.08,1.26,1.62,1.9.26.31.67.69.75,1.11.14.74-.57,1.44-1.06,1.89-1.3,1.23-2.9,2.05-4.22,3.24"/><path class="cls-1" d="m104.36,123.29c.92,3.25,2.81,5.36,5.27,7.64.98.91,1.98,2,3.2,2.58"/><path class="cls-1" d="m97.74,127.96c1.96,2.95,3.54,6.27,6.28,8.63.78.68,1.76,1.56,2.79,1.83"/><path class="cls-1" d="m144.47,111.35c6.89-5.02,15.26-2.21,22.92-3.38"/><path class="cls-1" d="m97.2,187.96c-7.29.84-14.45-7.14-15.11-13.85"/><path class="cls-1" d="m99.83,222.23c-1.47-1.38-3.29-2.24-4.7-3.71-3.05-3.17-5.68-9-4.9-13.43"/></svg>